<?xml version="1.0" encoding="UTF-8"?>
<svg version="1.1" xmlns="http://www.w3.org/2000/svg" width="547" height="691">
<path d="M0 0 C3.58217688 2.77770495 6.8195414 5.77394342 10 9 C10.57492187 9.56460937 11.14984375 10.12921875 11.7421875 10.7109375 C21.71298686 21.30168294 25.51195118 35.56307457 25.34936523 49.734375 C24.85156801 64.88091019 18.49949812 78.56888143 7.61767578 89.00561523 C-2.57582598 98.29764008 -13.39778204 102.48864245 -27 104 C-27 157.46 -27 210.92 -27 266 C-6.87 266 13.26 266 34 266 C34.66 264.02 35.32 262.04 36 260 C36.93617792 258.12814614 37.92234252 256.28070643 38.94921875 254.45703125 C39.5421875 253.39742188 40.13515625 252.3378125 40.74609375 251.24609375 C41.38675781 250.11300781 42.02742188 248.97992188 42.6875 247.8125 C43.36252467 246.60968097 44.03699371 245.40654998 44.7109375 244.203125 C46.11032134 241.7053307 47.512077 239.20889044 48.91552734 236.71337891 C52.13276978 230.98806212 55.31449211 225.24301204 58.5 219.5 C59.74983391 217.24990773 60.99983443 214.99990801 62.25 212.75 C62.86875 211.63625 63.4875 210.5225 64.125 209.375 C74.75 190.25 85.375 171.125 96 152 C95.08541016 151.57460938 95.08541016 151.57460938 94.15234375 151.140625 C85.29178803 146.44501289 79.84824863 136.45233347 76.75 127.3125 C74.14202645 115.19727741 76.21843192 103.63547382 82.8125 93.1875 C90.1211157 83.14042036 99.4296384 76.41583198 111.93359375 74.24609375 C123.46927857 72.87227873 135.33385888 75.80266963 144.53515625 82.9765625 C154.21820454 91.27631818 160.0611501 100.98568776 161.16015625 113.87890625 C161.65889755 126.00048818 157.51410986 136.79662641 149.5 145.8125 C148.675 146.534375 147.85 147.25625 147 148 C146.13375 148.825 145.2675 149.65 144.375 150.5 C134.86565693 158.30507119 123.84429742 159.61214518 112 159 C109.21104759 158.52272392 106.70612863 157.84898153 104 157 C103.60300903 158.29997925 103.60300903 158.29997925 103.19799805 159.6262207 C102.00637438 162.98204859 100.56533561 165.87338769 98.83203125 168.98046875 C98.19386475 170.13047363 97.55569824 171.28047852 96.89819336 172.46533203 C96.20304752 173.70610247 95.50781408 174.94682383 94.8125 176.1875 C94.09010271 177.48525088 93.36818652 178.78326968 92.64672852 180.08154297 C91.1613782 182.75264712 89.6732266 185.42215923 88.18261719 188.09033203 C86.15981161 191.71174902 84.14503474 195.33753469 82.1328125 198.96484375 C77.80962069 206.75784613 73.47754581 214.54589711 69.14550781 222.33398438 C68.53288086 223.43548828 67.92025391 224.53699219 67.2890625 225.671875 C66.67377686 226.77474854 66.05849121 227.87762207 65.42456055 229.01391602 C64.17880672 231.26254495 62.94594731 233.5183639 61.72583008 235.78100586 C58.5867422 241.56623284 55.32158882 247.06987024 51.53515625 252.45703125 C36.20962446 275.00519645 38.38720587 295.8072604 39 323 C65.73 323.33 92.46 323.66 120 324 C120.66 321.03 121.32 318.06 122 315 C127.02207029 302.63418101 136.13522075 292.9881302 148 287 C162.22827623 281.28779118 177.36549119 279.58908293 192 285 C206.66856216 291.4436898 216.35639231 300.51789115 223 315 C227.75788719 327.89595687 227.22009704 341.29772082 221.74609375 353.8828125 C214.2446302 368.55870031 203.2534034 376.34841264 188.04296875 382.0546875 C174.1131305 386.38205702 159.18737587 384.38035932 146.3125 377.875 C133.01364382 370.1680725 124.33885587 359.81265213 120 345 C119.0647581 341.2590324 118.96829003 337.84747619 119 334 C118.42546585 334.00222061 117.8509317 334.00444122 117.25898743 334.00672913 C111.10715377 334.02939778 104.95533248 334.04415326 98.8034668 334.05493164 C96.52807125 334.05986466 94.25267869 334.06661174 91.97729492 334.07543945 C74.29144941 334.14217849 56.66973651 333.71993237 39 333 C38.8983784 341.64211874 38.85188241 350.28213346 38.87302971 358.92473888 C38.8811791 362.93938728 38.8713462 366.95220883 38.81835938 370.96655273 C38.76777911 374.85129482 38.76712197 378.7333109 38.79904556 382.61821938 C38.80275612 384.08960224 38.7893908 385.56114453 38.75750351 387.03218651 C38.5140663 399.09383514 42.08375526 405.40012798 50 414 C50.97779745 415.22179929 51.94476848 416.45252841 52.890625 417.69921875 C53.66921875 418.68535156 54.4478125 419.67148437 55.25 420.6875 C61.26869332 428.32648519 67.23536372 436.00561274 73.20166016 443.68554688 C76.13299361 447.45815632 79.06656343 451.22902578 82 455 C85.53631149 459.54597846 89.07207843 464.09237548 92.60546875 468.640625 C102.03063035 480.77256022 102.03063035 480.77256022 111.5234375 492.8515625 C113.15399859 494.91541954 114.75697364 496.99337073 116.3515625 499.0859375 C117.06054688 500.00632812 117.76953125 500.92671875 118.5 501.875 C119.1084375 502.67679687 119.716875 503.47859375 120.34375 504.3046875 C121.16359375 505.14386719 121.16359375 505.14386719 122 506 C125.16495664 506 126.04865298 505.55943621 128.75 504.125 C139.89279606 499.08636126 151.53881265 499.15689081 163 503 C174.79138217 507.81468661 182.381087 515.59613164 187.80859375 527.0078125 C192.3916629 538.51807797 192.41604708 549.7928827 188.16796875 561.4140625 C186.96302514 564.08186407 185.51135852 566.49667941 184 569 C183.87625 569.70125 183.7525 570.4025 183.625 571.125 C182.66671959 573.99984122 180.60357685 574.52841309 178 576 C176.94572979 576.9444504 175.90514209 577.90428918 174.875 578.875 C164.85528714 587.70556012 152.91043595 588.70255142 140.17919922 588.17480469 C129.64284796 587.3296302 120.28784968 580.73373789 113.1875 573.25 C105.95623608 564.44968824 102.43725503 553.28449183 102.6875 541.9921875 C103.61375144 533.12332993 106.8414915 525.44058301 111.828125 518.12109375 C113.32239241 515.82035123 113.32239241 515.82035123 113 512 C111.27865902 509.56587006 109.54236705 507.33203061 107.625 505.0625 C106.50937081 503.70658901 105.3948027 502.34980434 104.28125 500.9921875 C103.44400391 499.97850098 103.44400391 499.97850098 102.58984375 498.94433594 C100.37473228 496.23531447 98.24841521 493.46917393 96.125 490.6875 C92.19099303 485.54339824 88.22813598 480.4225592 84.25 475.3125 C83.65936768 474.55380615 83.06873535 473.7951123 82.46020508 473.01342773 C81.24941301 471.45828346 80.03855631 469.90318951 78.82763672 468.34814453 C77.01013402 466.01302017 75.19424212 463.6766529 73.37890625 461.33984375 C68.10163098 454.54747513 62.82010364 447.75889851 57.5 441 C53.27881318 435.63500265 49.07140458 430.25940717 44.875 424.875 C44.05032227 423.81925781 44.05032227 423.81925781 43.20898438 422.7421875 C38.38999881 416.55203839 33.70954773 410.27939697 29 404 C10.52 403.67 -7.96 403.34 -27 403 C-26.34 465.7 -25.68 528.4 -25 593 C-21.37 593.66 -17.74 594.32 -14 595 C-1.23042218 600.2024206 7.29516847 608.68271195 12.9921875 621.17578125 C17.11079459 631.90377211 16.76146702 643.24904336 13 654 C11.31253642 657.59924256 9.3312031 660.78492842 7 664 C6.49726563 664.70898438 5.99453125 665.41796875 5.4765625 666.1484375 C-1.82067511 675.43906685 -12.52235654 680.22312633 -24 682 C-34.98610214 683.30655486 -46.81392784 679.80387166 -55.5 673.05859375 C-65.54921287 664.4599369 -71.98954171 654.71277256 -73.3828125 641.3203125 C-73.83221756 626.66970745 -69.14029879 615.53001672 -59.375 604.8125 C-52.31734862 598.05229753 -44.50572328 595.07293168 -35 594 C-35.02734726 593.37843521 -35.05469452 592.75687042 -35.08287048 592.11647034 C-36.1128044 567.85163864 -36.31777813 543.58225182 -36.53242874 519.29914093 C-36.56274593 515.91000777 -36.5945008 512.52089088 -36.62667847 509.1317749 C-36.96131826 473.7536362 -37.14436156 438.37968599 -37 403 C-44.76365821 402.80521761 -52.52444865 402.68785609 -60.29030323 402.66578102 C-63.89806627 402.65316753 -67.5016358 402.61521168 -71.1081543 402.51660156 C-87.64015069 401.25060313 -87.64015069 401.25060313 -102.16870117 406.9375 C-105.11197233 410.29898504 -107.01428203 414.01652774 -109 418 C-110.87573242 420.39501953 -110.87573242 420.39501953 -112.63671875 422.296875 C-113.14662354 422.87695312 -113.65652832 423.45703125 -114.18188477 424.0546875 C-114.67873779 424.61414063 -115.17559082 425.17359375 -115.6875 425.75 C-120.62218516 431.38053731 -125.36936853 437.11577216 -130 443 C-132.16280367 445.71142759 -134.33159489 448.41805123 -136.5 451.125 C-137.55217879 452.4400278 -138.60427001 453.75512566 -139.65625 455.0703125 C-140.4296875 456.03710938 -141.203125 457.00390625 -142 458 C-141.60385498 458.44947998 -141.20770996 458.89895996 -140.79956055 459.36206055 C-130.90479034 470.72104541 -126.35207475 481.18497383 -126.71875 496.38671875 C-127.62001002 507.96540648 -133.13179959 518.12723965 -141.51953125 526.109375 C-152.90671415 534.7887396 -164.95122473 537.19121054 -179 536 C-190.33531556 533.91121532 -199.47874971 527.71896757 -206.4375 518.625 C-213.4821413 508.2168312 -216.83699126 496.71174058 -214.46875 484.19140625 C-211.07398934 470.88911041 -204.14158836 460.51908338 -192.26171875 453.1796875 C-179.60136152 446.57618511 -167.36488291 447.12699339 -154 451 C-153.01 451.33 -152.02 451.66 -151 452 C-144.96901026 445.0241552 -138.96834153 438.04561153 -133.24609375 430.8125 C-125.19114332 420.7263012 -116.91081156 410.81805409 -108.5 401.02734375 C-107.675 400.02832031 -106.85 399.02929688 -106 398 C-105.49564423 397.4710463 -104.99128845 396.94209259 -104.47164917 396.39710999 C-99.23917053 390.42963485 -99.13290596 385.11815174 -99.1953125 377.40625 C-99.17488892 375.82602051 -99.17488892 375.82602051 -99.15405273 374.21386719 C-99.11217561 370.30945735 -99.12156363 366.40463289 -99.125 362.5 C-99.08375 353.755 -99.0425 345.01 -99 336 C-130.02 336.33 -161.04 336.66 -193 337 C-193.99 341.29 -194.98 345.58 -196 350 C-201.88327228 366.0031401 -214.00371098 378.75482194 -229.25 386.25 C-246.13806196 393.56881248 -262.70632652 394.1407845 -280 388 C-296.33659697 381.47725679 -308.39375977 369.82333687 -315.69262695 353.89135742 C-322.20440778 338.63852023 -323.14815283 321.55487429 -317.21777344 305.94042969 C-309.69826243 288.26166792 -298.07732217 275.94960417 -280.31640625 268.25390625 C-263.27073354 261.80907593 -246.99929874 262.95385872 -230.296875 269.4375 C-213.90770638 276.94619399 -202.27729732 290.12257791 -196 307 C-193.93040783 313.63266888 -193 318.97177048 -193 326 C-161.98 326 -130.96 326 -99 326 C-98.95875 316.821875 -98.9175 307.64375 -98.875 298.1875 C-98.83616699 295.31184326 -98.79733398 292.43618652 -98.75732422 289.47338867 C-98.17300535 275.43848577 -98.17300535 275.43848577 -103.65603638 263.07453918 C-105.62040066 261.13172895 -107.67727419 259.49242657 -110 258 C-111.37309326 258.34587158 -111.37309326 258.34587158 -112.77392578 258.69873047 C-124.12348419 261.51765363 -133.69960266 262.23597384 -144.45703125 256.74609375 C-153.6465157 251.0007091 -159.39755727 243.43610629 -162.58203125 233.11328125 C-164.35437857 224.15216069 -163.43526639 215.0048257 -159 207 C-152.08901952 197.67417885 -144.5524506 191.14545511 -133 189 C-122.91417489 187.89433468 -114.13548297 189.89829156 -105.75 195.6875 C-97.15680241 202.69263233 -92.48534849 210.85304181 -91.125 221.75 C-90.46869433 233.07840664 -93.96166281 241.28403175 -101 250 C-99.42921185 253.68233943 -97.13566869 256.25546115 -94.4375 259.1875 C-93.63183594 260.06792969 -92.82617188 260.94835937 -91.99609375 261.85546875 C-90.51671369 263.44574399 -90.51671369 263.44574399 -89 265 C-71.84 265.33 -54.68 265.66 -37 266 C-37 212.54 -37 159.08 -37 104 C-40.63 103.34 -44.26 102.68 -48 102 C-56.12502129 99.49494147 -62.69428313 95.6574656 -69 90 C-69.69996094 89.38125 -70.39992187 88.7625 -71.12109375 88.125 C-81.23662899 78.64049058 -87.36035556 65.54183242 -88.203125 51.65234375 C-88.4160719 34.77630196 -84.06608206 20.55744229 -72.30395508 8.16381836 C-52.76657255 -11.537331 -23.49481011 -14.6366317 0 0 Z " fill="#4D5357" transform="translate(321,9)"/>
<path d="M0 0 C0.67994522 -0.0115361 1.35989044 -0.0230722 2.06044006 -0.03495789 C4.31619545 -0.06934067 6.57167641 -0.08778671 8.82763672 -0.10327148 C9.98487558 -0.11362584 9.98487558 -0.11362584 11.16549301 -0.12418938 C15.25307172 -0.16006517 19.3405118 -0.1835787 23.42822266 -0.19726562 C27.63861714 -0.21376983 31.84731885 -0.27211446 36.05714607 -0.34040928 C39.30355594 -0.38534432 42.54956671 -0.39877136 45.79626083 -0.40388298 C47.34718084 -0.41174949 48.89808973 -0.43131249 50.44870377 -0.46310616 C64.09221089 -0.7242621 64.09221089 -0.7242621 69.0090332 3.63476562 C70.14147707 4.86187484 71.26673253 6.09568504 72.38232422 7.33813477 C74.4343103 8.70402975 76.50497143 10.04247896 78.59716797 11.34594727 C87.41657669 17.51416143 95.84409638 24.61175915 98.03778076 35.63043213 C99.40779091 47.60656886 98.99776564 59.67171409 98.33129883 71.68041992 C96.87242129 87.78777166 96.87242129 87.78777166 103.52685547 101.77954102 C105.40889441 103.72601228 107.37612003 105.51263065 109.38232422 107.33813477 C111.23739112 109.52612148 112.97002476 111.79678413 114.69482422 114.08813477 C115.19755859 114.72750977 115.70029297 115.36688477 116.21826172 116.02563477 C121.69785591 123.00600954 127.13973291 130.01573407 132.58398438 137.02368164 C135.51531783 140.79629108 138.44888765 144.56716055 141.38232422 148.33813477 C144.91863571 152.88411323 148.45440265 157.43051025 151.98779297 161.97875977 C161.41295457 174.11069499 161.41295457 174.11069499 170.90576172 186.18969727 C172.53632281 188.25355431 174.13929786 190.33150549 175.73388672 192.42407227 C176.44287109 193.34446289 177.15185547 194.26485352 177.88232422 195.21313477 C178.49076172 196.01493164 179.09919922 196.81672852 179.72607422 197.64282227 C180.54591797 198.48200195 180.54591797 198.48200195 181.38232422 199.33813477 C184.54728086 199.33813477 185.43097719 198.89757098 188.13232422 197.46313477 C199.27512028 192.42449603 210.92113687 192.49502557 222.38232422 196.33813477 C234.17370639 201.15282138 241.76341122 208.9342664 247.19091797 220.34594727 C251.77398712 231.85621273 251.7983713 243.13101747 247.55029297 254.75219727 C246.34534936 257.41999883 244.89368274 259.83481418 243.38232422 262.33813477 C243.25857422 263.03938477 243.13482422 263.74063477 243.00732422 264.46313477 C242.04904381 267.33797598 239.98590107 267.86654785 237.38232422 269.33813477 C236.32805401 270.28258516 235.28746631 271.24242395 234.25732422 272.21313477 C224.23761136 281.04369489 212.29276016 282.04068618 199.56152344 281.51293945 C189.02517218 280.66776496 179.67017389 274.07187265 172.56982422 266.58813477 C165.33856029 257.78782301 161.81957925 246.62262659 162.06982422 235.33032227 C162.99607566 226.4614647 166.22381572 218.77871778 171.21044922 211.45922852 C172.70471663 209.158486 172.70471663 209.158486 172.38232422 205.33813477 C170.66098324 202.90400482 168.92469127 200.67016537 167.00732422 198.40063477 C165.89169503 197.04472378 164.77712692 195.6879391 163.66357422 194.33032227 C163.10541016 193.65453125 162.54724609 192.97874023 161.97216797 192.2824707 C159.7570565 189.57344924 157.63073943 186.8073087 155.50732422 184.02563477 C151.57331725 178.88153301 147.61046019 173.76069397 143.63232422 168.65063477 C142.74637573 167.51259399 142.74637573 167.51259399 141.8425293 166.3515625 C140.63173723 164.79641823 139.42088052 163.24132428 138.20996094 161.6862793 C136.39245824 159.35115494 134.57656634 157.01478766 132.76123047 154.67797852 C127.4839552 147.88560989 122.20242786 141.09703328 116.88232422 134.33813477 C112.66113739 128.97313741 108.4537288 123.59754193 104.25732422 118.21313477 C103.70753906 117.50930664 103.15775391 116.80547852 102.59130859 116.08032227 C97.77232303 109.89017316 93.09187195 103.61753173 88.38232422 97.33813477 C69.90232422 97.00813477 51.42232422 96.67813477 32.38232422 96.33813477 C33.04232422 159.03813477 33.70232422 221.73813477 34.38232422 286.33813477 C38.01232422 286.99813477 41.64232422 287.65813477 45.38232422 288.33813477 C58.15190204 293.54055536 66.67749269 302.02084672 72.37451172 314.51391602 C76.49311881 325.24190688 76.14379124 336.58717813 72.38232422 347.33813477 C70.69486064 350.93737733 68.71352732 354.12306319 66.38232422 357.33813477 C65.62822266 358.40161133 65.62822266 358.40161133 64.85888672 359.48657227 C57.56164911 368.77720161 46.85996768 373.56126109 35.38232422 375.33813477 C24.39622208 376.64468963 12.56839638 373.14200643 3.88232422 366.39672852 C-6.16688865 357.79807167 -12.60721749 348.05090732 -14.00048828 334.65844727 C-14.44989334 320.00784221 -9.75797457 308.86815149 0.00732422 298.15063477 C7.0649756 291.39043229 14.87660094 288.41106644 24.38232422 287.33813477 C24.35254266 286.66004918 24.3227611 285.9819636 24.29207706 285.28332996 C23.40515196 264.40941635 23.24589028 243.57469117 23.28093028 222.68519759 C23.28730523 218.22236911 23.28777853 213.75953948 23.28895569 209.29670715 C23.29202827 200.89699906 23.30018498 192.49730443 23.31030518 184.09760219 C23.32159507 174.51307521 23.32700876 164.92854748 23.33200061 155.34401548 C23.34237244 135.67538114 23.3598904 116.00675881 23.38232422 96.33813477 C24.04232422 96.00813477 24.70232422 95.67813477 25.38232422 95.33813477 C24.89372925 94.85176041 24.40513428 94.36538605 23.9017334 93.86427307 C18.83807787 88.82266192 13.77788315 83.77759674 8.71972656 78.73046875 C6.82929851 76.84452135 4.93763232 74.95982863 3.04492188 73.07617188 C0.33213986 70.37545613 -2.37745745 67.67158139 -5.08642578 64.96704102 C-5.93950317 64.11912491 -6.79258057 63.2712088 -7.67150879 62.39759827 C-8.45231812 61.61686447 -9.23312744 60.83613068 -10.03759766 60.03173828 C-11.07684387 58.99582298 -11.07684387 58.99582298 -12.13708496 57.9389801 C-13.61767578 56.33813477 -13.61767578 56.33813477 -13.61767578 55.33813477 C-12.55723053 55.3278273 -11.49678528 55.31751984 -10.40420532 55.30690002 C-0.42722362 55.20928907 9.549694 55.10656684 19.52657127 54.99879551 C24.65620114 54.94355019 29.78583669 54.89012761 34.91552734 54.84082031 C39.8627696 54.79320051 44.8099411 54.74085857 49.75709915 54.68519402 C51.64778515 54.66475964 53.53849056 54.64604838 55.42921066 54.62906075 C58.07039175 54.60504067 60.71143843 54.57498289 63.35253906 54.54345703 C64.14016129 54.53770157 64.92778351 54.53194611 65.73927307 54.52601624 C69.69025344 54.55225833 69.69025344 54.55225833 73.38232422 53.33813477 C73.71232422 52.34813477 74.04232422 51.35813477 74.38232422 50.33813477 C47.32232422 50.33813477 20.26232422 50.33813477 -7.61767578 50.33813477 C-8.79695075 47.97958482 -8.75051336 46.54996762 -8.76293945 43.92016602 C-8.76931931 43.00581787 -8.77569916 42.09146973 -8.78227234 41.14941406 C-8.78338516 40.15981689 -8.78449799 39.17021973 -8.78564453 38.15063477 C-8.78897293 37.13718994 -8.79230133 36.12374512 -8.79573059 35.07958984 C-8.80079893 32.9343308 -8.80313895 30.78906385 -8.80297852 28.64379883 C-8.80516678 25.35167555 -8.82332846 22.05988628 -8.84228516 18.76782227 C-8.84521866 16.68709425 -8.84720374 14.60636464 -8.84814453 12.52563477 C-8.85533005 11.5360376 -8.86251556 10.54644043 -8.86991882 9.52685547 C-8.86684219 8.61250732 -8.86376556 7.69815918 -8.8605957 6.75610352 C-8.86202072 5.94939209 -8.86344574 5.14268066 -8.86491394 4.31152344 C-8.23216656 -0.73889646 -4.09887047 0.05543539 0 0 Z " fill="#3D4649" transform="translate(261.61767578125,315.661865234375)"/>
<path d="M0 0 C13.81686213 11.10629825 22.07338213 25.39077781 25.34228516 42.76757812 C25.34228516 48.04757812 25.34228516 53.32757813 25.34228516 58.76757812 C56.36228516 58.76757812 87.38228516 58.76757812 119.34228516 58.76757812 C119.34228516 59.09757812 119.34228516 59.42757812 119.34228516 59.76757812 C88.32228516 60.09757812 57.30228516 60.42757812 25.34228516 60.76757812 C24.35228516 65.05757813 23.36228516 69.34757812 22.34228516 73.76757812 C16.45901287 89.77071822 4.33857418 102.52240007 -10.90771484 110.01757812 C-27.7957768 117.33639061 -44.36404136 117.90836262 -61.65771484 111.76757812 C-77.99431182 105.24483492 -90.05147461 93.59091499 -97.3503418 77.65893555 C-103.86212262 62.40609836 -104.80586767 45.32245242 -98.87548828 29.70800781 C-91.35597727 12.02924604 -79.73503701 -0.2828177 -61.97412109 -7.97851562 C-41.48676402 -15.72461883 -17.82796008 -13.25412997 0 0 Z " fill="#F0B252" transform="translate(102.65771484375,285.232421875)"/>
<path d="M0 0 C3.58217688 2.77770495 6.8195414 5.77394342 10 9 C10.57492187 9.56460937 11.14984375 10.12921875 11.7421875 10.7109375 C21.71298686 21.30168294 25.51195118 35.56307457 25.34936523 49.734375 C24.85156801 64.88091019 18.49949812 78.56888143 7.61767578 89.00561523 C-2.07502447 97.84112767 -13.81770493 103.4350445 -27 104 C-29.97 103.67 -32.94 103.34 -36 103 C-36 156.79 -36 210.58 -36 266 C-36.33 266 -36.66 266 -37 266 C-37 212.54 -37 159.08 -37 104 C-40.63 103.34 -44.26 102.68 -48 102 C-56.12502129 99.49494147 -62.69428313 95.6574656 -69 90 C-69.69996094 89.38125 -70.39992187 88.7625 -71.12109375 88.125 C-81.23662899 78.64049058 -87.36035556 65.54183242 -88.203125 51.65234375 C-88.4160719 34.77630196 -84.06608206 20.55744229 -72.30395508 8.16381836 C-52.76657255 -11.537331 -23.49481011 -14.6366317 0 0 Z " fill="#E36E60" transform="translate(321,9)"/>
<path d="M0 0 C10.06976597 8.28095609 16.48314615 20.12975113 18.23828125 33.03515625 C19.60634085 48.00563707 15.08326611 61.24069201 5.55078125 72.78515625 C-4.01895322 82.93487462 -17.84582075 89.28926046 -31.734375 90.23828125 C-48.54528649 90.49331404 -63.17666216 85.43497826 -75.47265625 73.6796875 C-83.63009542 64.25547877 -89.20674902 52.70748392 -88.61767578 40.10839844 C-88.39193968 37.0789545 -88.06674073 34.05764677 -87.76171875 31.03515625 C-96.67171875 31.03515625 -105.58171875 31.03515625 -114.76171875 31.03515625 C-114.76171875 30.70515625 -114.76171875 30.37515625 -114.76171875 30.03515625 C-105.85171875 30.03515625 -96.94171875 30.03515625 -87.76171875 30.03515625 C-87.10171875 27.06515625 -86.44171875 24.09515625 -85.76171875 21.03515625 C-80.73964846 8.66933726 -71.626498 -0.97671355 -59.76171875 -6.96484375 C-38.67911518 -15.42885106 -18.59748106 -13.23130548 0 0 Z " fill="#EFB253" transform="translate(528.76171875,302.96484375)"/>
<path d="M0 0 C0.495 1.485 0.495 1.485 1 3 C3.64 3 6.28 3 9 3 C9.33 2.01 9.66 1.02 10 0 C10 0.99 10 1.98 10 3 C11.01707031 3.12955078 11.01707031 3.12955078 12.0546875 3.26171875 C24.86430577 5.19558079 35.01683559 10.97626163 42.85546875 21.48828125 C49.87441538 32.6319422 52.53541539 44.6364339 49.9375 57.6875 C48.2923975 63.86593926 45.74106846 68.84051696 42 74 C41.24589844 75.06347656 41.24589844 75.06347656 40.4765625 76.1484375 C33.17932489 85.43906685 22.47764346 90.22312633 11 92 C0.01389786 93.30655486 -11.81392784 89.80387166 -20.5 83.05859375 C-30.54921287 74.4599369 -36.98954171 64.71277256 -38.3828125 51.3203125 C-38.83221756 36.66970745 -34.14029879 25.53001672 -24.375 14.8125 C-17.64930647 8.37026482 -9.32025496 4.35847134 0 4 C0 2.68 0 1.36 0 0 Z " fill="#E36D5F" transform="translate(286,599)"/>
<path d="M0 0 C0.74121094 0.16371094 1.48242188 0.32742188 2.24609375 0.49609375 C4.90387452 1.25968778 6.10059216 2.9950695 8 5 C9.28735654 6.08845167 10.57950788 7.17124421 11.875 8.25 C19.67580642 15.06483088 25.41042412 23.61477092 27 34 C27.86795427 48.60499976 25.39999234 59.46108214 16.32421875 71.16015625 C9.02705519 79.26985194 -1.7208797 84.51366228 -12.56640625 85.23828125 C-26.54646472 85.49793043 -37.38828114 82.73148411 -48 73 C-56.90023544 62.99284452 -61.37962115 52.08725844 -61.21875 38.71484375 C-60.17096629 25.71109945 -54.23826494 15.88123054 -45 7 C-31.41160925 -4.15604542 -16.25726074 -4.54073998 0 0 Z " fill="#72C0C4" transform="translate(167,460)"/>
<path d="M0 0 C8.25389337 7.60408937 13.60631019 18.30711191 14.66796875 29.50390625 C14.78402448 40.33190597 12.92711766 48.69358311 7.33203125 57.9609375 C7.14640625 59.0128125 7.14640625 59.0128125 6.95703125 60.0859375 C5.99875084 62.96077872 3.9356081 63.48935059 1.33203125 64.9609375 C0.27776104 65.9053879 -0.76282666 66.86522668 -1.79296875 67.8359375 C-11.81268161 76.66649762 -23.7575328 77.66348892 -36.48876953 77.13574219 C-47.02512079 76.2905677 -56.38011907 69.69467539 -63.48046875 62.2109375 C-70.71173267 53.41062574 -74.23071372 42.24542933 -73.98046875 30.953125 C-73.01568974 21.715366 -69.55779041 12.2201427 -63.66796875 4.9609375 C-61.61328125 3.79296875 -61.61328125 3.79296875 -59.66796875 2.9609375 C-58.96671875 2.4246875 -58.26546875 1.8884375 -57.54296875 1.3359375 C-55.66796875 -0.0390625 -55.66796875 -0.0390625 -53.66796875 -0.0390625 C-53.66796875 -1.3590625 -53.66796875 -2.6790625 -53.66796875 -4.0390625 C-35.2037827 -13.56193011 -16.90805368 -12.92240706 0 0 Z " fill="#72C1C4" transform="translate(497.66796875,520.0390625)"/>
<path d="M0 0 C9.68304829 8.29975568 15.52599385 18.00912526 16.625 30.90234375 C17.1237413 43.02392568 12.97895361 53.82006391 4.96484375 62.8359375 C3.72734375 63.91875 3.72734375 63.91875 2.46484375 65.0234375 C1.59859375 65.8484375 0.73234375 66.6734375 -0.16015625 67.5234375 C-9.61696398 75.28538878 -20.73556313 76.75247415 -32.53515625 76.0234375 C-42.74542583 74.44231964 -50.6486483 69.675113 -57.53515625 62.0234375 C-58.38078125 61.0953125 -59.22640625 60.1671875 -60.09765625 59.2109375 C-67.70412788 49.85832616 -69.62652723 38.81024412 -68.53515625 27.0234375 C-66.17490415 16.08045049 -60.46954811 5.93931861 -51.53515625 -0.9765625 C-35.0975508 -10.94013899 -15.78494003 -12.30690239 0 0 Z " fill="#3DB0AF" transform="translate(465.53515625,91.9765625)"/>
<path d="M0 0 C7.4928204 5.17292793 13.75068966 12.720096 15.78125 21.71484375 C17.85179215 33.08664945 16.16669161 42.39813717 10.03125 52.21484375 C6.62478745 56.98016841 4.15089633 59.45394003 -1.21875 61.71484375 C-1.96511719 62.06933594 -2.71148437 62.42382812 -3.48046875 62.7890625 C-13.03213897 67.28860963 -21.34859625 67.7629358 -31.48046875 64.75 C-40.96629307 61.16406071 -48.37987902 54.1628632 -52.59375 44.96484375 C-56.54306934 35.41779353 -56.62905681 24.94488867 -52.6796875 15.3515625 C-47.80791186 6.55891931 -40.05697732 -0.79095473 -30.53125 -4.09765625 C-19.6465645 -6.96725515 -9.72794976 -5.63467512 0 0 Z " fill="#71C1C5" transform="translate(213.21875,203.28515625)"/>
<path d="M0 0 C22.11 0 44.22 0 67 0 C67 13.86 67 27.72 67 42 C44.89 42 22.78 42 0 42 C0 28.14 0 14.28 0 0 Z " fill="#DAD0CF" transform="translate(257,320)"/>
<path d="M0 0 C10.87809815 0.08630467 19.37892348 0.59909737 27.76757812 7.94726562 C33.72791505 14.31198947 37.81392023 19.13008168 38.08520508 28.14916992 C37.43159041 38.90958934 32.0312327 48.19681706 24.11254883 55.44995117 C17.21126513 60.57777724 9.29115103 65.51384203 0.45239258 64.42651367 C-2.18130981 62.74513971 -4.21655809 60.59879517 -6.35620117 58.33666992 C-6.9677858 57.71755234 -7.57937042 57.09843475 -8.20948792 56.46055603 C-10.15169896 54.48588749 -12.06792146 52.48795597 -13.98510742 50.48901367 C-15.3005958 49.1469792 -16.6176375 47.80646544 -17.9362793 46.4675293 C-27.54760742 36.65421666 -27.54760742 36.65421666 -27.54760742 35.42651367 C-21.93760742 35.42651367 -16.32760742 35.42651367 -10.54760742 35.42651367 C-10.87760742 37.07651367 -11.20760742 38.72651367 -11.54760742 40.42651367 C-7.58760742 40.42651367 -3.62760742 40.42651367 0.45239258 40.42651367 C-0.04260742 37.95151367 -0.04260742 37.95151367 -0.54760742 35.42651367 C7.86739258 34.93151367 7.86739258 34.93151367 16.45239258 34.42651367 C16.78239258 32.44651367 17.11239258 30.46651367 17.45239258 28.42651367 C2.27239258 28.42651367 -12.90760742 28.42651367 -28.54760742 28.42651367 C-28.56823242 24.15713867 -28.58885742 19.88776367 -28.61010742 15.48901367 C-28.61921143 14.14073486 -28.62831543 12.79245605 -28.63769531 11.40332031 C-28.64019287 10.35007568 -28.64269043 9.29683105 -28.64526367 8.21166992 C-28.65050049 7.12764893 -28.6557373 6.04362793 -28.66113281 4.92675781 C-28.34738139 -1.98319566 -5.82617682 0.06930959 0 0 Z " fill="#5B959C" transform="translate(155.547607421875,479.573486328125)"/>
<path d="M0 0 C2.31 0 4.62 0 7 0 C7 2.97 7 5.94 7 9 C8.98 9 10.96 9 13 9 C13.99 7.02 14.98 5.04 16 3 C18.96175123 3.61277612 20.38058783 4.25372522 23 6 C22.690625 6.763125 22.38125 7.52625 22.0625 8.3125 C21.32106407 10.18789677 20.63771783 12.08684652 20 14 C21.76529595 15.21690533 21.76529595 15.21690533 24 16 C25.34977849 15.36729133 26.68352881 14.69937532 28 14 C30.125 14.0625 30.125 14.0625 32 15 C33.25 17.5625 33.25 17.5625 34 20 C33.01 20.556875 32.02 21.11375 31 21.6875 C27.71893347 23.65688967 27.71893347 23.65688967 27.625 26.75 C27.74875 27.4925 27.8725 28.235 28 29 C30.97 29 33.94 29 37 29 C37 31.64 37 34.28 37 37 C34.03 37 31.06 37 28 37 C27.49758678 39.3295947 27.49758678 39.3295947 28 42 C30.90412546 44.35322796 30.90412546 44.35322796 34 46 C33.01 47.98 32.02 49.96 31 52 C27.97580475 51.41196203 24.98241547 50.77321882 22 50 C21.34 50.99 20.68 51.98 20 53 C20.53625 53.7425 21.0725 54.485 21.625 55.25 C23 58 23 58 22.5 60.25 C20.5195524 62.56052219 18.96355871 62.68804645 16 63 C15.62875 62.195625 15.2575 61.39125 14.875 60.5625 C13.1890663 57.68827104 13.1890663 57.68827104 9.8125 57.1875 C8.4203125 57.0946875 8.4203125 57.0946875 7 57 C7 59.97 7 62.94 7 66 C4.69 66 2.38 66 0 66 C-0.33 63.36 -0.66 60.72 -1 58 C-3.37305578 57.58219121 -3.37305578 57.58219121 -6 58 C-7.8624438 60.40858714 -7.8624438 60.40858714 -9 63 C-13.53548387 62.52258065 -13.53548387 62.52258065 -15.5 60.3125 C-16.24716485 56.85686259 -14.74272725 54.94923072 -13 52 C-14.76529595 50.78309467 -14.76529595 50.78309467 -17 50 C-18.34977849 50.63270867 -19.68352881 51.30062468 -21 52 C-23.125 51.9375 -23.125 51.9375 -25 51 C-26.25 48.4375 -26.25 48.4375 -27 46 C-22.25 43 -22.25 43 -20 43 C-20.33 40.69 -20.66 38.38 -21 36 C-23.64 36 -26.28 36 -29 36 C-29 33.69 -29 31.38 -29 29 C-26.36 29 -23.72 29 -21 29 C-20.67 27.02 -20.34 25.04 -20 23 C-21.175625 22.566875 -21.175625 22.566875 -22.375 22.125 C-25 21 -25 21 -27 19 C-25.515 16.525 -25.515 16.525 -24 14 C-20.97580475 14.58803797 -17.98241547 15.22678118 -15 16 C-14.34 15.01 -13.68 14.02 -13 13 C-13.515625 12.236875 -14.03125 11.47375 -14.5625 10.6875 C-15.036875 9.800625 -15.51125 8.91375 -16 8 C-15 5 -15 5 -12 3 C-11.01 3 -10.02 3 -9 3 C-8.01 4.98 -7.02 6.96 -6 9 C-4.35 8.67 -2.7 8.34 -1 8 C-0.67 5.36 -0.34 2.72 0 0 Z " fill="#29303E" transform="translate(61,304)"/>
<path d="M0 0 C4.336502 1.69133562 7.27854111 4.88323419 10.55078125 8.07421875 C11.16898239 8.6762764 11.78718353 9.27833405 12.42411804 9.89863586 C13.7255709 11.17248386 15.02399659 12.449431 16.31958008 13.72924805 C17.64830327 15.03485735 18.985932 16.33146477 20.33227539 17.61889648 C22.27915719 19.48060369 24.19830545 21.36727273 26.11328125 23.26171875 C26.71836014 23.83178146 27.32343903 24.40184418 27.94685364 24.98918152 C29.54484185 26.60423977 30.86235506 28.03269616 32 30 C31.82723761 41.78347927 23.74900853 52.35405058 15.75 60.37890625 C8.0310589 67.73602198 -0.94957763 74.65838137 -11.76586914 76.4609375 C-16.55170465 75.77884665 -18.62338031 73.11223305 -21.859375 69.69140625 C-22.48982727 69.05009262 -23.12027954 68.40877899 -23.76983643 67.74803162 C-25.7778453 65.69987937 -27.76420611 63.63217698 -29.75 61.5625 C-31.75426258 59.5008699 -33.76270147 57.44341364 -35.77301025 55.38768005 C-37.0217609 54.10775179 -38.26616448 52.82356533 -39.50579834 51.5348053 C-42.44375521 48.37033068 -42.44375521 48.37033068 -46 46 C-45.67 45.34 -45.34 44.68 -45 44 C-44.01 44 -43.02 44 -42 44 C-41.54625 43.175 -41.0925 42.35 -40.625 41.5 C-40.08875 40.675 -39.5525 39.85 -39 39 C-36.375 38.625 -36.375 38.625 -34 39 C-33 40 -33 40 -32.90234375 41.84765625 C-32.95117188 44.92382812 -32.95117188 44.92382812 -33 48 C-30.69 48 -28.38 48 -26 48 C-26 45.03 -26 42.06 -26 39 C-23.1875 38.6875 -23.1875 38.6875 -20 39 C-18.125 41.5 -18.125 41.5 -17 44 C-14.525 43.505 -14.525 43.505 -12 43 C-10.59903754 39.92757947 -10.59903754 39.92757947 -12.4375 36.8125 C-12.953125 35.884375 -13.46875 34.95625 -14 34 C-12.79296875 32.44921875 -12.79296875 32.44921875 -11 31 C-8.73828125 31.14453125 -8.73828125 31.14453125 -6.3125 31.8125 C-5.50425781 32.02519531 -4.69601563 32.23789062 -3.86328125 32.45703125 C-3.24839844 32.63621094 -2.63351563 32.81539063 -2 33 C-1.34 31.35 -0.68 29.7 0 28 C-1.98 26.68 -3.96 25.36 -6 24 C-5.67 22.35 -5.34 20.7 -5 19 C-2.03 19 0.94 19 4 19 C4 16.36 4 13.72 4 11 C1.03 11 -1.94 11 -5 11 C-5.495 8.525 -5.495 8.525 -6 6 C-5.01 5.38125 -4.02 4.7625 -3 4.125 C-2.01 3.42375 -1.02 2.7225 0 2 C0 1.34 0 0.68 0 0 Z " fill="#D79A3A" transform="translate(94,322)"/>
<path d="M0 0 C20.13 0 40.26 0 61 0 C61 13.53 61 27.06 61 41 C40.87 41 20.74 41 0 41 C0 27.47 0 13.94 0 0 Z " fill="#FBFAF9" transform="translate(463,322)"/>
<path d="M0 0 C19.14 0 38.28 0 58 0 C58 13.53 58 27.06 58 41 C38.86 41 19.72 41 0 41 C0 27.47 0 13.94 0 0 Z " fill="#D7CDCD" transform="translate(260,36)"/>
<path d="M0 0 C9.16279522 7.85382447 14.94470831 16.86235397 16.46484375 29.0234375 C16.5362024 32.02559764 16.52371138 35.02118846 16.46484375 38.0234375 C16.13484375 38.0234375 15.80484375 38.0234375 15.46484375 38.0234375 C15.39330078 36.2909375 15.39330078 36.2909375 15.3203125 34.5234375 C14.38977584 27.45322933 9.91343803 22.71744215 4.75 18.08984375 C-4.33999872 11.65407333 -19.96112019 13.30176753 -30.53515625 15.0234375 C-31.52515625 15.6834375 -32.51515625 16.3434375 -33.53515625 17.0234375 C-34.19515625 16.3634375 -34.85515625 15.7034375 -35.53515625 15.0234375 C-38.26212848 14.85172847 -40.87422093 14.7909807 -43.59765625 14.8359375 C-44.34337891 14.83658203 -45.08910156 14.83722656 -45.85742188 14.83789062 C-49.49533258 14.53521219 -49.49533258 14.53521219 -52.53515625 16.0234375 C-54.79184725 25.82547608 -56.62924281 38.94038608 -51.32861328 48.11083984 C-47.70971777 53.20092913 -43.38253565 57.56392726 -38.84765625 61.8359375 C-38.19938873 62.44829254 -37.55112122 63.06064758 -36.88320923 63.69155884 C-29.27245141 71.38624061 -29.27245141 71.38624061 -19.53515625 75.0234375 C-19.53515625 75.3534375 -19.53515625 75.6834375 -19.53515625 76.0234375 C-33.95731548 76.6425127 -44.46103254 74.36354996 -55.28515625 64.5234375 C-56.39890625 63.2859375 -56.39890625 63.2859375 -57.53515625 62.0234375 C-58.38078125 61.0953125 -59.22640625 60.1671875 -60.09765625 59.2109375 C-67.70412788 49.85832616 -69.62652723 38.81024412 -68.53515625 27.0234375 C-66.17490415 16.08045049 -60.46954811 5.93931861 -51.53515625 -0.9765625 C-35.0975508 -10.94013899 -15.78494003 -12.30690239 0 0 Z " fill="#72C1C5" transform="translate(465.53515625,91.9765625)"/>
<path d="M0 0 C2.00420779 -0.04647438 4.00804454 -0.11446426 6.01074219 -0.20507812 C24.72224956 -1.03697659 24.72224956 -1.03697659 31.98535156 5.1640625 C37.34569917 11.81540073 37.59116949 18.24874285 37.15185547 26.44384766 C37.03085693 28.70528565 36.98779509 30.95833493 36.95800781 33.22265625 C36.69532571 43.76965648 36.69532571 43.76965648 35.04248047 46.56494141 C26.74206676 51.47295604 9.32060766 49.88865894 0.15722656 47.6796875 C-8.55124887 43.9997869 -15.13690806 37.37812069 -18.84277344 28.6796875 C-20.77165321 19.83909036 -20.45275986 10.56491846 -18.84277344 1.6796875 C-15.73681181 -1.42627413 -4.38182922 0.0796955 0 0 Z " fill="#D46559" transform="translate(288.8427734375,632.3203125)"/>
<path d="M0 0 C2.64 0 5.28 0 8 0 C8.36085809 11.97844348 8.69077553 23.95761521 9 35.9375 C9.0237545 36.85718441 9.047509 37.77686882 9.07198334 38.72442245 C9.95848976 73.4216481 10.17559884 108.10485967 10.125 142.8125 C10.12328796 143.99530926 10.12157593 145.17811852 10.11981201 146.39677048 C10.09719619 160.93124272 10.05729177 175.4656243 10 190 C7.36 190 4.72 190 2 190 C0.53758381 185.61275142 0.61848988 181.28147439 0.44360352 176.67993164 C0.40142228 175.58446801 0.35924105 174.48900438 0.31578159 173.36034489 C-0.21518858 157.82936853 -0.12728345 142.2905191 -0.10139394 126.75263858 C-0.09504001 122.27910952 -0.09454727 117.80557939 -0.09336853 113.33204651 C-0.09029005 104.90387248 -0.08212483 96.4757118 -0.07201904 88.04754359 C-0.06074818 78.43408934 -0.05532012 68.82063437 -0.05032361 59.20717514 C-0.03993831 39.47144271 -0.02240812 19.7357222 0 0 Z " fill="#0F1212" transform="translate(285,412)"/>
<path d="M0 0 C0.89676453 -0.00570007 1.79352905 -0.01140015 2.71746826 -0.01727295 C4.62071548 -0.0267402 6.52397922 -0.03326374 8.42724609 -0.03710938 C11.33330185 -0.04678816 14.2386425 -0.07778389 17.14453125 -0.109375 C18.99218329 -0.11590749 20.83984041 -0.12115699 22.6875 -0.125 C23.55538147 -0.1373468 24.42326294 -0.1496936 25.31744385 -0.16241455 C30.14246193 -0.14469606 33.14552052 0.18093026 37.109375 3.203125 C38.20862305 3.85764648 38.20862305 3.85764648 39.33007812 4.52539062 C42.50652129 6.96718722 44.71142342 9.21993708 45.5234375 13.26660156 C46.11908511 19.40536636 45.83628289 25.55092437 45.609375 31.703125 C45.56920568 33.59367479 45.53271096 35.48430645 45.5 37.375 C45.41225211 41.98640945 45.27444503 46.59386197 45.109375 51.203125 C39.01158889 53.23572037 32.00313724 52.63242543 25.60498047 52.71801758 C23.78138457 52.74963782 21.95799368 52.79737288 20.13525391 52.86157227 C5.03345837 53.38576908 5.03345837 53.38576908 0.49023438 50.59326172 C-1.30869051 48.54730137 -2.5401245 46.56351525 -3.890625 44.203125 C-5.540625 42.223125 -7.190625 40.243125 -8.890625 38.203125 C5.299375 38.203125 19.489375 38.203125 34.109375 38.203125 C34.109375 28.963125 34.109375 19.723125 34.109375 10.203125 C19.589375 10.203125 5.069375 10.203125 -9.890625 10.203125 C-9.890625 -1.49270371 -9.77024357 0.0474011 0 0 Z " fill="#72A8A0" transform="translate(458.890625,530.796875)"/>
<path d="M0 0 C1.94594663 2.33818386 3.72448315 4.78095911 5.5 7.25 C9.68951548 12.96154919 13.99450999 18.53431251 18.5 24 C23.3534539 29.90230269 27.99536929 35.92606196 32.54638672 42.0637207 C36.46150544 47.32712215 40.52106172 52.45861653 44.63867188 57.56445312 C48.25017488 62.04688215 51.78404118 66.58153542 55.27954102 71.15478516 C57.87862823 74.55195176 60.50616054 77.92458514 63.15673828 81.28173828 C65.44588076 84.18153078 67.72428539 87.08966345 70 90 C70.67337402 90.85899902 70.67337402 90.85899902 71.36035156 91.73535156 C72.64426378 93.37992384 73.91743959 95.03221766 75.1875 96.6875 C75.92355469 97.64011719 76.65960938 98.59273437 77.41796875 99.57421875 C79 102 79 102 79 105 C76.69 106.32 74.38 107.64 72 109 C66.0785409 102.59886963 60.72355187 95.84234367 55.45410156 88.90429688 C52.74376229 85.35482636 49.99479513 81.83534729 47.25 78.3125 C46.05075455 76.77215621 44.85153609 75.23179139 43.65234375 73.69140625 C43.05019043 72.91812988 42.44803711 72.14485352 41.82763672 71.34814453 C40.01013402 69.01302017 38.19424212 66.6766529 36.37890625 64.33984375 C31.10163207 57.54747653 25.82027103 50.75876555 20.5 44 C15.78700854 38.01271022 11.099118 32.00616933 6.4309082 25.98388672 C3.31830196 21.96991356 0.18924636 17.97058311 -2.96875 13.9921875 C-3.61223389 13.17717773 -4.25571777 12.36216797 -4.91870117 11.52246094 C-6.15575251 9.95641167 -7.39789513 8.39436701 -8.64575195 6.83691406 C-9.20222412 6.13018555 -9.75869629 5.42345703 -10.33203125 4.6953125 C-10.82421143 4.07672363 -11.3163916 3.45813477 -11.82348633 2.82080078 C-13.0766984 0.88129971 -13.57491217 -0.74345317 -14 -3 C-12.60960943 -3.27868395 -11.21204454 -3.52168931 -9.8125 -3.75 C-8.64654297 -3.95882813 -8.64654297 -3.95882813 -7.45703125 -4.171875 C-3.86067025 -3.92030126 -2.57151443 -2.49646255 0 0 Z " fill="#151818" transform="translate(365,415)"/>
<path d="M0 0 C2.64 0 5.28 0 8 0 C8 53.13 8 106.26 8 161 C5.36 161 2.72 161 0 161 C0 107.87 0 54.74 0 0 Z " fill="#040707" transform="translate(285,113)"/>
<path d="M0 0 C2.64 1.32 5.28 2.64 8 4 C6.68601607 8.30274737 5.02216512 12.05448575 2.83203125 15.98046875 C2.19386475 17.13047363 1.55569824 18.28047852 0.89819336 19.46533203 C0.20304752 20.70610247 -0.49218592 21.94682383 -1.1875 23.1875 C-1.90989729 24.48525088 -2.63181348 25.78326968 -3.35327148 27.08154297 C-4.8386218 29.75264712 -6.3267734 32.42215923 -7.81738281 35.09033203 C-9.84018839 38.71174902 -11.85496526 42.33753469 -13.8671875 45.96484375 C-18.19037931 53.75784613 -22.52245419 61.54589711 -26.85449219 69.33398438 C-36.60693536 86.86888747 -46.31722381 104.42655835 -56 122 C-56.66 122 -57.32 122 -58 122 C-58 119.03 -58 116.06 -58 113 C-59.32 113 -60.64 113 -62 113 C-60.72701932 108.85871685 -59.17498763 105.22950386 -57.05078125 101.45703125 C-56.4578125 100.39742188 -55.86484375 99.3378125 -55.25390625 98.24609375 C-54.29291016 96.54646484 -54.29291016 96.54646484 -53.3125 94.8125 C-52.63747533 93.60968097 -51.96300629 92.40654998 -51.2890625 91.203125 C-49.88967866 88.7053307 -48.487923 86.20889044 -47.08447266 83.71337891 C-43.8672301 77.9880619 -40.6855432 72.24299266 -37.5 66.5 C-36.25145416 64.25251967 -35.00275573 62.00512412 -33.75390625 59.7578125 C-31.23972366 55.23241482 -28.72682608 50.70630685 -26.21484375 46.1796875 C-19.8643523 34.7376703 -13.50526182 23.30044501 -7.125 11.875 C-6.52357178 10.79524902 -5.92214355 9.71549805 -5.30249023 8.60302734 C-4.75149658 7.6177002 -4.20050293 6.63237305 -3.6328125 5.6171875 C-3.14699707 4.74690918 -2.66118164 3.87663086 -2.16064453 2.97998047 C-1 1 -1 1 0 0 Z " fill="#131616" transform="translate(417,162)"/>
<path d="M0 0 C14.52 0 29.04 0 44 0 C44 8.91 44 17.82 44 27 C29.48 27 14.96 27 0 27 C0 18.09 0 9.18 0 0 Z " fill="#F4F5F5" transform="translate(449,541)"/>
<path d="M0 0 C14.52 0 29.04 0 44 0 C44 7.59 44 15.18 44 23 C29.48 23 14.96 23 0 23 C0 15.41 0 7.82 0 0 Z " fill="#F7F8F9" transform="translate(128,483)"/>
<path d="M0 0 C8.91 0 17.82 0 27 0 C27 12.21 27 24.42 27 37 C18.09 37 9.18 37 0 37 C0 24.79 0 12.58 0 0 Z " fill="#F4C5BD" transform="translate(180,215)"/>
<path d="M0 0 C5.09660444 4.36851809 10.12522753 8.70854822 15 13.3125 C15.69222656 13.92544922 16.38445312 14.53839844 17.09765625 15.16992188 C21.8510274 19.72011712 21.8510274 19.72011712 22.27246094 23.34082031 C21.75277509 28.82789298 19.83724027 33.31903121 17 38 C16.62746094 38.63164062 16.25492188 39.26328125 15.87109375 39.9140625 C13.01203612 44.34890436 9.78168104 46.77173664 5 49 C4.27296875 49.37253906 3.5459375 49.74507813 2.796875 50.12890625 C-2.00808203 52.47418289 -5.54265136 53.79863639 -11 53 C-13.84579091 51.04393616 -16.09996251 48.65300351 -18.4375 46.125 C-19.07365234 45.47402344 -19.70980469 44.82304687 -20.36523438 44.15234375 C-25 39.32342575 -25 39.32342575 -25 37 C-16.75 37 -8.5 37 0 37 C0 24.79 0 12.58 0 0 Z " fill="#5E9FA6" transform="translate(207,216)"/>
<path d="M0 0 C1.87625061 0.00213753 1.87625061 0.00213753 3.79040527 0.00431824 C4.47998825 0.00241989 5.16957123 0.00052155 5.88005066 -0.00143433 C8.1647368 -0.00514599 10.44910665 0.00556753 12.73376465 0.01676941 C14.31795209 0.01796113 15.90214025 0.01841439 17.48632812 0.01815796 C20.80859797 0.01972351 24.13076016 0.02801845 27.45300293 0.04142761 C31.71707306 0.05841756 35.9810248 0.06224198 40.24512482 0.06148243 C43.51699967 0.06175403 46.78884851 0.06723366 50.06071472 0.07448387 C51.63323266 0.07767183 53.20575354 0.07963824 54.77827454 0.08037758 C56.97377571 0.0825398 59.16915 0.09128144 61.36462402 0.10197449 C62.61545776 0.10578629 63.8662915 0.10959808 65.1550293 0.11352539 C68.07751465 0.24723816 68.07751465 0.24723816 70.07751465 1.24723816 C70.10278355 8.0648571 70.12034709 14.88246405 70.13244629 21.70011902 C70.13748798 24.02141267 70.14432116 26.34270313 70.1529541 28.66398621 C70.16502689 31.99252611 70.17074444 35.32102418 70.1751709 38.64958191 C70.18033218 39.69436203 70.18549347 40.73914215 70.19081116 41.81558228 C70.19088669 42.77650284 70.19096222 43.7374234 70.19104004 44.72746277 C70.19326065 45.577957 70.19548126 46.42845123 70.19776917 47.30471802 C70.07751465 49.24723816 70.07751465 49.24723816 69.07751465 50.24723816 C66.80759578 50.34163794 64.53469498 50.36466042 62.26281738 50.36076355 C61.19458237 50.36098259 61.19458237 50.36098259 60.10476685 50.36120605 C57.74018352 50.36050686 55.37567803 50.35271422 53.0111084 50.34489441 C51.37586002 50.34303025 49.74061108 50.34160634 48.10536194 50.34060669 C43.7931668 50.33678134 39.48100512 50.32695091 35.16882324 50.31590271 C30.77185519 50.30568896 26.37488176 50.30110915 21.97790527 50.29606628 C13.34442634 50.28532865 4.71097465 50.26825203 -3.92248535 50.24723816 C-5.10176032 47.88868821 -5.05532293 46.45907101 -5.06774902 43.82926941 C-5.07412888 42.91492126 -5.08050873 42.00057312 -5.08708191 41.05851746 C-5.08819473 40.06892029 -5.08930756 39.07932312 -5.0904541 38.05973816 C-5.0937825 37.04629333 -5.0971109 36.03284851 -5.10054016 34.98869324 C-5.1056085 32.84343419 -5.10794852 30.69816725 -5.10778809 28.55290222 C-5.10997635 25.26077894 -5.12813803 21.96898968 -5.14709473 18.67692566 C-5.15002823 16.59619764 -5.15201332 14.51546803 -5.1529541 12.43473816 C-5.16013962 11.44514099 -5.16732513 10.45554382 -5.17472839 9.43595886 C-5.17165176 8.52161072 -5.16857513 7.60726257 -5.16540527 6.66520691 C-5.16683029 5.85849548 -5.16825531 5.05178406 -5.16972351 4.22062683 C-4.73334469 0.73756809 -3.32125507 0.28097352 0 0 Z M-0.92248535 4.24723816 C-0.92248535 18.10723816 -0.92248535 31.96723816 -0.92248535 46.24723816 C21.18751465 46.24723816 43.29751465 46.24723816 66.07751465 46.24723816 C66.07751465 32.38723816 66.07751465 18.52723816 66.07751465 4.24723816 C43.96751465 4.24723816 21.85751465 4.24723816 -0.92248535 4.24723816 Z " fill="#404349" transform="translate(257.9224853515625,315.7527618408203)"/>
<path d="M0 0 C9.24 0 18.48 0 28 0 C28 10.23 28 20.46 28 31 C18.76 31 9.52 31 0 31 C0 20.77 0 10.54 0 0 Z " fill="#85C2C6" transform="translate(436,109)"/>
<path d="M0 0 C11.22 0 22.44 0 34 0 C34 8.25 34 16.5 34 25 C22.78 25 11.56 25 0 25 C0 16.75 0 8.5 0 0 Z " fill="#78CEF0" transform="translate(275,635)"/>
<path d="M0 0 C7.33845237 -0.02590394 14.6768925 -0.04309155 22.01538086 -0.05493164 C24.49845825 -0.05988087 26.98153287 -0.0666419 29.46459961 -0.07543945 C47.00107728 -0.1358978 64.48072671 0.21063323 82 1 C82 3.97 82 6.94 82 10 C29.79955766 10.18995794 29.79955766 10.18995794 14 9.5625 C12.99662598 9.52326416 11.99325195 9.48402832 10.95947266 9.44360352 C7.15261583 9.26488912 3.68468442 9.02023849 0 8 C0 5.36 0 2.72 0 0 Z " fill="#101313" transform="translate(359,333)"/>
<path d="M0 0 C31.02 0 62.04 0 94 0 C94 2.64 94 5.28 94 8 C62.98 8 31.96 8 0 8 C0 5.36 0 2.72 0 0 Z " fill="#040707" transform="translate(128,336)"/>
<path d="M0 0 C1.21729179 10.93871924 1.21729179 10.93871924 -1.46484375 15.48046875 C-3.55778413 17.75576433 -5.76035938 19.86951834 -8 22 C-9.4010507 23.64482817 -10.77494459 25.31306397 -12.125 27 C-13.24841797 28.38445312 -13.24841797 28.38445312 -14.39453125 29.796875 C-14.80396973 30.30154297 -15.2134082 30.80621094 -15.63525391 31.32617188 C-17.74997526 33.91982655 -19.88466183 36.4969113 -22.01660156 39.07641602 C-29.09910714 47.64840448 -36.08168456 56.29508662 -43 65 C-45.9719385 63.87548273 -48.33440687 62.77706209 -51 61 C-50.41761617 57.07800886 -48.52971611 54.91957854 -46 51.9375 C-45.17886719 50.95910156 -44.35773438 49.98070312 -43.51171875 48.97265625 C-42.68285156 47.99167969 -41.85398438 47.01070313 -41 46 C-39.60077126 44.2944466 -38.20491086 42.58612404 -36.8125 40.875 C-35.20900796 38.9161092 -33.60495761 36.95768918 -32 35 C-31.47744629 34.36255859 -30.95489258 33.72511719 -30.41650391 33.06835938 C-26.86068657 28.73353264 -23.29693357 24.40538862 -19.72363281 20.08496094 C-18.6121425 18.74046698 -17.50201247 17.39484676 -16.39355469 16.04785156 C-14.93463204 14.27716938 -13.46851347 12.51273052 -12 10.75 C-11.175 9.75484375 -10.35 8.7596875 -9.5 7.734375 C-2.42857143 0 -2.42857143 0 0 0 Z " fill="#151717" transform="translate(222,402)"/>
<path d="M0 0 C18.81 0 37.62 0 57 0 C53.66392579 3.33607421 50.57267218 6.26510668 46.9375 9.1875 C42.70229024 12.61490408 38.49393712 16.06994668 34.3125 19.5625 C33.78325928 20.00424561 33.25401855 20.44599121 32.70874023 20.90112305 C31.4721318 21.933649 30.23600916 22.96675674 29 24 C23.45913621 19.95151786 18.1244951 15.68752043 12.83203125 11.3203125 C9.19449765 8.34004359 5.5017623 5.43217449 1.80078125 2.53125 C1.20652344 2.0259375 0.61226563 1.520625 0 1 C0 0.67 0 0.34 0 0 Z " fill="#FEFEFE" transform="translate(261,36)"/>
<path d="M0 0 C4.43041256 2.13609177 7.16159481 4.40398702 9 9 C9.75265197 14.6448898 9.33065686 19.2260585 6 24 C1.69763204 27.70203754 -2.37395878 29.27205228 -8 29 C-13.20973745 27.43707876 -16.03419428 25.56277803 -19 21 C-20.55246449 16.34260652 -21.1718621 11.48903511 -19.0234375 6.92578125 C-14.09670725 -0.28296209 -8.43066978 -0.98968732 0 0 Z " fill="#FAF9F8" transform="translate(70,323)"/>
<path d="M0 0 C0.721875 0.40347656 1.44375 0.80695312 2.1875 1.22265625 C4.31748839 0.350845 4.31748839 0.350845 6.1875 -0.77734375 C9.08488185 1.30384253 11.98012293 3.38798764 14.875 5.47265625 C15.69162109 6.05917969 16.50824219 6.64570312 17.34960938 7.25 C18.54360352 8.11044922 18.54360352 8.11044922 19.76171875 8.98828125 C20.48963623 9.51196289 21.21755371 10.03564453 21.9675293 10.57519531 C24.42114842 12.39604892 26.80159696 14.31393382 29.1875 16.22265625 C11.0375 16.22265625 -7.1125 16.22265625 -25.8125 16.22265625 C-21.30168625 11.7118425 -17.03130863 8.33072672 -11.8125 4.78515625 C-11.0184375 4.21861328 -10.224375 3.65207031 -9.40625 3.06835938 C-3.47447311 -0.96030576 -3.47447311 -0.96030576 0 0 Z " fill="#FEFEFE" transform="translate(287.8125,59.77734375)"/>
<path d="M0 0 C4.34667701 2.60800621 7.96784878 5.26826419 11.8125 8.5 C12.40998047 8.98597656 13.00746094 9.47195312 13.62304688 9.97265625 C15.14200708 11.24684686 16.57843907 12.61798469 18 14 C18 14.99 18 15.98 18 17 C18.598125 17.268125 19.19625 17.53625 19.8125 17.8125 C21.98316883 18.99086308 23.30817212 20.23060981 25 22 C21.77279018 24.27362426 18.54289261 26.54340069 15.3125 28.8125 C14.40048828 29.45509766 13.48847656 30.09769531 12.54882812 30.75976562 C11.66259766 31.38173828 10.77636719 32.00371094 9.86328125 32.64453125 C9.05157471 33.21534424 8.23986816 33.78615723 7.40356445 34.37426758 C4.99320603 36.00459533 2.49525967 37.5028442 0 39 C0 26.13 0 13.26 0 0 Z " fill="#D7D7D9" transform="translate(261,37)"/>
<path d="M0 0 C7.59 0 15.18 0 23 0 C23 6.93 23 13.86 23 21 C15.41 21 7.82 21 0 21 C0 14.07 0 7.14 0 0 Z " fill="#C4C4C7" transform="translate(130,484)"/>
<path d="M0 0 C8.91 0 17.82 0 27 0 C26.01 0.495 26.01 0.495 25 1 C25 4.3 25 7.6 25 11 C16.585 11.495 16.585 11.495 8 12 C7.67 13.32 7.34 14.64 7 16 C7 14.68 7 13.36 7 12 C5.35 12 3.7 12 2 12 C1.67 15.96 1.34 19.92 1 24 C2.32 24.33 3.64 24.66 5 25 C4.01 25 3.02 25 2 25 C2 26.65 2 28.3 2 30 C3.65 30 5.3 30 7 30 C7 28.02 7 26.04 7 24 C8.65 24 10.3 24 12 24 C10.68 24.33 9.36 24.66 8 25 C8 26.65 8 28.3 8 30 C9.65 30 11.3 30 13 30 C13 28.02 13 26.04 13 24 C14.65 24 16.3 24 18 24 C17.01 24.33 16.02 24.66 15 25 C15 26.32 15 27.64 15 29 C16.32 29 17.64 29 19 29 C19 27.35 19 25.7 19 24 C20.32 24.33 21.64 24.66 23 25 C22.01 25 21.02 25 20 25 C20 26.65 20 28.3 20 30 C20.99 30.33 21.98 30.66 23 31 C20.03 31 17.06 31 14 31 C14 32.65 14 34.3 14 36 C16.97 36 19.94 36 23 36 C23 36.33 23 36.66 23 37 C15.41 37 7.82 37 0 37 C0 24.79 0 12.58 0 0 Z " fill="#DADADC" transform="translate(180,215)"/>
<path d="M0 0 C6.27 0 12.54 0 19 0 C19.13467879 3.43879843 19.23395791 6.8723564 19.3125 10.3125 C19.35439453 11.28896484 19.39628906 12.26542969 19.43945312 13.27148438 C19.4852172 15.93495345 19.48042073 18.37883842 19 21 C16.60546875 23.04296875 16.60546875 23.04296875 14 24 C13.34 24.66 12.68 25.32 12 26 C10.01610362 25.71201504 8.0302844 25.41715235 6.0703125 24.99609375 C3.44271031 24.79454071 3.44271031 24.79454071 0 28 C0 18.76 0 9.52 0 0 Z " fill="#E8E8E8" transform="translate(258,321)"/>
<path d="M0 0 C0.85758911 -0.00315216 1.71517822 -0.00630432 2.59875488 -0.009552 C3.53102905 -0.00752777 4.46330322 -0.00550354 5.42382812 -0.00341797 C6.84979309 -0.00485306 6.84979309 -0.00485306 8.30456543 -0.00631714 C10.31876695 -0.00699904 12.33297065 -0.00514409 14.34716797 -0.00097656 C17.44178167 0.00437155 20.53625022 -0.00092124 23.63085938 -0.00732422 C25.58268261 -0.00666344 27.53450576 -0.00538228 29.48632812 -0.00341797 C30.88473938 -0.00645432 30.88473938 -0.00645432 32.31140137 -0.009552 C33.16899048 -0.00639984 34.02657959 -0.00324768 34.91015625 0 C35.66880981 0.00079559 36.42746338 0.00159119 37.20910645 0.00241089 C38.95507812 0.12939453 38.95507812 0.12939453 39.95507812 1.12939453 C40.20850048 5.43587089 40.14030451 9.75384507 40.14257812 14.06689453 C40.15482422 15.28570313 40.16707031 16.50451172 40.1796875 17.76025391 C40.18162109 18.92234375 40.18355469 20.08443359 40.18554688 21.28173828 C40.18965576 22.35415771 40.19376465 23.42657715 40.19799805 24.53149414 C39.95507812 27.12939453 39.95507812 27.12939453 37.95507812 29.12939453 C36.1268158 29.37663269 36.1268158 29.37663269 33.88842773 29.37231445 C32.63218849 29.3769294 32.63218849 29.3769294 31.35057068 29.38163757 C30.44533157 29.37445206 29.54009247 29.36726654 28.60742188 29.35986328 C27.68038956 29.35940506 26.75335724 29.35894684 25.79823303 29.35847473 C23.83707399 29.35545107 21.87591737 29.34756139 19.91479492 29.33520508 C16.9014441 29.31694825 13.88840034 29.31469535 10.875 29.31494141 C8.97330462 29.31002638 7.07161133 29.30419813 5.16992188 29.29736328 C3.80902687 29.29569405 3.80902687 29.29569405 2.42063904 29.29399109 C-3.9288774 29.24543901 -3.9288774 29.24543901 -5.04492188 28.12939453 C-5.14475245 26.14182426 -5.17572941 24.15071934 -5.17773438 22.16064453 C-5.17902344 20.95021484 -5.1803125 19.73978516 -5.18164062 18.49267578 C-5.17777344 17.21779297 -5.17390625 15.94291016 -5.16992188 14.62939453 C-5.17378906 13.35451172 -5.17765625 12.07962891 -5.18164062 10.76611328 C-5.18035156 9.55568359 -5.1790625 8.34525391 -5.17773438 7.09814453 C-5.17660645 5.97859375 -5.17547852 4.85904297 -5.17431641 3.70556641 C-4.96777407 -0.40657452 -3.71590624 0.00389684 0 0 Z M-0.04492188 2.12939453 C-0.04492188 10.37939453 -0.04492188 18.62939453 -0.04492188 27.12939453 C11.17507813 27.12939453 22.39507812 27.12939453 33.95507812 27.12939453 C33.95507812 18.87939453 33.95507812 10.62939453 33.95507812 2.12939453 C22.73507812 2.12939453 11.51507813 2.12939453 -0.04492188 2.12939453 Z " fill="#4D4B51" transform="translate(275.044921875,632.87060546875)"/>
<path d="M0 0 C0.65830811 -0.00191345 1.31661621 -0.0038269 1.99487305 -0.00579834 C3.3868854 -0.0071595 4.77891047 -0.00346783 6.17089844 0.00488281 C8.30432589 0.015584 10.43691131 0.00498594 12.5703125 -0.0078125 C13.92187686 -0.00649089 15.2734407 -0.00392847 16.625 0 C18.47544922 0.00338379 18.47544922 0.00338379 20.36328125 0.00683594 C23.3125 0.265625 23.3125 0.265625 25.3125 2.265625 C25.51215373 4.89502696 25.5923411 7.41682663 25.578125 10.046875 C25.58099518 11.2008075 25.58099518 11.2008075 25.58392334 12.37805176 C25.58528508 14.0054558 25.58158939 15.6328707 25.57324219 17.26025391 C25.56254221 19.75578131 25.57313751 22.25058882 25.5859375 24.74609375 C25.5846159 26.32552243 25.5820535 27.90495066 25.578125 29.484375 C25.58217346 30.2333606 25.58622192 30.98234619 25.59039307 31.75402832 C25.54242243 37.03570257 25.54242243 37.03570257 23.3125 39.265625 C20.36328125 39.52441406 20.36328125 39.52441406 16.625 39.53125 C15.96669189 39.53316345 15.30838379 39.5350769 14.63012695 39.53704834 C13.2381146 39.5384095 11.84608953 39.53471783 10.45410156 39.52636719 C8.32067411 39.515666 6.18808869 39.52626406 4.0546875 39.5390625 C2.70312314 39.53774089 1.3515593 39.53517847 0 39.53125 C-1.23363281 39.52899414 -2.46726562 39.52673828 -3.73828125 39.52441406 C-6.6875 39.265625 -6.6875 39.265625 -8.6875 37.265625 C-8.88715373 34.63622304 -8.9673411 32.11442337 -8.953125 29.484375 C-8.95503845 28.71508667 -8.9569519 27.94579834 -8.95892334 27.15319824 C-8.96028508 25.5257942 -8.95658939 23.8983793 -8.94824219 22.27099609 C-8.93754221 19.77546869 -8.94813751 17.28066118 -8.9609375 14.78515625 C-8.9596159 13.20572757 -8.9570535 11.62629934 -8.953125 10.046875 C-8.95717346 9.2978894 -8.96122192 8.54890381 -8.96539307 7.77722168 C-8.89904335 0.47197001 -6.93332961 0.0126785 0 0 Z M-5.6875 3.265625 C-5.6875 13.495625 -5.6875 23.725625 -5.6875 34.265625 C3.5525 34.265625 12.7925 34.265625 22.3125 34.265625 C22.3125 24.035625 22.3125 13.805625 22.3125 3.265625 C13.0725 3.265625 3.8325 3.265625 -5.6875 3.265625 Z " fill="#2C3E4C" transform="translate(441.6875,105.734375)"/>
<path d="M0 0 C0.88538956 0.00202423 1.77077911 0.00404846 2.68299866 0.00613403 C3.5868782 0.00517731 4.49075775 0.00422058 5.42202759 0.00323486 C7.33787607 0.00255293 9.25372685 0.00440812 11.16957092 0.00857544 C14.10834433 0.01391734 17.04696446 0.00863409 19.98573303 0.00222778 C21.84315525 0.00288868 23.70057736 0.00417009 25.55799866 0.00613403 C26.44136398 0.0041098 27.32472931 0.00208557 28.23486328 0 C34.45699676 0.02399246 34.45699676 0.02399246 36.68690491 1.13894653 C36.68690491 4.10894653 36.68690491 7.07894653 36.68690491 10.13894653 C22.16690491 10.13894653 7.64690491 10.13894653 -7.31309509 10.13894653 C-7.31309509 0.02830835 -7.31309509 0.02830835 0 0 Z " fill="#D57D6F" transform="translate(456.31309509277344,530.8610534667969)"/>
<path d="M0 0 C12.21 0 24.42 0 37 0 C37.0229037 6.81766851 37.04283241 13.63520459 37.05493164 20.45288086 C37.05997333 22.77417451 37.06680651 25.09546497 37.07543945 27.41674805 C37.08751225 30.74528795 37.09322979 34.07378602 37.09765625 37.40234375 C37.10281754 38.44712387 37.10797882 39.49190399 37.11329651 40.56834412 C37.11337204 41.52926468 37.11344757 42.49018524 37.11352539 43.48022461 C37.115746 44.33071884 37.11796661 45.18121307 37.12025452 46.05747986 C37 48 37 48 36 49 C34.10629077 49.10004644 32.20884911 49.13081093 30.3125 49.1328125 C28.55099609 49.13474609 28.55099609 49.13474609 26.75390625 49.13671875 C25.51511719 49.13285156 24.27632813 49.12898438 23 49.125 C21.18822266 49.13080078 21.18822266 49.13080078 19.33984375 49.13671875 C12.80772016 49.12961089 6.47382482 48.87898915 0 48 C0 47.34 0 46.68 0 46 C10.89 46 21.78 46 33 46 C32.63300502 35.21569057 32.63300502 35.21569057 32.25170898 24.43188477 C32.20766113 23.06007486 32.1640922 21.68824945 32.12109375 20.31640625 C32.09438599 19.62832886 32.06767822 18.94025146 32.04016113 18.23132324 C31.8838211 12.95554088 32.40332004 8.37011965 33 3 C22.11 3 11.22 3 0 3 C0 2.01 0 1.02 0 0 Z " fill="#262C33" transform="translate(291,317)"/>
<path d="M0 0 C30.03 0 60.06 0 91 0 C90.67 1.32 90.34 2.64 90 4 C60.63 4 31.26 4 1 4 C0.67 2.68 0.34 1.36 0 0 Z " fill="#F4F5F6" transform="translate(245,366)"/>
<path d="M0 0 C22.11 0 44.22 0 67 0 C67 0.33 67 0.66 67 1 C53.8 1 40.6 1 27 1 C27 1.66 27 2.32 27 3 C27.99 3.33 28.98 3.66 30 4 C29.01 4 28.02 4 27 4 C27.14075205 6.93782469 27.2873838 9.87515171 27.4375 12.8125 C27.47681641 13.64587891 27.51613281 14.47925781 27.55664062 15.33789062 C27.59853516 16.14033203 27.64042969 16.94277344 27.68359375 17.76953125 C27.72025146 18.50792236 27.75690918 19.24631348 27.79467773 20.00708008 C27.94842141 22.207495 27.94842141 22.207495 29 25 C28.67 25.66 28.34 26.32 28 27 C27.76827173 29.54615009 27.58105471 32.07396225 27.4375 34.625 C27.39431641 35.33140625 27.35113281 36.0378125 27.30664062 36.765625 C27.20055249 38.51018537 27.09977111 40.25506697 27 42 C26.67 42 26.34 42 26 42 C26 40.35 26 38.7 26 37 C24.515 37.495 24.515 37.495 23 38 C23 37.01 23 36.02 23 35 C24.485 35.495 24.485 35.495 26 36 C25.67 35.01 25.34 34.02 25 33 C24.01 33 23.02 33 22 33 C20.68 29.7 19.36 26.4 18 23 C18.66 22.67 19.32 22.34 20 22 C20 16.06 20 10.12 20 4 C19.34 3.67 18.68 3.34 18 3 C18.66 3 19.32 3 20 3 C20 2.34 20 1.68 20 1 C13.73 1 7.46 1 1 1 C1.33 9.91 1.66 18.82 2 28 C2.99 27.01 3.98 26.02 5 25 C5.99 25.33 6.98 25.66 8 26 C5.36 27.98 2.72 29.96 0 32 C0 21.44 0 10.88 0 0 Z " fill="#C6BEBE" transform="translate(257,320)"/>
<path d="M0 0 C4.62 0 9.24 0 14 0 C14 8.25 14 16.5 14 25 C9.38 25 4.76 25 0 25 C0 16.75 0 8.5 0 0 Z " fill="#D5E6E8" transform="translate(415,109)"/>
<path d="M0 0 C6.27 0 12.54 0 19 0 C19 5.94 19 11.88 19 18 C18.01 18 17.02 18 16 18 C16 18.66 16 19.32 16 20 C13.5 21.625 13.5 21.625 11 23 C9.02 20.03 7.04 17.06 5 14 C3.02 18.455 3.02 18.455 1 23 C0.67 23 0.34 23 0 23 C0 15.41 0 7.82 0 0 Z " fill="#EAEAEB" transform="translate(284,321)"/>
<path d="M0 0 C20.79 0 41.58 0 63 0 C63.495 1.98 63.495 1.98 64 4 C63 5 63 5 60.45005798 5.12025452 C58.74795921 5.1169236 58.74795921 5.1169236 57.01147461 5.11352539 C55.73022202 5.11344986 54.44896942 5.11337433 53.12889099 5.11329651 C51.72004152 5.10818909 50.31119244 5.10297309 48.90234375 5.09765625 C47.46887766 5.09579202 46.03541093 5.09436814 44.60194397 5.09336853 C40.82240043 5.08954372 37.0428951 5.07971377 33.2633667 5.06866455 C29.40930702 5.05844963 25.55524118 5.05387074 21.70117188 5.04882812 C14.13409713 5.03809146 6.56705391 5.02101549 -1 5 C-0.67 3.35 -0.34 1.7 0 0 Z " fill="#353740" transform="translate(462,317)"/>
<path d="M0 0 C1.98 0 3.96 0 6 0 C6 4.95 6 9.9 6 15 C1.56770228 17.21614886 -1.17750646 17.51387226 -6 17 C-8.5 16 -8.5 16 -10 15 C-9.67 16.65 -9.34 18.3 -9 20 C-9.680625 19.21625 -10.36125 18.4325 -11.0625 17.625 C-14.51308916 14.54149479 -16.56566662 13.95642485 -21 13 C-21 13.66 -21 14.32 -21 15 C-22.65 15 -24.3 15 -26 15 C-24.68 14.67 -23.36 14.34 -22 14 C-22 13.01 -22 12.02 -22 11 C-23.32 11 -24.64 11 -26 11 C-26 10.34 -26 9.68 -26 9 C-25.34 9 -24.68 9 -24 9 C-24.66 8.01 -25.32 7.02 -26 6 C-26 5.01 -26 4.02 -26 3 C-23.525 3.495 -23.525 3.495 -21 4 C-21.66 5.65 -22.32 7.3 -23 9 C-22.34 9 -21.68 9 -21 9 C-21 9.99 -21 10.98 -21 12 C-19.906875 11.505 -18.81375 11.01 -17.6875 10.5 C-14 9 -14 9 -11 9 C-10.62875 7.5459375 -10.62875 7.5459375 -10.25 6.0625 C-9 3 -9 3 -7.125 2.1875 C-6.42375 2.125625 -5.7225 2.06375 -5 2 C-2.23124888 1.50210731 -2.23124888 1.50210731 0 0 Z " fill="#7CD2F4" transform="translate(303,635)"/>
<path d="M0 0 C0.73734375 0.00773437 1.4746875 0.01546875 2.234375 0.0234375 C3.34039062 0.01183594 3.34039062 0.01183594 4.46875 0 C9.9810554 0.0201179 9.9810554 0.0201179 12.234375 2.2734375 C12.49316406 5.22265625 12.49316406 5.22265625 12.5 8.9609375 C12.50191345 9.61924561 12.5038269 10.27755371 12.50579834 10.95581055 C12.5071595 12.3478229 12.50346783 13.73984797 12.49511719 15.13183594 C12.484416 17.26526339 12.49501406 19.39784881 12.5078125 21.53125 C12.50649089 22.88281436 12.50392847 24.2343782 12.5 25.5859375 C12.49774414 26.81957031 12.49548828 28.05320313 12.49316406 29.32421875 C12.234375 32.2734375 12.234375 32.2734375 10.234375 34.2734375 C7.52514699 34.47195852 4.94134321 34.55183227 2.234375 34.5234375 C1.49703125 34.53117187 0.7596875 34.53890625 0 34.546875 C-5.5123054 34.5267571 -5.5123054 34.5267571 -7.765625 32.2734375 C-8.02441406 29.32421875 -8.02441406 29.32421875 -8.03125 25.5859375 C-8.03316345 24.92762939 -8.0350769 24.26932129 -8.03704834 23.59106445 C-8.0384095 22.1990521 -8.03471783 20.80702703 -8.02636719 19.41503906 C-8.015666 17.28161161 -8.02626406 15.14902619 -8.0390625 13.015625 C-8.03774089 11.66406064 -8.03517847 10.3124968 -8.03125 8.9609375 C-8.02899414 7.72730469 -8.02673828 6.49367188 -8.02441406 5.22265625 C-7.54640884 -0.22479946 -4.85572554 0.01772163 0 0 Z M-4.765625 3.2734375 C-4.765625 11.5234375 -4.765625 19.7734375 -4.765625 28.2734375 C-0.145625 28.2734375 4.474375 28.2734375 9.234375 28.2734375 C9.234375 20.0234375 9.234375 11.7734375 9.234375 3.2734375 C4.614375 3.2734375 -0.005625 3.2734375 -4.765625 3.2734375 Z " fill="#2D3E4C" transform="translate(419.765625,105.7265625)"/>
<path d="M0 0 C15.18 0 30.36 0 46 0 C46 1.98 46 3.96 46 6 C30.82 6 15.64 6 0 6 C0 4.02 0 2.04 0 0 Z " fill="#FCFCFC" transform="translate(127,508)"/>
<path d="M0 0 C21.12 0 42.24 0 64 0 C64.495 1.98 64.495 1.98 65 4 C43.55 4 22.1 4 0 4 C0 2.68 0 1.36 0 0 Z " fill="#242D3D" transform="translate(461,363)"/>
<path d="M0 0 C3.63 0 7.26 0 11 0 C11 11.55 11 23.1 11 35 C9.35 35 7.7 35 6 35 C6 28 6 21 6 14 C4.02 13.01 2.04 12.02 0 11 C0 8.36 0 5.72 0 3 C0.99 3 1.98 3 3 3 C2.01 2.67 1.02 2.34 0 2 C0 1.34 0 0.68 0 0 Z " fill="#EAEAEB" transform="translate(313,321)"/>
<path d="M0 0 C5.61 0 11.22 0 17 0 C17 4.29 17 8.58 17 13 C11.39 13 5.78 13 0 13 C0 8.71 0 4.42 0 0 Z " fill="#F0B456" transform="translate(154,492)"/>
<path d="M0 0 C4.95 0 9.9 0 15 0 C15 3.63 15 7.26 15 11 C9.72 11 4.44 11 -1 11 C-1 12.32 -1 13.64 -1 15 C-2.32 15 -3.64 15 -5 15 C-5 11.37 -5 7.74 -5 4 C-3.68 3.67 -2.36 3.34 -1 3 C-0.67 2.01 -0.34 1.02 0 0 Z " fill="#DADADB" transform="translate(474,545)"/>
<path d="M0 0 C3.62498334 -0.02893932 7.24993713 -0.04677792 10.875 -0.0625 C12.42380859 -0.07506836 12.42380859 -0.07506836 14.00390625 -0.08789062 C14.99003906 -0.09111328 15.97617187 -0.09433594 16.9921875 -0.09765625 C18.35899658 -0.10551147 18.35899658 -0.10551147 19.75341797 -0.11352539 C22 0 22 0 24 1 C24 3.64 24 6.28 24 9 C16.74 9 9.48 9 2 9 C1.34 6.03 0.68 3.06 0 0 Z " fill="#CB685E" transform="translate(469,531)"/>
<path d="M0 0 C3.47914941 -0.02887814 6.95826831 -0.04675687 10.4375 -0.0625 C11.92733398 -0.07506836 11.92733398 -0.07506836 13.44726562 -0.08789062 C14.39150391 -0.09111328 15.33574219 -0.09433594 16.30859375 -0.09765625 C17.62041626 -0.10551147 17.62041626 -0.10551147 18.95874023 -0.11352539 C21 0 21 0 22 1 C22.09971786 2.91458282 22.13080589 4.83282317 22.1328125 6.75 C22.13474609 8.49796875 22.13474609 8.49796875 22.13671875 10.28125 C22.13285156 11.5084375 22.12898438 12.735625 22.125 14 C22.13080078 15.84078125 22.13080078 15.84078125 22.13671875 17.71875 C22.13542969 18.8840625 22.13414062 20.049375 22.1328125 21.25 C22.13168457 22.32765625 22.13055664 23.4053125 22.12939453 24.515625 C22 27 22 27 21 28 C19.43827255 28.08685603 17.87270656 28.10702219 16.30859375 28.09765625 C15.36435547 28.09443359 14.42011719 28.09121094 13.44726562 28.08789062 C11.95743164 28.07532227 11.95743164 28.07532227 10.4375 28.0625 C9.44041016 28.05798828 8.44332031 28.05347656 7.41601562 28.04882812 C4.94395151 28.03700007 2.47200482 28.02051849 0 28 C0 27.67 0 27.34 0 27 C5.28 27 10.56 27 16 27 C16 18.42 16 9.84 16 1 C10.72 1 5.44 1 0 1 C0 0.67 0 0.34 0 0 Z " fill="#343035" transform="translate(293,633)"/>
<path d="M0 0 C3.52437542 1.16961651 5.04229745 2.97680491 7.47265625 5.7578125 C8.65794922 7.08425781 8.65794922 7.08425781 9.8671875 8.4375 C11.66015625 10.8828125 11.66015625 10.8828125 11.66015625 13.8828125 C9.02015625 13.8828125 6.38015625 13.8828125 3.66015625 13.8828125 C3.66015625 14.5428125 3.66015625 15.2028125 3.66015625 15.8828125 C0.30186521 14.44567243 -1.73955073 12.67303851 -4.15234375 9.9453125 C-4.77753906 9.25566406 -5.40273437 8.56601562 -6.046875 7.85546875 C-6.47355469 7.20449219 -6.90023437 6.55351562 -7.33984375 5.8828125 C-6.03662548 1.97315768 -4.35118753 -0.21792258 0 0 Z " fill="#161919" transform="translate(218.33984375,261.1171875)"/>
<path d="M0 0 C1.32 0.33 2.64 0.66 4 1 C3.01 1 2.02 1 1 1 C1 2.65 1 4.3 1 6 C2.65 6 4.3 6 6 6 C6 4.02 6 2.04 6 0 C7.65 0 9.3 0 11 0 C9.68 0.33 8.36 0.66 7 1 C7 2.65 7 4.3 7 6 C8.65 6 10.3 6 12 6 C12 4.02 12 2.04 12 0 C13.65 0 15.3 0 17 0 C16.01 0.33 15.02 0.66 14 1 C14 2.32 14 3.64 14 5 C15.32 5 16.64 5 18 5 C18 3.35 18 1.7 18 0 C19.32 0.33 20.64 0.66 22 1 C21.01 1 20.02 1 19 1 C19 2.65 19 4.3 19 6 C19.99 6.33 20.98 6.66 22 7 C19.03 7 16.06 7 13 7 C13 8.65 13 10.3 13 12 C15.97 12 18.94 12 22 12 C22 12.33 22 12.66 22 13 C14.74 13 7.48 13 0 13 C0 8.71 0 4.42 0 0 Z " fill="#FEFAF9" transform="translate(181,239)"/>
<path d="M0 0 C1.9375 1.125 1.9375 1.125 3 3 C3.38976435 6.11811483 3.50422245 8.11019567 1.9375 10.875 C-1.1069286 12.64273274 -3.5631012 12.36823916 -7 12 C-8.9375 10.875 -8.9375 10.875 -10 9 C-10.38976435 5.88188517 -10.50422245 3.88980433 -8.9375 1.125 C-5.8930714 -0.64273274 -3.4368988 -0.36823916 0 0 Z " fill="#F1B353" transform="translate(68,331)"/>
<path d="M0 0 C1.65 0 3.3 0 5 0 C5.08694042 4.10403363 5.14037149 8.20783129 5.1875 12.3125 C5.22520508 14.06336914 5.22520508 14.06336914 5.26367188 15.84960938 C5.27333984 16.96787109 5.28300781 18.08613281 5.29296875 19.23828125 C5.3086792 20.26993408 5.32438965 21.30158691 5.34057617 22.36450195 C5 25 5 25 3.48168945 26.86010742 C2.99273193 27.23627197 2.50377441 27.61243652 2 28 C0.01039227 24.6816923 -0.2361745 22.20040301 -0.1953125 18.359375 C-0.18886719 17.28945313 -0.18242187 16.21953125 -0.17578125 15.1171875 C-0.15902344 14.00601562 -0.14226562 12.89484375 -0.125 11.75 C-0.11597656 10.62335938 -0.10695313 9.49671875 -0.09765625 8.3359375 C-0.07410658 5.55707635 -0.0412168 2.7786461 0 0 Z " fill="#EEEEEF" transform="translate(278,324)"/>
<path d="M0 0 C0.99 0.33 1.98 0.66 3 1 C3 5.62 3 10.24 3 15 C-0.3 15 -3.6 15 -7 15 C-7.43748682 8.26270293 -7.43748682 8.26270293 -7 5 C-4.625 3 -4.625 3 -2 2 C-1.34 1.34 -0.68 0.68 0 0 Z " fill="#ECECED" transform="translate(300,341)"/>
<path d="M0 0 C0.66 0.33 1.32 0.66 2 1 C0.52101031 3.95797938 -1.20456253 5.26061668 -4 7 C-7.3125 6.25 -7.3125 6.25 -10 5 C-10 7.97 -10 10.94 -10 14 C-6.37 14 -2.74 14 1 14 C1 14.33 1 14.66 1 15 C-2.63 15 -6.26 15 -10 15 C-10 16.65 -10 18.3 -10 20 C-12.31 20 -14.62 20 -17 20 C-17.89241923 11.63770125 -17.89241923 11.63770125 -15.91015625 8 C-14.35804735 6.28732811 -13.03325627 5.10338633 -11 4 C-7.375 3.875 -7.375 3.875 -4 4 C-1.55901182 2.14579161 -1.55901182 2.14579161 0 0 Z " fill="#D3B8B5" transform="translate(274,342)"/>
<path d="M0 0 C2.64 0 5.28 0 8 0 C8.64668107 7.88950907 6.64154337 13.04205107 3 20 C2.01 19.67 1.02 19.34 0 19 C0 12.73 0 6.46 0 0 Z " fill="#ECEBEC" transform="translate(304,324)"/>
<path d="M0 0 C2.64590014 -0.02684679 5.29153096 -0.04676357 7.9375 -0.0625 C8.69224609 -0.07087891 9.44699219 -0.07925781 10.22460938 -0.08789062 C12.14994313 -0.09652441 14.07535581 -0.05224333 16 0 C17 1 17 1 17 7 C11.39 7 5.78 7 0 7 C0 4.69 0 2.38 0 0 Z " fill="#DE6B5A" transform="translate(154,484)"/>
<path d="M0 0 C2.10633718 1.70828921 2.93801608 2.52148416 3.29296875 5.26171875 C3.1953125 7.5078125 3.09765625 9.75390625 3 12 C-1.29 12 -5.58 12 -10 12 C-10 9.03 -10 6.06 -10 3 C-8.63875 3.37125 -8.63875 3.37125 -7.25 3.75 C-3.91162152 4.38259327 -3.91162152 4.38259327 -1.625 2.0625 C-1.08875 1.381875 -0.5525 0.70125 0 0 Z " fill="#ECECED" transform="translate(274,344)"/>
<path d="M0 0 C8.91 0 17.82 0 27 0 C25 2 25 2 22.66162109 2.22705078 C21.70852051 2.21657715 20.75541992 2.20610352 19.7734375 2.1953125 C18.2265625 2.18564453 18.2265625 2.18564453 16.6484375 2.17578125 C15.56820312 2.15902344 14.48796875 2.14226562 13.375 2.125 C12.28703125 2.11597656 11.1990625 2.10695312 10.078125 2.09765625 C7.38519848 2.07403409 4.69270745 2.04109556 2 2 C2 4.97 2 7.94 2 11 C5.63 11 9.26 11 13 11 C13 11.33 13 11.66 13 12 C11.35 12 9.7 12 8 12 C7.67 13.32 7.34 14.64 7 16 C7 14.68 7 13.36 7 12 C5.35 12 3.7 12 2 12 C1.67 20.25 1.34 28.5 1 37 C0.67 37 0.34 37 0 37 C0 24.79 0 12.58 0 0 Z " fill="#EAF4F5" transform="translate(180,215)"/>
<path d="M0 0 C1.65 0 3.3 0 5 0 C5.14539953 3.41621788 5.23409725 6.83163991 5.3125 10.25 C5.35439453 11.21808594 5.39628906 12.18617188 5.43945312 13.18359375 C5.45556641 14.11816406 5.47167969 15.05273438 5.48828125 16.015625 C5.51446533 16.87446289 5.54064941 17.73330078 5.56762695 18.61816406 C5 21 5 21 0 25 C0 16.75 0 8.5 0 0 Z " fill="#EEEFF0" transform="translate(258,324)"/>
<path d="M0 0 C0.33 0 0.66 0 1 0 C1 6.6 1 13.2 1 20 C-1.64 20 -4.28 20 -7 20 C-7 16.04 -7 12.08 -7 8 C-6.01 8.33 -5.02 8.66 -4 9 C-2.68 6.03 -1.36 3.06 0 0 Z " fill="#EFEFEF" transform="translate(311,336)"/>
<path d="M0 0 C4.95 0 9.9 0 15 0 C15 2.31 15 4.62 15 7 C10.05 7 5.1 7 0 7 C0 4.69 0 2.38 0 0 Z " fill="#DCDCDD" transform="translate(453,557)"/>
<path d="M0 0 C4 1 4 1 5 2 C5.08651611 3.41570123 5.10704904 4.835595 5.09765625 6.25390625 C5.09443359 7.10791016 5.09121094 7.96191406 5.08789062 8.84179688 C5.07951172 9.73962891 5.07113281 10.63746094 5.0625 11.5625 C5.05798828 12.46419922 5.05347656 13.36589844 5.04882812 14.29492188 C5.03700225 16.53001314 5.0205222 18.76497437 5 21 C3.35 21 1.7 21 0 21 C0 14.07 0 7.14 0 0 Z " fill="#EFEFF0" transform="translate(313,335)"/>
<path d="M0 0 C12.71647898 -0.10519146 25.31873103 -0.0174084 38 1 C38 1.33 38 1.66 38 2 C26.45 2 14.9 2 3 2 C3 6.29 3 10.58 3 15 C2.01 15 1.02 15 0 15 C0 10.05 0 5.1 0 0 Z " fill="#46525B" transform="translate(271,633)"/>
<path d="M0 0 C4.95 0 9.9 0 15 0 C15 2.31 15 4.62 15 7 C10.05 7 5.1 7 0 7 C0 4.69 0 2.38 0 0 Z " fill="#DADADB" transform="translate(453,549)"/>
<path d="M0 0 C3.79620155 1.26540052 4.48678188 2.78218431 6.6875 6.0625 C7.31011719 6.98160156 7.93273437 7.90070313 8.57421875 8.84765625 C9.27998047 9.91306641 9.27998047 9.91306641 10 11 C12.64 10.67 15.28 10.34 18 10 C14.8459821 12.71595986 13.12615036 13.96846241 9 15 C6.69 11.37 4.38 7.74 2 4 C1.05125 5.546875 0.1025 7.09375 -0.875 8.6875 C-1.40867187 9.55761719 -1.94234375 10.42773438 -2.4921875 11.32421875 C-3.90640814 13.83391082 -4.99894789 16.30299069 -6 19 C-9.59854349 17.8004855 -10.18616815 16.72074777 -12.25 13.625 C-12.79140625 12.83351563 -13.3328125 12.04203125 -13.890625 11.2265625 C-15 9 -15 9 -14 6 C-12.02 8.97 -10.04 11.94 -8 15 C-6.85072616 13.06453884 -5.70569358 11.12655872 -4.5625 9.1875 C-3.92441406 8.10855469 -3.28632813 7.02960938 -2.62890625 5.91796875 C-0.919233 3.06819358 -0.919233 3.06819358 0 0 Z " fill="#605559" transform="translate(492,335)"/>
<path d="M0 0 C1.44632813 -0.00386719 1.44632813 -0.00386719 2.921875 -0.0078125 C5.25 0.125 5.25 0.125 6.25 1.125 C6.25 2.775 6.25 4.425 6.25 6.125 C0.64 6.125 -4.97 6.125 -10.75 6.125 C-10.75 4.475 -10.75 2.825 -10.75 1.125 C-7.10861758 0.28774784 -3.73405504 -0.01009204 0 0 Z " fill="#EEA296" transform="translate(198.75,225.875)"/>
<path d="M0 0 C0.33 0 0.66 0 1 0 C1 1.65 1 3.3 1 5 C1.99 5 2.98 5 4 5 C4 3.35 4 1.7 4 0 C4.33 0 4.66 0 5 0 C5 5.28 5 10.56 5 16 C-1.93 16 -8.86 16 -16 16 C-16 15.67 -16 15.34 -16 15 C-10.72 15 -5.44 15 0 15 C0 10.05 0 5.1 0 0 Z " fill="#1F262D" transform="translate(309,645)"/>
<path d="M0 0 C4.95 0 9.9 0 15 0 C15.33 1.32 15.66 2.64 16 4 C10.72 4 5.44 4 0 4 C0 2.68 0 1.36 0 0 Z M0 4 C0 5.32 0 6.64 0 8 C-1.32 8 -2.64 8 -4 8 C-4 7.01 -4 6.02 -4 5 C-2 4 -2 4 0 4 Z " fill="#DFE0E1" transform="translate(473,552)"/>
<path d="M0 0 C6.27 0 12.54 0 19 0 C19 0.66 19 1.32 19 2 C15.14854957 3.92572521 10.19956748 3.04883218 6 3 C6 9.93 6 16.86 6 24 C5.67 24 5.34 24 5 24 C5 17.07 5 10.14 5 3 C3.35 3 1.7 3 0 3 C0 2.01 0 1.02 0 0 Z " fill="#E1E1E2" transform="translate(258,321)"/>
<path d="M0 0 C3.0625 0.1875 3.0625 0.1875 5.0625 2.1875 C4.6875 5.3125 4.6875 5.3125 4.0625 8.1875 C-1.37190487 9.51591008 -1.37190487 9.51591008 -3.875 8.0625 C-4.9375 6.1875 -4.9375 6.1875 -4.6875 3.5625 C-3.63578571 0.23207143 -3.63578571 0.23207143 0 0 Z " fill="#C1E3E5" transform="translate(449.9375,119.8125)"/>
<path d="M0 0 C3.3 0 6.6 0 10 0 C10 0.66 10 1.32 10 2 C11.65 2 13.3 2 15 2 C14.01 2.495 14.01 2.495 13 3 C12.67 3.99 12.34 4.98 12 6 C12 5.01 12 4.02 12 3 C11.34 3 10.68 3 10 3 C10.33 4.98 10.66 6.96 11 9 C10.01 9 9.02 9 8 9 C8.33 7.02 8.66 5.04 9 3 C6.36 3 3.72 3 1 3 C1 8.61 1 14.22 1 20 C0.67 20 0.34 20 0 20 C0 14.39 0 8.78 0 3 C-1.98 3 -3.96 3 -6 3 C-6 2.67 -6 2.34 -6 2 C-4.02 2 -2.04 2 0 2 C0 1.34 0 0.68 0 0 Z " fill="#D2D9DD" transform="translate(303,321)"/>
<path d="M0 0 C2.475 0.495 2.475 0.495 5 1 C4.34 2.65 3.68 4.3 3 6 C3.66 6 4.32 6 5 6 C5 6.99 5 7.98 5 9 C5.886875 8.649375 6.77375 8.29875 7.6875 7.9375 C11.06203126 6.98244398 12.69686152 7.02848868 16 8 C16 8.99 16 9.98 16 11 C11.99799622 12.60080151 8.95443764 11.29279692 5 10 C5 10.66 5 11.32 5 12 C3.35 12 1.7 12 0 12 C1.32 11.67 2.64 11.34 4 11 C4 10.01 4 9.02 4 8 C2.68 8 1.36 8 0 8 C0 7.34 0 6.68 0 6 C0.66 6 1.32 6 2 6 C1.34 5.01 0.68 4.02 0 3 C0 2.01 0 1.02 0 0 Z " fill="#D9E9F1" transform="translate(277,638)"/>
<path d="M0 0 C3.3 0 6.6 0 10 0 C10 2.97 10 5.94 10 9 C9.67 8.34 9.34 7.68 9 7 C4.34947128 6.73067479 4.34947128 6.73067479 0 8 C0 5.36 0 2.72 0 0 Z " fill="#70C0C4" transform="translate(417,111)"/>
<path d="M0 0 C0.33 0.66 0.66 1.32 1 2 C1.66 2 2.32 2 3 2 C3 4.64 3 7.28 3 10 C0.36 10 -2.28 10 -5 10 C-5 7.03 -5 4.06 -5 1 C-2.525 1.495 -2.525 1.495 0 2 C0 1.34 0 0.68 0 0 Z " fill="#EAEAEB" transform="translate(289,346)"/>
<path d="M0 0 C2.33944736 0.28730055 4.6739143 0.61936779 7 1 C7.04241723 3.33294775 7.04092937 5.66702567 7 8 C6 9 6 9 3 9.125 C0 9 0 9 -1 8 C-1.125 4.5 -1.125 4.5 -1 1 C-0.67 0.67 -0.34 0.34 0 0 Z " fill="#F3F9F9" transform="translate(419,117)"/>
<path d="M0 0 C3.63 0 7.26 0 11 0 C11 1.32 11 2.64 11 4 C12.32 4.33 13.64 4.66 15 5 C8.4 5 1.8 5 -5 5 C-3.68 4.67 -2.36 4.34 -1 4 C-0.67 2.68 -0.34 1.36 0 0 Z " fill="#F3F4F5" transform="translate(145,516)"/>
<path d="M0 0 C2.62374802 5.24749603 3.09534716 8.08847633 3 14 C0.69 14 -1.62 14 -4 14 C-3.66009167 8.62007164 -3.31442207 4.46726453 0 0 Z " fill="#E9CCC9" transform="translate(289,334)"/>
<path d="M0 0 C0.99 0.495 0.99 0.495 2 1 C6.14503661 1.24787017 6.14503661 1.24787017 10 0 C10 2.64 10 5.28 10 8 C6.7 8 3.4 8 0 8 C0 5.36 0 2.72 0 0 Z " fill="#70C0C4" transform="translate(417,124)"/>
<path d="M0 0 C1.625 1.3125 1.625 1.3125 2.625 3.3125 C1.84765625 5.0390625 1.84765625 5.0390625 0.6875 6.9375 C0.006875 8.05125 -0.67375 9.165 -1.375 10.3125 C-4.04166667 7.64583333 -6.70833333 4.97916667 -9.375 2.3125 C-3.00833333 -0.87083333 -3.00833333 -0.87083333 0 0 Z " fill="#CE943B" transform="translate(46.375,353.6875)"/>
<path d="M0 0 C2.66666667 2.66666667 5.33333333 5.33333333 8 8 C3.545 9.485 3.545 9.485 -1 11 C-1.99 9.68 -2.98 8.36 -4 7 C-2.68 4.69 -1.36 2.38 0 0 Z " fill="#CF943B" transform="translate(84,310)"/>
<path d="M0 0 C0.99 0 1.98 0 3 0 C3.33 1.32 3.66 2.64 4 4 C7.0745356 3.2236068 7.0745356 3.2236068 9 1 C9.33 1.99 9.66 2.98 10 4 C9.34 4 8.68 4 8 4 C7.67 4.99 7.34 5.98 7 7 C6.34 6.67 5.68 6.34 5 6 C4.67 9.63 4.34 13.26 4 17 C6.64 17 9.28 17 12 17 C12 17.33 12 17.66 12 18 C9.36 18 6.72 18 4 18 C4 19.65 4 21.3 4 23 C3.67 22.34 3.34 21.68 3 21 C1.02 21 -0.96 21 -3 21 C-3 20.67 -3 20.34 -3 20 C-1.02 20 0.96 20 3 20 C3 19.34 3 18.68 3 18 C2.34 17.67 1.68 17.34 1 17 C1.66 17 2.32 17 3 17 C2.88658363 14.68690295 2.75896193 12.37449815 2.625 10.0625 C2.52058594 8.13083984 2.52058594 8.13083984 2.4140625 6.16015625 C2.27742188 5.11730469 2.14078125 4.07445312 2 3 C1.34 2.67 0.68 2.34 0 2 C0 1.34 0 0.68 0 0 Z " fill="#D7BBB8" transform="translate(300,339)"/>
<path d="M0 0 C3.63 0 7.26 0 11 0 C11 1.65 11 3.3 11 5 C7.37 5 3.74 5 0 5 C0 3.35 0 1.7 0 0 Z " fill="#5D606C" transform="translate(194,246)"/>
<path d="M0 0 C0.33 0 0.66 0 1 0 C1.144375 1.093125 1.28875 2.18625 1.4375 3.3125 C1.88288104 6.93122987 1.88288104 6.93122987 3 10 C2.67 10.66 2.34 11.32 2 12 C1.76827173 14.54615009 1.58105471 17.07396225 1.4375 19.625 C1.39431641 20.33140625 1.35113281 21.0378125 1.30664062 21.765625 C1.20055249 23.51018537 1.09977111 25.25506697 1 27 C0.67 27 0.34 27 0 27 C0 25.35 0 23.7 0 22 C-0.99 22.33 -1.98 22.66 -3 23 C-3 22.01 -3 21.02 -3 20 C-2.01 20.33 -1.02 20.66 0 21 C-0.33 20.01 -0.66 19.02 -1 18 C-1.99 18 -2.98 18 -4 18 C-4.66 16.02 -5.32 14.04 -6 12 C-4.68 13.32 -3.36 14.64 -2 16 C-0.5192152 13.0384304 -0.64685963 10.16493705 -0.4375 6.875 C-0.35371094 5.59367187 -0.26992188 4.31234375 -0.18359375 2.9921875 C-0.09271484 1.51105469 -0.09271484 1.51105469 0 0 Z " fill="#DDAFA1" transform="translate(283,335)"/>
<path d="M0 0 C0.33 0 0.66 0 1 0 C1 2.31 1 4.62 1 7 C3.64 7 6.28 7 9 7 C9.33 9.31 9.66 11.62 10 14 C9.01 14.33 8.02 14.66 7 15 C0.32017937 9.5470852 0.32017937 9.5470852 -0.46484375 5.75390625 C-0.4375 3.5625 -0.4375 3.5625 0 0 Z " fill="#BF8B3F" transform="translate(31,333)"/>
<path d="M0 0 C2.31 0 4.62 0 7 0 C7 0.66 7 1.32 7 2 C7.99 2.66 8.98 3.32 10 4 C9.01 4 8.02 4 7 4 C7 4.66 7 5.32 7 6 C4.5 7.625 4.5 7.625 2 9 C-0.29013653 5.5647952 -0.17842973 4.014669 0 0 Z " fill="#ECEBEB" transform="translate(293,335)"/>
<path d="M0 0 C0.33 0.66 0.66 1.32 1 2 C3.02463255 2.65213292 3.02463255 2.65213292 5 3 C3.68 3 2.36 3 1 3 C1 3.99 1 4.98 1 6 C1.66 6.33 2.32 6.66 3 7 C2.34 7 1.68 7 1 7 C1 7.99 1 8.98 1 10 C1.66 10.33 2.32 10.66 3 11 C2.34 11 1.68 11 1 11 C1 13.31 1 15.62 1 18 C0.67 18 0.34 18 0 18 C0 15.69 0 13.38 0 11 C-4.62 11 -9.24 11 -14 11 C-14 10.67 -14 10.34 -14 10 C-9.38 10 -4.76 10 0 10 C0 9.01 0 8.02 0 7 C-0.66 6.67 -1.32 6.34 -2 6 C-1.34 6 -0.68 6 0 6 C0 5.01 0 4.02 0 3 C-1.32 2.67 -2.64 2.34 -4 2 C-2.68 2 -1.36 2 0 2 C0 1.34 0 0.68 0 0 Z " fill="#F9FAFB" transform="translate(468,546)"/>
<path d="M0 0 C0.66 0 1.32 0 2 0 C2 1.65 2 3.3 2 5 C2.99 5 3.98 5 5 5 C5 7.64 5 10.28 5 13 C3.35 13 1.7 13 0 13 C0 8.71 0 4.42 0 0 Z " fill="#F0F1F2" transform="translate(264,324)"/>
<path d="M0 0 C2.31 1.98 4.62 3.96 7 6 C6.67 7.32 6.34 8.64 6 10 C3.03 9.505 3.03 9.505 0 9 C0 6.03 0 3.06 0 0 Z " fill="#D5983A" transform="translate(68,304)"/>
<path d="M0 0 C3.3 0 6.6 0 10 0 C10 1.65 10 3.3 10 5 C6.7 5 3.4 5 0 5 C0 3.35 0 1.7 0 0 Z " fill="#EBEBEC" transform="translate(293,357)"/>
<path d="M0 0 C2.31 0 4.62 0 7 0 C7 1.98 7 3.96 7 6 C4.69 6 2.38 6 0 6 C0 4.02 0 2.04 0 0 Z " fill="#E0E1E2" transform="translate(486,562)"/>
<path d="M0 0 C1.65 0 3.3 0 5 0 C5 3.3 5 6.6 5 10 C2.525 9.01 2.525 9.01 0 8 C0 5.36 0 2.72 0 0 Z " fill="#EDEDEE" transform="translate(313,324)"/>
<path d="M0 0 C2.64 0 5.28 0 8 0 C8 1.65 8 3.3 8 5 C5.36 5 2.72 5 0 5 C0 3.35 0 1.7 0 0 Z " fill="#EAEAEB" transform="translate(304,357)"/>
<path d="M0 0 C2.64 0 5.28 0 8 0 C8 1.65 8 3.3 8 5 C5.36 5 2.72 5 0 5 C0 3.35 0 1.7 0 0 Z " fill="#EAEAEB" transform="translate(284,357)"/>
<path d="M0 0 C4.29 0 8.58 0 13 0 C13 0.66 13 1.32 13 2 C10.36 2.33 7.72 2.66 5 3 C5 3.66 5 4.32 5 5 C3.35 5 1.7 5 0 5 C0 3.35 0 1.7 0 0 Z " fill="#EEEEEF" transform="translate(264,357)"/>
<path d="M0 0 C1.65 0 3.3 0 5 0 C5 2.97 5 5.94 5 9 C2.525 8.01 2.525 8.01 0 7 C0 4.69 0 2.38 0 0 Z " fill="#F0F0F1" transform="translate(264,338)"/>
<path d="M0 0 C1.7290774 -0.02725341 3.45828176 -0.04650987 5.1875 -0.0625 C6.15042969 -0.07410156 7.11335938 -0.08570313 8.10546875 -0.09765625 C10.85576513 -0.00486622 13.32479591 0.37888315 16 1 C16 1.66 16 2.32 16 3 C14.41705218 3.05437607 12.83355744 3.09296271 11.25 3.125 C10.36828125 3.14820313 9.4865625 3.17140625 8.578125 3.1953125 C5.8864142 2.99139502 4.30095026 2.36551721 2 1 C2.33 2.65 2.66 4.3 3 6 C0 2.25 0 2.25 0 0 Z " fill="#B8D9E9" transform="translate(291,649)"/>
<path d="M0 0 C2.97 0 5.94 0 9 0 C9 1.32 9 2.64 9 4 C6.03 4 3.06 4 0 4 C0 2.68 0 1.36 0 0 Z " fill="#C4C4C7" transform="translate(467,332)"/>
<path d="M0 0 C0 2.97 0 5.94 0 9 C-1.65 9 -3.3 9 -5 9 C-5.25 6.75 -5.25 6.75 -5 4 C-1.64864865 0 -1.64864865 0 0 0 Z " fill="#EFF0F1" transform="translate(263,347)"/>
<path d="M0 0 C0.66 0.33 1.32 0.66 2 1 C-2.62 5.62 -7.24 10.24 -12 15 C-12 10.09687565 -8.29800369 7.38658643 -5 4 C-3.37458956 2.61667196 -1.72614587 1.25537882 0 0 Z " fill="#F4C57A" transform="translate(26,285)"/>
<path d="M0 0 C1.4540625 0.0309375 1.4540625 0.0309375 2.9375 0.0625 C3.2675 1.7125 3.5975 3.3625 3.9375 5.0625 C2.9475 5.5575 2.9475 5.5575 1.9375 6.0625 C2.2675 4.7425 2.5975 3.4225 2.9375 2.0625 C1.9475 2.7225 0.9575 3.3825 -0.0625 4.0625 C-1.0525 4.0625 -2.0425 4.0625 -3.0625 4.0625 C-3.0625 4.7225 -3.0625 5.3825 -3.0625 6.0625 C-3.7225 6.0625 -4.3825 6.0625 -5.0625 6.0625 C-3.98897059 0.08140756 -3.98897059 0.08140756 0 0 Z " fill="#F2F8F9" transform="translate(450.0625,119.9375)"/>
<path d="M0 0 C1.65 0 3.3 0 5 0 C5 2.31 5 4.62 5 7 C3.35 7 1.7 7 0 7 C0 4.69 0 2.38 0 0 Z " fill="#F1F2F3" transform="translate(284,349)"/>
<path d="M0 0 C0.33 0.66 0.66 1.32 1 2 C1.99 1.67 2.98 1.34 4 1 C6.33299825 0.96045766 8.66708189 0.95598268 11 1 C10.67 1.99 10.34 2.98 10 4 C0 4 0 4 -3 2 C-2.01 2 -1.02 2 0 2 C0 1.34 0 0.68 0 0 Z " fill="#B3D7E8" transform="translate(292,642)"/>
<path d="M0 0 C2.64 0 5.28 0 8 0 C8 1.32 8 2.64 8 4 C5.36 4 2.72 4 0 4 C0 2.68 0 1.36 0 0 Z " fill="#6EC0C4" transform="translate(498,353)"/>
<path d="M0 0 C2.64 0 5.28 0 8 0 C8 1.32 8 2.64 8 4 C5.36 4 2.72 4 0 4 C0 2.68 0 1.36 0 0 Z " fill="#F0A838" transform="translate(511,336)"/>
<path d="M0 0 C1.670625 0.7734375 1.670625 0.7734375 3.375 1.5625 C5.169375 2.2740625 5.169375 2.2740625 7 3 C7.66 2.67 8.32 2.34 9 2 C8.34 3.32 7.68 4.64 7 6 C4.36 5.67 1.72 5.34 -1 5 C-1.66 6.32 -2.32 7.64 -3 9 C-2.44271087 5.65626525 -1.64826111 2.96687001 0 0 Z " fill="#E29C94" transform="translate(312,331)"/>
<path d="M0 0 C2.64 0 5.28 0 8 0 C8 1.32 8 2.64 8 4 C5.36 4 2.72 4 0 4 C0 2.68 0 1.36 0 0 Z " fill="#E46B5C" transform="translate(485,328)"/>
<path d="M0 0 C0.99 0 1.98 0 3 0 C3 3.3 3 6.6 3 10 C2.01 10.33 1.02 10.66 0 11 C0 7.37 0 3.74 0 0 Z " fill="#E5D5D3" transform="translate(321,324)"/>
<path d="M0 0 C3.3 0 6.6 0 10 0 C10 0.99 10 1.98 10 3 C6.7 3 3.4 3 0 3 C0 2.01 0 1.02 0 0 Z " fill="#DDA9A6" transform="translate(458,553)"/>
<path d="M0 0 C2.09749995 2.35968744 2.96905704 3.54616994 3.1875 6.75 C3.125625 7.4925 3.06375 8.235 3 9 C1.35 9 -0.3 9 -2 9 C-1.125 2.25 -1.125 2.25 0 0 Z " fill="#F0EFEF" transform="translate(289,336)"/>
<path d="M0 0 C0.33 0.66 0.66 1.32 1 2 C1.66 2.33 2.32 2.66 3 3 C1.02 7.455 1.02 7.455 -1 12 C-1.33 12 -1.66 12 -2 12 C-2 8.7 -2 5.4 -2 2 C-1.34 2 -0.68 2 0 2 C0 1.34 0 0.68 0 0 Z " fill="#EDEBEB" transform="translate(286,332)"/>
<path d="M0 0 C0.66 0 1.32 0 2 0 C2.33 2.31 2.66 4.62 3 7 C3.66 7 4.32 7 5 7 C5 7.99 5 8.98 5 10 C3.35 10 1.7 10 0 10 C0 6.7 0 3.4 0 0 Z " fill="#F0F1F1" transform="translate(304,324)"/>
<path d="M0 0 C0.763125 0.20625 1.52625 0.4125 2.3125 0.625 C2.3125 1.615 2.3125 2.605 2.3125 3.625 C0.5625 4.3125 0.5625 4.3125 -1.6875 4.625 C-3.9375 3.1875 -3.9375 3.1875 -5.6875 1.625 C-2.6875 -0.375 -2.6875 -0.375 0 0 Z " fill="#EC9689" transform="translate(290.6875,645.375)"/>
<path d="M0 0 C1.98 0 3.96 0 6 0 C6 0.99 6 1.98 6 3 C5.01 3 4.02 3 3 3 C3 3.99 3 4.98 3 6 C2.01 6 1.02 6 0 6 C0 4.02 0 2.04 0 0 Z " fill="#E6E6E7" transform="translate(297,325)"/>
<path d="M0 0 C1.65 0 3.3 0 5 0 C5 1.65 5 3.3 5 5 C3.35 5 1.7 5 0 5 C0 3.35 0 1.7 0 0 Z " fill="#EBEBEC" transform="translate(313,357)"/>
<path d="M0 0 C1.65 0 3.3 0 5 0 C5 1.65 5 3.3 5 5 C3.35 5 1.7 5 0 5 C0 3.35 0 1.7 0 0 Z " fill="#EBEBEC" transform="translate(258,357)"/>
<path d="M0 0 C2.31 0 4.62 0 7 0 C7 1.32 7 2.64 7 4 C4.69 4 2.38 4 0 4 C0 2.68 0 1.36 0 0 Z " fill="#EFEFF0" transform="translate(270,338)"/>
<path d="M0 0 C1.65 0 3.3 0 5 0 C5 1.65 5 3.3 5 5 C3.35 5 1.7 5 0 5 C0 3.35 0 1.7 0 0 Z " fill="#EA9081" transform="translate(188,246)"/>
<path d="M0 0 C1.65 0 3.3 0 5 0 C5 1.65 5 3.3 5 5 C3.35 5 1.7 5 0 5 C0 3.35 0 1.7 0 0 Z " fill="#EA9081" transform="translate(182,246)"/>
<path d="M0 0 C1.65 0 3.3 0 5 0 C5 1.65 5 3.3 5 5 C3.35 5 1.7 5 0 5 C0 3.35 0 1.7 0 0 Z " fill="#E98B7B" transform="translate(188,240)"/>
<path d="M0 0 C1.65 0 3.3 0 5 0 C5 1.65 5 3.3 5 5 C3.35 5 1.7 5 0 5 C0 3.35 0 1.7 0 0 Z " fill="#E98B7B" transform="translate(182,240)"/>
<path d="M0 0 C1.65 0 3.3 0 5 0 C5 1.65 5 3.3 5 5 C3.35 5 1.7 5 0 5 C0 3.35 0 1.7 0 0 Z " fill="#EBEAE7" transform="translate(278,357)"/>
<path d="M0 0 C0.33 0 0.66 0 1 0 C1.04254356 1.99954746 1.04080783 4.00041636 1 6 C0 7 0 7 -3.0625 7.0625 C-4.031875 7.041875 -5.00125 7.02125 -6 7 C-6.33 6.01 -6.66 5.02 -7 4 C-4.525 4.99 -4.525 4.99 -2 6 C-1.34 4.02 -0.68 2.04 0 0 Z " fill="#F5FAFB" transform="translate(425,119)"/>
<path d="M0 0 C-5.17578125 3.22265625 -5.17578125 3.22265625 -7 4 C-7.99 3.67 -8.98 3.34 -10 3 C-9.67 2.01 -9.34 1.02 -9 0 C-3.375 -1.125 -3.375 -1.125 0 0 Z " fill="#637A85" transform="translate(510,346)"/>
<path d="M0 0 C3.34373475 0.55728913 6.03312999 1.35173889 9 3 C8.67 3.66 8.34 4.32 8 5 C4.62496331 3.8141763 2.35277269 2.72426311 0 0 Z " fill="#887256" transform="translate(512,345)"/>
<path d="M0 0 C0.66 0 1.32 0 2 0 C1.34 1.98 0.68 3.96 0 6 C-0.33 5.34 -0.66 4.68 -1 4 C-2.65 4 -4.3 4 -6 4 C-5.34 3.67 -4.68 3.34 -4 3 C-3.67 2.34 -3.34 1.68 -3 1 C-3 1.66 -3 2.32 -3 3 C-2.34 3 -1.68 3 -1 3 C-0.67 2.01 -0.34 1.02 0 0 Z " fill="#E7E2E2" transform="translate(310,331)"/>
<path d="M0 0 C2.475 0.495 2.475 0.495 5 1 C4.67 1.99 4.34 2.98 4 4 C2.68 3.67 1.36 3.34 0 3 C0 2.01 0 1.02 0 0 Z " fill="#F2C976" transform="translate(277,638)"/>
<path d="M0 0 C0.66 0.66 1.32 1.32 2 2 C1.34 3.32 0.68 4.64 0 6 C-1.32 5.34 -2.64 4.68 -4 4 C-2.68 2.68 -1.36 1.36 0 0 Z " fill="#89CACE" transform="translate(423,119)"/>
</svg>
