<?xml version="1.0" encoding="UTF-8"?>
<svg version="1.1" xmlns="http://www.w3.org/2000/svg" width="865" height="487">
<path d="M0 0 C1.53080956 -0.05905014 1.53080956 -0.05905014 3.09254456 -0.11929321 C6.73034291 0.52344792 7.92593438 2.01153096 10.22045898 4.83447266 C11.51335585 6.81593404 12.75901276 8.82880405 13.96264648 10.86572266 C14.97681641 12.44933594 14.97681641 12.44933594 16.01147461 14.06494141 C17.36707288 16.18282186 18.70571384 18.31166394 20.02612305 20.45166016 C22.34292507 24.1785266 24.81764858 27.7747857 27.33764648 31.36572266 C30.55581588 36.01095079 33.7216442 40.68768666 36.85717773 45.38916016 C38.28785324 47.5065599 39.71884214 49.62374793 41.15014648 51.74072266 C41.82045898 52.75908203 42.49077148 53.77744141 43.18139648 54.82666016 C43.8272168 55.77541016 44.47303711 56.72416016 45.13842773 57.70166016 C45.70730713 58.5529248 46.27618652 59.40418945 46.86230469 60.28125 C49.30358467 62.85740233 51.45543634 63.44470691 54.83764648 64.36572266 C55.83764648 65.36572266 55.83764648 65.36572266 55.90014648 68.92822266 C55.87952148 70.06259766 55.85889648 71.19697266 55.83764648 72.36572266 C54.93675293 72.68476563 54.03585938 73.00380859 53.10766602 73.33251953 C48.64813196 76.10532822 47.52020099 79.17214211 45.51733398 83.89697266 C45.13609375 84.75299576 44.75485352 85.60901886 44.36206055 86.49098206 C43.12727358 89.27488623 41.92000911 92.06983017 40.71264648 94.86572266 C39.87089659 96.77595717 39.02730151 98.68537964 38.18188477 100.59399414 C36.09771339 105.30897891 34.03409928 110.03263467 31.97583008 114.75897217 C29.76463702 119.82320664 27.51819818 124.87175341 25.27172852 129.92041016 C24.25236687 132.21389404 23.23752501 134.50939351 22.2277832 136.80712891 C21.78708496 137.80744141 21.34638672 138.80775391 20.89233398 139.83837891 C20.5157666 140.6969751 20.13919922 141.55557129 19.7512207 142.44018555 C18.83764648 144.36572266 18.83764648 144.36572266 17.83764648 145.36572266 C15.62411894 145.66798824 13.40194888 145.90709294 11.17822266 146.12182617 C10.48224472 146.19024719 9.78626678 146.25866821 9.06919861 146.3291626 C6.75673822 146.55534423 4.44371329 146.77507197 2.13061523 146.99462891 C0.52733675 147.14980669 -1.07590895 147.30532353 -2.67912292 147.46116638 C-6.04575218 147.78748759 -9.41264999 148.11082651 -12.77978516 148.43188477 C-17.09453251 148.84337376 -21.40871933 149.2604154 -25.72273731 149.67947483 C-29.03656279 150.00106043 -32.35058468 150.32058051 -35.66467857 150.63938713 C-37.25512498 150.79246223 -38.84552984 150.94596963 -40.43589211 151.09991646 C-42.66199433 151.31490956 -44.88832604 151.52734062 -47.11474609 151.73901367 C-49.01550652 151.92102074 -49.01550652 151.92102074 -50.95466614 152.10670471 C-54.16235352 152.36572266 -54.16235352 152.36572266 -58.16235352 152.36572266 C-58.82235352 153.68572266 -59.48235352 155.00572266 -60.16235352 156.36572266 C-63.03735352 156.49072266 -63.03735352 156.49072266 -66.16235352 156.36572266 C-68.16235352 154.36572266 -68.16235352 154.36572266 -68.28735352 150.92822266 C-68.84632847 145.72043938 -71.6131749 142.56095012 -74.74829102 138.50634766 C-77.35042187 135.12105121 -79.76352945 131.64591648 -82.16235352 128.11572266 C-86.87915355 121.21750846 -91.63836395 114.34947199 -96.41235352 107.49072266 C-97.07364258 106.54036133 -97.73493164 105.59 -98.41625977 104.61083984 C-99.05950195 103.6869043 -99.70274414 102.76296875 -100.36547852 101.81103516 C-100.9900293 100.90256836 -101.61458008 99.99410156 -102.25805664 99.05810547 C-103.53852526 97.24771983 -104.8670259 95.47046391 -106.23852539 93.72802734 C-111.07862762 87.44644769 -111.07862762 87.44644769 -111.45922852 82.53369141 C-110.02514135 76.62472116 -107.05293166 71.11763146 -104.41235352 65.67822266 C-103.53128845 63.82799845 -102.65485367 61.97562613 -101.77865601 60.12309265 C-101.17132398 58.83940847 -100.56276773 57.55630282 -99.95303345 56.27375793 C-96.84991286 49.73941488 -93.84933764 43.16036464 -90.8848877 36.56210327 C-90.05724934 34.72244665 -89.22364287 32.8854787 -88.38989258 31.04858398 C-82.62846157 19.609604 -82.62846157 19.609604 -82.16235352 7.36572266 C-80.72485352 5.05322266 -80.72485352 5.05322266 -79.16235352 3.36572266 C-72.41235352 4.11572266 -72.41235352 4.11572266 -70.16235352 6.36572266 C-67.49340827 6.42473208 -67.49340827 6.42473208 -64.35839844 6.04199219 C-62.52960396 5.86157883 -62.52960396 5.86157883 -60.66386414 5.67752075 C-59.32351403 5.53455196 -57.98316681 5.39155605 -56.64282227 5.24853516 C-55.26446131 5.11002639 -53.88598475 4.97266373 -52.50740051 4.83639526 C-48.86342244 4.4739331 -45.22077374 4.09959362 -41.57836914 3.72167969 C-35.78853046 3.12163725 -29.99749555 2.53398815 -24.20534706 1.95669174 C-22.19938464 1.75424361 -20.19430012 1.54315525 -18.18925476 1.33181763 C-12.13482105 0.72061429 -6.08238132 0.21513724 0 0 Z M1.83764648 3.36572266 C-0.27358732 4.26728635 -0.27358732 4.26728635 -2.59985352 5.68212891 C-3.49575195 6.1996875 -4.39165039 6.71724609 -5.31469727 7.25048828 C-6.25442383 7.80414063 -7.19415039 8.35779297 -8.16235352 8.92822266 C-9.07114258 9.45480469 -9.97993164 9.98138672 -10.91625977 10.52392578 C-17.03367749 14.07864149 -23.10398232 17.71148005 -29.16235352 21.36572266 C-26.30757026 23.26891149 -24.74294043 23.82763256 -21.47485352 24.49072266 C-20.66661133 24.65830078 -19.85836914 24.82587891 -19.02563477 24.99853516 C-18.41075195 25.11970703 -17.79586914 25.24087891 -17.16235352 25.36572266 C-17.16235352 24.70572266 -17.16235352 24.04572266 -17.16235352 23.36572266 C-13.78735352 23.17822266 -13.78735352 23.17822266 -10.16235352 23.36572266 C-8.16235352 26.36572266 -8.16235352 26.36572266 -7.78955078 28.87231445 C-7.38566499 31.46296373 -7.38566499 31.46296373 -5.39648438 32.94311523 C-4.64761963 33.377771 -3.89875488 33.81242676 -3.12719727 34.26025391 C-1.91386719 34.98051758 -1.91386719 34.98051758 -0.67602539 35.71533203 C0.17411133 36.19808594 1.02424805 36.68083984 1.90014648 37.17822266 C2.75415039 37.6803125 3.6081543 38.18240234 4.48803711 38.69970703 C6.59652373 39.93652879 8.71265322 41.15755477 10.83764648 42.36572266 C12.47550037 39.09001488 11.02842574 35.77064854 10.25561523 32.33056641 C10.08137527 31.53671036 9.90713531 30.74285431 9.72761536 29.92494202 C9.35685233 28.24550163 8.9825417 26.56684114 8.60498047 24.88891602 C8.02724864 22.31259693 7.46596298 19.73306521 6.90600586 17.15283203 C6.54436603 15.52435657 6.1817681 13.89609352 5.81811523 12.26806641 C5.65031052 11.49204575 5.4825058 10.71602509 5.30961609 9.91648865 C4.88310007 8.05040379 4.36840356 6.20487614 3.83764648 4.36572266 C3.17764648 4.03572266 2.51764648 3.70572266 1.83764648 3.36572266 Z M-15.61352539 3.80883789 C-16.65480591 3.90571396 -17.69608643 4.00259003 -18.7689209 4.10240173 C-19.87844116 4.20863358 -20.98796143 4.31486542 -22.13110352 4.42431641 C-23.8616095 4.58722923 -23.8616095 4.58722923 -25.6270752 4.75343323 C-28.06132638 4.98327276 -30.49544692 5.21449968 -32.92944336 5.44702148 C-36.64866367 5.80191635 -40.36835344 6.15152823 -44.08813477 6.50048828 C-46.45665423 6.72478232 -48.82514483 6.94938147 -51.19360352 7.17431641 C-52.30312378 7.27852402 -53.41264404 7.38273163 -54.55578613 7.49009705 C-59.45982848 7.96119265 -64.31650605 8.450034 -69.16235352 9.36572266 C-64.40395292 12.53798972 -58.88563544 13.77665608 -53.44824219 15.41674805 C-51.36372704 16.04901459 -49.28571176 16.7001227 -47.20727539 17.35205078 C-45.87364847 17.75752521 -44.53967425 18.16185946 -43.20532227 18.56494141 C-41.99900146 18.93449951 -40.79268066 19.30405762 -39.54980469 19.68481445 C-33.66442053 20.86782969 -29.76171971 19.44228728 -24.65063477 16.52978516 C-23.64581055 15.96001953 -22.64098633 15.39025391 -21.60571289 14.80322266 C-20.5725293 14.20509766 -19.5393457 13.60697266 -18.47485352 12.99072266 C-17.43006836 12.40033203 -16.3852832 11.80994141 -15.30883789 11.20166016 C-9.28591361 7.87543139 -9.28591361 7.87543139 -4.16235352 3.36572266 C-8.01396671 3.32561089 -11.77932153 3.44733948 -15.61352539 3.80883789 Z M7.83764648 10.36572266 C8.05256107 12.16258584 8.27127521 13.95903005 8.50219727 15.75390625 C8.74288505 17.62790761 8.97163846 19.50345647 9.19262695 21.37988281 C10.68658469 36.92451732 10.68658469 36.92451732 18.92358398 49.36572266 C22.67336744 51.81293313 26.62975777 53.69921475 30.75024414 55.43701172 C33.51385792 56.66657743 35.88938456 58.28791797 38.33764648 60.05322266 C40.85105245 61.95595188 40.85105245 61.95595188 43.83764648 62.36572266 C42.22740442 57.45877197 39.39912852 53.68612705 36.40014648 49.55322266 C35.30940195 48.03042996 34.21957896 46.50697682 33.13061523 44.98291016 C32.57937988 44.21301758 32.02814453 43.443125 31.46020508 42.64990234 C29.00143354 39.18853212 26.60623703 35.68483065 24.21264648 32.17822266 C20.58340164 26.88072243 16.92567112 21.60491457 13.21264648 16.36572266 C12.7864502 15.75962158 12.36025391 15.15352051 11.92114258 14.52905273 C10.91907188 13.12256166 9.88205122 11.74107046 8.83764648 10.36572266 C8.50764648 10.36572266 8.17764648 10.36572266 7.83764648 10.36572266 Z M-72.16235352 11.36572266 C-71.5880538 14.90071 -70.68483319 17.63007307 -68.94750977 20.75634766 C-68.50858398 21.54783203 -68.0696582 22.33931641 -67.61743164 23.15478516 C-67.15788086 23.96689453 -66.69833008 24.77900391 -66.22485352 25.61572266 C-65.76916992 26.44330078 -65.31348633 27.27087891 -64.84399414 28.12353516 C-62.72059116 32.44853931 -62.72059116 32.44853931 -59.16235352 35.36572266 C-56.69127778 34.26742231 -56.69127778 34.26742231 -53.93579102 32.61962891 C-52.90454102 32.02988281 -51.87329102 31.44013672 -50.81079102 30.83251953 C-49.73055664 30.20410156 -48.65032227 29.57568359 -47.53735352 28.92822266 C-46.44938477 28.30367188 -45.36141602 27.67912109 -44.24047852 27.03564453 C-41.54357118 25.48610567 -38.85118946 23.92921226 -36.16235352 22.36572266 C-39.65190474 20.44348464 -43.23570213 19.34334509 -47.04516602 18.20166016 C-48.02838333 17.90625839 -48.02838333 17.90625839 -49.03146362 17.60488892 C-50.410989 17.19136212 -51.79105733 16.77964281 -53.17163086 16.36962891 C-55.28851588 15.74037714 -57.4032493 15.10425794 -59.51782227 14.46728516 C-60.86014788 14.06583431 -62.2025918 13.66477882 -63.54516602 13.26416016 C-64.76606934 12.89983887 -65.98697266 12.53551758 -67.24487305 12.16015625 C-69.98002469 11.27814439 -69.98002469 11.27814439 -72.16235352 11.36572266 Z M-78.16235352 14.36572266 C-78.80297729 15.81301758 -78.80297729 15.81301758 -79.45654297 17.28955078 C-81.09441845 20.98862298 -82.73413719 24.6868756 -84.37454224 28.38482666 C-85.10606652 30.03421051 -85.83724927 31.68374587 -86.56808472 33.33343506 C-90.22733622 41.5909758 -93.89054034 49.84448041 -97.70922852 58.02978516 C-98.22445068 59.13644531 -98.73967285 60.24310547 -99.27050781 61.38330078 C-100.22332537 63.41913457 -101.18288579 65.45182926 -102.14990234 67.48095703 C-102.77674927 68.8199707 -102.77674927 68.8199707 -103.41625977 70.18603516 C-103.78050049 70.95189941 -104.14474121 71.71776367 -104.52001953 72.50683594 C-104.83797485 73.42698486 -104.83797485 73.42698486 -105.16235352 74.36572266 C-104.83235352 75.02572266 -104.50235352 75.68572266 -104.16235352 76.36572266 C-103.21875977 75.48271484 -102.27516602 74.59970703 -101.30297852 73.68994141 C-100.00613176 72.47767161 -98.70925511 71.26543379 -97.41235352 70.05322266 C-96.7974707 69.47765625 -96.18258789 68.90208984 -95.54907227 68.30908203 C-94.91098633 67.71289062 -94.27290039 67.11669922 -93.61547852 66.50244141 C-92.93582031 65.84526123 -92.25616211 65.18808105 -91.5559082 64.51098633 C-89.16235352 62.36572266 -89.16235352 62.36572266 -85.99536133 60.10522461 C-81.0970444 56.48178858 -77.14929154 53.3051095 -76.2043457 47.01928711 C-75.83996985 42.05381993 -76.11018444 37.13978186 -76.41235352 32.17822266 C-76.47266157 30.44598733 -76.52739428 28.71354848 -76.57641602 26.98095703 C-76.70754297 22.770779 -76.91383073 18.57053704 -77.16235352 14.36572266 C-77.49235352 14.36572266 -77.82235352 14.36572266 -78.16235352 14.36572266 Z M-75.16235352 15.36572266 C-75.16235352 26.25572266 -75.16235352 37.14572266 -75.16235352 48.36572266 C-68.68696683 43.9296028 -68.68696683 43.9296028 -63.16235352 38.36572266 C-63.57225509 34.77094201 -64.67140038 32.06499464 -66.44750977 28.93994141 C-66.89545898 28.14394531 -67.3434082 27.34794922 -67.80493164 26.52783203 C-68.27350586 25.71121094 -68.74208008 24.89458984 -69.22485352 24.05322266 C-69.93351562 22.79928711 -69.93351562 22.79928711 -70.65649414 21.52001953 C-71.81903107 19.46503 -72.98777442 17.41384528 -74.16235352 15.36572266 C-74.49235352 15.36572266 -74.82235352 15.36572266 -75.16235352 15.36572266 Z M-38.26782227 25.99072266 C-39.7421875 26.80283203 -39.7421875 26.80283203 -41.24633789 27.63134766 C-42.27049805 28.20369141 -43.2946582 28.77603516 -44.34985352 29.36572266 C-45.90349609 30.22423828 -45.90349609 30.22423828 -47.48852539 31.10009766 C-50.04963685 32.51638049 -52.60735897 33.9384433 -55.16235352 35.36572266 C-55.16235352 36.35572266 -55.16235352 37.34572266 -55.16235352 38.36572266 C-52.08570725 39.57108509 -49.00017083 40.75180459 -45.91235352 41.92822266 C-44.60331055 42.4415918 -44.60331055 42.4415918 -43.26782227 42.96533203 C-42.00131836 43.44389648 -42.00131836 43.44389648 -40.70922852 43.93212891 C-39.93417969 44.23062744 -39.15913086 44.52912598 -38.3605957 44.83666992 C-35.81982375 45.44815957 -34.58086401 45.32041409 -32.16235352 44.36572266 C-30.50179437 43.20192501 -30.50179437 43.20192501 -28.99829102 41.71337891 C-28.43368164 41.18421875 -27.86907227 40.65505859 -27.28735352 40.10986328 C-26.70985352 39.55492187 -26.13235352 38.99998047 -25.53735352 38.42822266 C-24.95211914 37.87714844 -24.36688477 37.32607422 -23.76391602 36.75830078 C-21.53463235 34.6542865 -19.32997146 32.5333406 -17.16235352 30.36572266 C-17.65735352 28.88072266 -17.65735352 28.88072266 -18.16235352 27.36572266 C-20.84322808 26.10855741 -20.84322808 26.10855741 -24.03735352 25.17822266 C-25.10727539 24.83404297 -26.17719727 24.48986328 -27.27954102 24.13525391 C-32.02609309 22.86822036 -34.08536165 23.66981966 -38.26782227 25.99072266 Z M-20.17016602 34.56884766 C-21.22377299 35.5693762 -22.26250185 36.58575951 -23.28735352 37.61572266 C-23.81200195 38.11974609 -24.33665039 38.62376953 -24.87719727 39.14306641 C-26.320552 40.53526426 -27.74232512 41.94973992 -29.16235352 43.36572266 C-30.08661133 44.28611328 -30.08661133 44.28611328 -31.02954102 45.22509766 C-31.40336914 45.60150391 -31.77719727 45.97791016 -32.16235352 46.36572266 C-24.61686065 49.69732771 -17.18306824 52.42369921 -9.16235352 54.36572266 C-9.74711408 47.27165371 -10.79469347 40.35008367 -12.16235352 33.36572266 C-15.9385172 31.88869922 -16.82278401 32.11699902 -20.17016602 34.56884766 Z M-10.16235352 32.36572266 C-12.45082337 39.23113223 -9.98571191 48.84798563 -7.16235352 55.36572266 C-3.51987664 58.67501172 0.09225433 59.40216298 4.83764648 60.36572266 C7.09524806 61.1140001 9.34579188 61.88401113 11.58764648 62.67822266 C13.3361476 63.24536469 15.08558972 63.80966209 16.83764648 64.36572266 C16.30582853 52.94155969 16.30582853 52.94155969 10.84790039 43.30419922 C4.7169539 38.54369959 -2.49932385 34.01678879 -10.16235352 32.36572266 Z M-59.16235352 39.36572266 C-58.55155184 43.01408461 -57.92135696 46.65882698 -57.28735352 50.30322266 C-57.11333008 51.34414063 -56.93930664 52.38505859 -56.76000977 53.45751953 C-56.49897461 54.94155273 -56.49897461 54.94155273 -56.23266602 56.45556641 C-56.07556152 57.37200928 -55.91845703 58.28845215 -55.7565918 59.23266602 C-55.56049316 59.93657471 -55.36439453 60.6404834 -55.16235352 61.36572266 C-54.50235352 61.69572266 -53.84235352 62.02572266 -53.16235352 62.36572266 C-51.42721057 60.998272 -49.69951799 59.62136555 -47.97485352 58.24072266 C-47.01192383 57.47501953 -46.04899414 56.70931641 -45.05688477 55.92041016 C-42.02777328 53.24694334 -39.66595865 50.52383516 -37.16235352 47.36572266 C-40.64049979 46.02971653 -44.12003491 44.69736624 -47.59985352 43.36572266 C-48.59307617 42.98416016 -49.58629883 42.60259766 -50.60961914 42.20947266 C-51.55385742 41.84853516 -52.4980957 41.48759766 -53.47094727 41.11572266 C-54.34549561 40.78056641 -55.22004395 40.44541016 -56.12109375 40.10009766 C-57.95762267 39.30930196 -57.95762267 39.30930196 -59.16235352 39.36572266 Z M-63.58032227 41.72119141 C-64.74721876 42.92930279 -65.91389057 44.13763125 -67.08032227 45.34619141 C-69.16235352 47.36572266 -69.16235352 47.36572266 -72.37719727 49.27197266 C-74.71021962 51.19012166 -75.12939346 52.17112928 -75.64257812 55.20092773 C-75.75366491 58.7113214 -75.68458217 62.16927316 -75.53735352 65.67822266 C-75.5102832 66.89574219 -75.48321289 68.11326172 -75.45532227 69.36767578 C-75.38470693 72.36882764 -75.28612324 75.36636978 -75.16235352 78.36572266 C-68.65237131 78.36572266 -64.71799616 73.99389596 -60.08422852 69.70947266 C-58.01792046 67.5622771 -57.2185965 66.5576105 -56.36547852 63.64697266 C-56.63034886 60.71574089 -57.31022201 58.18431147 -58.16235352 55.36572266 C-58.58477732 53.33338341 -58.96013276 51.29499805 -59.33642578 49.25366211 C-59.89307481 46.27938593 -60.52753753 43.3242047 -61.16235352 40.36572266 C-62.3688129 40.25055657 -62.3688129 40.25055657 -63.58032227 41.72119141 Z M-35.16235352 48.36572266 C-35.86360352 49.00638672 -36.56485352 49.64705078 -37.28735352 50.30712891 C-38.23610352 51.17208984 -39.18485352 52.03705078 -40.16235352 52.92822266 C-41.60485614 54.2445063 -43.04632018 55.56222017 -44.46508789 56.90405273 C-46.16235352 58.36572266 -46.16235352 58.36572266 -48.37524414 59.78637695 C-50.84162486 61.49602722 -52.49156822 62.86201792 -54.16235352 65.36572266 C-54.63029839 70.13098699 -53.69568869 74.40815856 -52.66235352 79.05322266 C-52.45481445 80.27589844 -52.24727539 81.49857422 -52.03344727 82.75830078 C-50.92490947 88.96930669 -50.92490947 88.96930669 -47.42700195 93.98803711 C-45.35864166 95.05783509 -43.40228117 95.73816551 -41.16235352 96.36572266 C-39.85342307 96.86798293 -38.54607501 97.37438983 -37.24047852 97.88525391 C-35.96654602 98.32243848 -34.69048951 98.75348421 -33.41235352 99.17822266 C-32.7665332 99.40703125 -32.12071289 99.63583984 -31.45532227 99.87158203 C-27.91610164 101.05980087 -25.68282584 101.62848671 -22.16235352 100.36572266 C-20.45899067 99.23204022 -20.45899067 99.23204022 -18.88500977 97.78369141 C-18.28881836 97.26355469 -17.69262695 96.74341797 -17.07836914 96.20751953 C-16.16087891 95.38864258 -16.16087891 95.38864258 -15.22485352 94.55322266 C-14.00802984 93.48350174 -12.79059293 92.41447793 -11.57250977 91.34619141 C-10.99581543 90.82911621 -10.41912109 90.31204102 -9.82495117 89.77929688 C-8.16235352 88.36572266 -8.16235352 88.36572266 -5.18969727 86.38525391 C-2.82850451 84.4850007 -2.82850451 84.4850007 -3.00610352 81.33447266 C-3.69896698 77.67219433 -4.4101996 74.01632828 -5.16235352 70.36572266 C-5.29383789 69.24037109 -5.42532227 68.11501953 -5.56079102 66.95556641 C-6.05172309 63.70817148 -6.60904439 61.26341628 -8.16235352 58.36572266 C-11.86237302 55.70517351 -15.81470561 54.614718 -20.16235352 53.36572266 C-21.53991415 52.90719934 -22.91485908 52.4407574 -24.28735352 51.96728516 C-27.89938501 50.72379195 -31.52513582 49.53340866 -35.16235352 48.36572266 Z M15.83764648 48.36572266 C16.31330415 50.82478302 16.79300701 53.28293258 17.27514648 55.74072266 C17.40985352 56.43939453 17.54456055 57.13806641 17.68334961 57.85791016 C18.41488868 61.72201 18.41488868 61.72201 19.83764648 65.36572266 C22.45804412 65.83680544 22.45804412 65.83680544 25.62280273 65.99853516 C27.37753906 66.12421875 27.37753906 66.12421875 29.16772461 66.25244141 C30.39942383 66.33107422 31.63112305 66.40970703 32.90014648 66.49072266 C34.13571289 66.57708984 35.3712793 66.66345703 36.64428711 66.75244141 C39.70826005 66.96538161 42.77257104 67.16940128 45.83764648 67.36572266 C42.92126064 64.98882231 40.01088619 62.73696318 36.84155273 60.70947266 C36.11774414 60.24412109 35.39393555 59.77876953 34.64819336 59.29931641 C33.53541016 58.5896875 33.53541016 58.5896875 32.40014648 57.86572266 C30.92203902 56.91818477 29.4441701 55.97027464 27.96655273 55.02197266 C27.2641748 54.57337891 26.56179687 54.12478516 25.83813477 53.66259766 C24.01204228 52.47877983 22.21894262 51.25723208 20.42749023 50.02197266 C18.06918769 48.18613426 18.06918769 48.18613426 15.83764648 48.36572266 Z M-81.55688477 58.47900391 C-82.26014893 59.14544922 -82.96341309 59.81189453 -83.68798828 60.49853516 C-84.44265381 61.21783203 -85.19731934 61.93712891 -85.97485352 62.67822266 C-87.52113743 64.14369034 -89.06801632 65.60853048 -90.61547852 67.07275391 C-91.38311523 67.79930176 -92.15075195 68.52584961 -92.94165039 69.27441406 C-97.63247935 73.69192075 -102.39549847 78.03054813 -107.16235352 82.36572266 C-105.81014084 86.4223607 -104.04613512 86.83409367 -100.33422852 88.86962891 C-99.74820862 89.19358139 -99.16218872 89.51753387 -98.55841064 89.8513031 C-97.3166486 90.53553028 -96.07240883 91.21527703 -94.82592773 91.89086914 C-92.92883103 92.91929015 -91.0392322 93.96046231 -89.15063477 95.00439453 C-81.82985316 99.04689435 -81.82985316 99.04689435 -74.16235352 102.36572266 C-74.30384341 100.76116706 -74.45071038 99.15708499 -74.59985352 97.55322266 C-74.68106445 96.65990234 -74.76227539 95.76658203 -74.84594727 94.84619141 C-75.09725119 92.23828707 -75.09725119 92.23828707 -76.16235352 89.36572266 C-78.65995333 87.66689818 -78.65995333 87.66689818 -81.16235352 86.36572266 C-80.84985352 83.49072266 -80.84985352 83.49072266 -80.16235352 80.36572266 C-79.17235352 79.70572266 -78.18235352 79.04572266 -77.16235352 78.36572266 C-76.74590002 75.94472911 -76.74590002 75.94472911 -76.86938477 73.13916016 C-76.87905273 72.10791016 -76.8887207 71.07666016 -76.89868164 70.01416016 C-76.92381836 68.93392578 -76.94895508 67.85369141 -76.97485352 66.74072266 C-76.98838867 65.65275391 -77.00192383 64.56478516 -77.01586914 63.44384766 C-77.05130597 60.75064857 -77.1007102 58.05842892 -77.16235352 55.36572266 C-79.02944837 55.36572266 -80.2774158 57.26099915 -81.55688477 58.47900391 Z M-6.16235352 59.36572266 C-5.12559538 67.11934997 -3.9985794 74.75850114 -2.16235352 82.36572266 C4.24665625 77.80064586 10.05666258 72.69654798 15.83764648 67.36572266 C12.35614405 65.04472103 8.73197964 63.68897111 4.83764648 62.24072266 C4.11319336 61.96357422 3.38874023 61.68642578 2.64233398 61.40087891 C-0.41773224 60.25476554 -2.8677745 59.36572266 -6.16235352 59.36572266 Z M-64.22485352 73.55322266 C-64.88807617 74.13136719 -65.55129883 74.70951172 -66.23461914 75.30517578 C-70.07447672 78.63016801 -70.07447672 78.63016801 -71.59594727 83.29150391 C-71.45286133 83.97599609 -71.30977539 84.66048828 -71.16235352 85.36572266 C-68.56038149 86.37177858 -65.9560599 87.37074791 -63.34985352 88.36572266 C-62.24287109 88.79498047 -62.24287109 88.79498047 -61.11352539 89.23291016 C-60.40131836 89.50361328 -59.68911133 89.77431641 -58.95532227 90.05322266 C-58.30072021 90.30458984 -57.64611816 90.55595703 -56.97167969 90.81494141 C-54.99924208 91.51133172 -54.99924208 91.51133172 -52.16235352 91.36572266 C-52.70900232 83.1848406 -54.3335922 75.34786326 -56.16235352 67.36572266 C-58.92391102 67.36572266 -62.27177626 71.78342538 -64.22485352 73.55322266 Z M19.83764648 68.36572266 C19.50764648 77.27572266 19.17764648 86.18572266 18.83764648 95.36572266 C22.50590959 93.16476479 24.90187182 91.56676506 27.86889648 88.71337891 C28.5972168 88.01921875 29.32553711 87.32505859 30.07592773 86.60986328 C30.82229492 85.88992188 31.56866211 85.16998047 32.33764648 84.42822266 C33.82556025 83.00069917 35.31510045 81.57486866 36.80639648 80.15087891 C37.50120117 79.48588379 38.19600586 78.82088867 38.91186523 78.13574219 C40.83764648 76.36572266 40.83764648 76.36572266 43.86889648 74.04931641 C44.51858398 73.49373047 45.16827148 72.93814453 45.83764648 72.36572266 C45.83764648 71.37572266 45.83764648 70.38572266 45.83764648 69.36572266 C37.13816574 68.47346822 28.58242659 68.27827486 19.83764648 68.36572266 Z M9.1472168 76.45727539 C6.57066923 78.84719598 4.00806508 80.98127692 1.08764648 82.92822266 C-1.32104566 85.0512039 -1.32104566 85.0512039 -1.36547852 87.27587891 C-1.14307458 89.70093716 -0.68328849 91.98690769 -0.16235352 94.36572266 C-0.00895508 95.34154297 0.14444336 96.31736328 0.30249023 97.32275391 C0.92010464 102.88300729 0.92010464 102.88300729 3.83764648 107.36572266 C8.43462297 106.91933092 11.64599135 104.04183892 14.93481445 101.02197266 C18.64319038 95.8452816 17.76337838 89.97546933 17.40014648 83.86572266 C17.35954102 82.56634766 17.31893555 81.26697266 17.27709961 79.92822266 C17.17150202 76.73682886 17.0239679 73.55325213 16.83764648 70.36572266 C14.11020098 70.36572266 11.09251816 74.63995438 9.1472168 76.45727539 Z M44.83764648 75.36572266 C43.67749023 76.435 43.67749023 76.435 42.49389648 77.52587891 C26.46495131 92.2753975 26.46495131 92.2753975 21.75463867 95.43139648 C19.89712263 96.98856518 18.97077059 97.89326998 18.30880737 100.24255371 C18.1440737 102.50004203 18.16231633 104.6860034 18.25170898 106.94775391 C18.26019867 107.76193283 18.26868835 108.57611176 18.2774353 109.41496277 C18.31090472 112.0040879 18.38616288 114.59004647 18.46264648 117.17822266 C18.49275485 118.93794315 18.52012914 120.69771269 18.54467773 122.45751953 C18.6106737 126.76146569 18.7141432 131.06305821 18.83764648 135.36572266 C20.69309585 132.58254861 22.04850035 129.92447582 23.45483398 126.89697266 C23.97416504 125.7804834 24.49349609 124.66399414 25.02856445 123.51367188 C25.59028428 122.29785467 26.15163647 121.08186755 26.71264648 119.86572266 C26.99577698 119.25311584 27.27890747 118.64050903 27.57061768 118.00933838 C29.66936409 113.46591129 31.75547399 108.91676483 33.83764648 104.36572266 C34.13590332 103.71486694 34.43416016 103.06401123 34.74145508 102.39343262 C36.74652929 98.01572364 38.73375396 93.63033097 40.71264648 89.24072266 C41.24229004 88.07992187 41.77193359 86.91912109 42.31762695 85.72314453 C42.79603027 84.65386719 43.27443359 83.58458984 43.76733398 82.48291016 C44.19256348 81.54044434 44.61779297 80.59797852 45.0559082 79.62695312 C45.31388184 78.88074707 45.57185547 78.13454102 45.83764648 77.36572266 C45.50764648 76.70572266 45.17764648 76.04572266 44.83764648 75.36572266 Z M-72.16235352 86.36572266 C-72.16235352 87.02572266 -72.16235352 87.68572266 -72.16235352 88.36572266 C-72.82235352 88.36572266 -73.48235352 88.36572266 -74.16235352 88.36572266 C-74.04601993 89.88724345 -73.91876481 91.40792989 -73.78735352 92.92822266 C-73.71774414 93.77513672 -73.64813477 94.62205078 -73.57641602 95.49462891 C-73.43977539 96.44208984 -73.30313477 97.38955078 -73.16235352 98.36572266 C-73.0012207 99.52458984 -72.84008789 100.68345703 -72.67407227 101.87744141 C-70.48894589 106.9196064 -67.13538366 108.25119635 -62.34985352 110.61572266 C-60.73900279 111.4539307 -59.12832112 112.29246373 -57.51782227 113.13134766 C-56.76033691 113.51355469 -56.00285156 113.89576172 -55.22241211 114.28955078 C-53.16235352 115.36572266 -53.16235352 115.36572266 -50.21313477 117.22509766 C-49.53637695 117.60150391 -48.85961914 117.97791016 -48.16235352 118.36572266 C-47.50235352 118.03572266 -46.84235352 117.70572266 -46.16235352 117.36572266 C-46.64871206 109.27328307 -47.17971073 100.57035225 -51.16235352 93.36572266 C-57.05786215 88.68664812 -64.8603372 87.39963647 -72.16235352 86.36572266 Z M-8.28735352 91.49072266 C-9.27606445 92.30669922 -10.26477539 93.12267578 -11.28344727 93.96337891 C-14.60371922 96.73402647 -17.89446557 99.5335531 -21.16235352 102.36572266 C-17.89961563 104.54088125 -14.85324639 105.67584207 -11.16235352 106.99072266 C-9.92485352 107.43673828 -8.68735352 107.88275391 -7.41235352 108.34228516 C-4.25333004 109.51590422 -4.25333004 109.51590422 -1.16235352 109.36572266 C-1.16235352 108.70572266 -1.16235352 108.04572266 -1.16235352 107.36572266 C-0.50235352 107.36572266 0.15764648 107.36572266 0.83764648 107.36572266 C0.28900785 100.57992906 -0.70503289 94.01563229 -2.16235352 87.36572266 C-4.34288141 87.36572266 -6.74335747 90.21597933 -8.28735352 91.49072266 Z M-104.16235352 89.36572266 C-102.81835024 93.13026915 -101.13408681 95.997634 -98.72485352 99.17822266 C-95.44323741 103.59871805 -92.26721263 108.06948621 -89.16235352 112.61572266 C-84.30104779 119.72321993 -79.39494794 126.79879658 -74.47485352 133.86572266 C-73.75491211 134.89987305 -73.0349707 135.93402344 -72.29321289 136.99951172 C-70.58327944 139.45516155 -68.8730149 141.91057989 -67.16235352 144.36572266 C-65.73428048 140.49118659 -66.52621712 137.01324247 -67.27172852 133.08056641 C-67.39920471 132.38306778 -67.52668091 131.68556915 -67.65802002 130.9669342 C-67.92960274 129.49612177 -68.20555914 128.02611107 -68.4855957 126.55688477 C-68.91105132 124.3100994 -69.31477997 122.06012109 -69.71704102 119.80908203 C-69.98396072 118.37849855 -70.25214745 116.94815077 -70.52172852 115.51806641 C-70.70007233 114.51017311 -70.70007233 114.51017311 -70.88201904 113.48191833 C-71.59300157 109.85829755 -72.11976046 107.55069978 -75.16235352 105.36572266 C-77.27304984 104.04658195 -79.37900589 102.79289272 -81.54516602 101.57275391 C-82.16003876 101.22186203 -82.7749115 100.87097015 -83.40841675 100.50944519 C-84.70318457 99.77182618 -85.99928678 99.03654513 -87.29663086 98.3034668 C-89.29015708 97.17663796 -91.27927018 96.0423178 -93.26782227 94.90673828 C-94.52668598 94.19080219 -95.78579219 93.47529229 -97.04516602 92.76025391 C-97.64305939 92.4196846 -98.24095276 92.0791153 -98.85696411 91.72822571 C-101.35987186 90.06950528 -101.35987186 90.06950528 -104.16235352 89.36572266 Z M-48.16235352 95.36572266 C-47.02599805 103.07843313 -45.78075986 110.73855232 -44.16235352 118.36572266 C-40.28501727 116.75245746 -37.64508925 114.21622903 -34.59985352 111.36572266 C-31.84205674 108.79128007 -29.30280657 106.45935803 -26.16235352 104.36572266 C-26.16235352 103.70572266 -26.16235352 103.04572266 -26.16235352 102.36572266 C-29.45224437 101.1940051 -32.74454454 100.02921178 -36.03735352 98.86572266 C-36.97450195 98.53185547 -37.91165039 98.19798828 -38.87719727 97.85400391 C-39.7730957 97.53818359 -40.66899414 97.22236328 -41.59204102 96.89697266 C-42.41945801 96.60371094 -43.246875 96.31044922 -44.09936523 96.00830078 C-46.12048136 95.26659364 -46.12048136 95.26659364 -48.16235352 95.36572266 Z M9.64624023 106.34619141 C7.11274669 109.175168 6.9120583 111.64513167 6.83764648 115.36572266 C6.50764648 115.69572266 6.17764648 116.02572266 5.83764648 116.36572266 C4.52924805 116.27291016 3.22084961 116.18009766 1.87280273 116.08447266 C-4.08900692 116.0183222 -7.8957519 118.6304233 -12.72485352 121.86572266 C-13.54276367 122.39037109 -14.36067383 122.91501953 -15.20336914 123.45556641 C-17.20216097 124.74133893 -19.18699676 126.04434541 -21.16235352 127.36572266 C-19.5540831 130.58226349 -16.17871222 131.03539554 -12.95141602 132.18603516 C-12.2274765 132.4495578 -11.50353699 132.71308044 -10.75765991 132.98458862 C-9.22388961 133.54104514 -7.68882213 134.09393705 -6.15258789 134.64355469 C-3.80088704 135.48587528 -1.45409703 136.3408779 0.89233398 137.19775391 C2.38164152 137.73627767 3.87121642 138.2740627 5.36108398 138.81103516 C6.41590469 139.19535202 6.41590469 139.19535202 7.49203491 139.58743286 C10.41236982 140.62627037 12.71262076 141.36572266 15.83764648 141.36572266 C16.16764648 128.16572266 16.49764648 114.96572266 16.83764648 101.36572266 C14.22780278 101.36572266 11.49786411 104.72560794 9.64624023 106.34619141 Z M-28.97485352 109.55322266 C-30.00089786 110.52724954 -31.02824015 111.499911 -32.05688477 112.47119141 C-32.56300293 112.94991699 -33.06912109 113.42864258 -33.59057617 113.921875 C-36.03606826 116.16832424 -38.59191035 118.26402996 -41.16235352 120.36572266 C-39.59544279 123.4995441 -36.54225638 123.98160805 -33.41235352 125.11572266 C-32.18000977 125.58494141 -30.94766602 126.05416016 -29.67797852 126.53759766 C-25.65974433 127.48411504 -24.69427584 127.33150205 -21.16235352 125.36572266 C-20.55649414 125.04055664 -19.95063477 124.71539062 -19.32641602 124.38037109 C-17.21355024 123.23623815 -15.12467386 122.05576139 -13.03735352 120.86572266 C-12.32192383 120.46224609 -11.60649414 120.05876953 -10.86938477 119.64306641 C-7.89595294 117.95904801 -5.00827077 116.26300083 -2.16235352 114.36572266 C-2.37789852 112.40525399 -2.37789852 112.40525399 -3.16235352 110.36572266 C-4.79837084 109.26947448 -4.79837084 109.26947448 -6.87329102 108.66259766 C-7.99864258 108.27587891 -7.99864258 108.27587891 -9.14672852 107.88134766 C-9.93563477 107.62869141 -10.72454102 107.37603516 -11.53735352 107.11572266 C-12.31852539 106.84759766 -13.09969727 106.57947266 -13.90454102 106.30322266 C-21.01159963 103.91797696 -23.46955337 104.23893664 -28.97485352 109.55322266 Z M-70.16235352 109.36572266 C-69.54183095 117.52082563 -68.13395111 125.46356776 -66.59985352 133.49072266 C-66.36588867 134.73337891 -66.13192383 135.97603516 -65.89086914 137.25634766 C-65.31847487 140.29354173 -64.74222404 143.32994872 -64.16235352 146.36572266 C-63.17235352 146.36572266 -62.18235352 146.36572266 -61.16235352 146.36572266 C-59.42118792 144.33763128 -59.42118792 144.33763128 -57.80688477 141.65869141 C-57.18491211 140.67964844 -56.56293945 139.70060547 -55.92211914 138.69189453 C-55.27952148 137.65613281 -54.63692383 136.62037109 -53.97485352 135.55322266 C-53.3206543 134.5290625 -52.66645508 133.50490234 -51.99243164 132.44970703 C-48.39417449 127.28805654 -48.39417449 127.28805654 -47.16235352 121.36572266 C-50.61669666 119.35876975 -54.07645982 117.36135487 -57.53735352 115.36572266 C-58.52219727 114.79337891 -59.50704102 114.22103516 -60.52172852 113.63134766 C-61.46274414 113.08994141 -62.40375977 112.54853516 -63.37329102 111.99072266 C-64.24260254 111.48798828 -65.11191406 110.98525391 -66.00756836 110.46728516 C-68.05581424 109.21399409 -68.05581424 109.21399409 -70.16235352 109.36572266 Z M-44.16235352 123.36572266 C-46.12300523 126.44760333 -48.08095251 129.53114533 -50.03735352 132.61572266 C-50.87073242 133.92476562 -50.87073242 133.92476562 -51.72094727 135.26025391 C-52.2559082 136.10458984 -52.79086914 136.94892578 -53.34204102 137.81884766 C-53.83430176 138.59389648 -54.3265625 139.36894531 -54.83374023 140.16748047 C-56.05768889 142.19255097 -57.13879229 144.23365736 -58.16235352 146.36572266 C-52.00642858 144.06365518 -46.51438559 140.66313583 -40.84985352 137.36572266 C-39.72772461 136.72376953 -38.6055957 136.08181641 -37.44946289 135.42041016 C-36.38920898 134.80423828 -35.32895508 134.18806641 -34.23657227 133.55322266 C-33.26292725 132.98990234 -32.28928223 132.42658203 -31.28613281 131.84619141 C-30.23486206 131.11335937 -30.23486206 131.11335937 -29.16235352 130.36572266 C-29.16235352 129.70572266 -29.16235352 129.04572266 -29.16235352 128.36572266 C-34.11235352 126.71572266 -39.06235352 125.06572266 -44.16235352 123.36572266 Z M-33.41235352 134.30322266 C-34.11166992 134.70347656 -34.81098633 135.10373047 -35.53149414 135.51611328 C-37.74734515 136.7899792 -39.95586747 138.07571014 -42.16235352 139.36572266 C-42.89389648 139.79256348 -43.62543945 140.2194043 -44.37915039 140.65917969 C-46.47760309 141.8879906 -48.57123883 143.12447141 -50.66235352 144.36572266 C-51.64123535 144.94374634 -51.64123535 144.94374634 -52.63989258 145.53344727 C-54.16510971 146.44861884 -55.66669574 147.40300041 -57.16235352 148.36572266 C-57.16235352 148.69572266 -57.16235352 149.02572266 -57.16235352 149.36572266 C-42.75460584 148.70426408 -28.44414523 147.27566692 -14.09985352 145.80322266 C-11.76850642 145.56656814 -9.43712639 145.33023776 -7.10571289 145.09423828 C-1.45754203 144.52179632 4.1902117 143.94537904 9.83764648 143.36572266 C6.6411674 141.2347366 3.69092843 140.09211019 0.08764648 138.76416016 C-0.566875 138.52283356 -1.22139648 138.28150696 -1.89575195 138.03286743 C-3.27686055 137.52497495 -4.65871577 137.01910876 -6.04125977 136.51513672 C-8.15699786 135.74267801 -10.26911872 134.96087624 -12.38110352 134.17822266 C-13.72464513 133.6854666 -15.06838854 133.19326034 -16.41235352 132.70166016 C-17.63438477 132.2535498 -18.85641602 131.80543945 -20.11547852 131.34375 C-25.73386657 129.54028345 -28.60571294 131.5141843 -33.41235352 134.30322266 Z " fill="#2F3135" transform="translate(148.162353515625,260.63427734375)"/>
<path d="M0 0 C1.77734375 1.6328125 1.77734375 1.6328125 3 3 C1.63629701 5.99220268 0.05091917 8.29026529 -2.125 10.75 C-2.66382813 11.36359375 -3.20265625 11.9771875 -3.7578125 12.609375 C-4.16773438 13.06828125 -4.57765625 13.5271875 -5 14 C-7.60970226 13.42930078 -9.23611691 12.85602627 -11.5625 11.4375 C-17.45744188 8.97234249 -23.42396741 9.11009783 -29.4375 11.1875 C-34.65222756 14.87596584 -36.85055604 18.73030565 -38 25 C-38 30.57413315 -37.08266327 35.26590998 -34 40 C-29.65818774 44.01617634 -26.46698307 45.14748642 -20.625 45.1875 C-19.68914063 45.20167969 -18.75328125 45.21585937 -17.7890625 45.23046875 C-14.83881846 44.98668108 -12.67635888 44.23112508 -10 43 C-9.67 40.36 -9.34 37.72 -9 35 C-12.63 35 -16.26 35 -20 35 C-20 30.38 -20 25.76 -20 21 C-12.08 21 -4.16 21 4 21 C4 31.89 4 42.78 4 54 C-7.96368861 59.31719494 -23.05114372 62.18281601 -35.875 57.3125 C-43.97048765 53.22918725 -49.20672872 47.30457169 -52.1171875 38.6953125 C-54.5251607 28.61592025 -53.87822315 18.20935586 -49 9 C-44.80628405 2.29515322 -38.74558359 -1.68068838 -31.17578125 -3.78515625 C-20.41719162 -5.90874714 -9.7503676 -5.36547743 0 0 Z " fill="#2F3135" transform="translate(714,311)"/>
<path d="M0 0 C37.26 0 37.26 0 47.70703125 9.5625 C53.47647651 15.62673443 55.13507377 22.14120198 55.4375 30.375 C55.1866347 38.97466238 53.23073303 46.03494051 47.3125 52.4375 C33.91366697 64.65923929 17.83525823 61 0 61 C0 40.87 0 20.74 0 0 Z M14 14 C14 25.22 14 36.44 14 48 C26.91322827 48.43234328 26.91322827 48.43234328 36.875 42.375 C39.89211005 37.58311934 41.43506298 33.33731852 40.69140625 27.6328125 C39.10785011 21.79037558 36.07978961 18.23259339 31 15 C25.61483519 13.20494506 19.67646212 14 14 14 Z " fill="#2F3135" transform="translate(602,308)"/>
<path d="M0 0 C34.58823529 0 34.58823529 0 42 6 C46.35624716 10.95710884 46.28384681 15.69483239 46.21484375 22.05078125 C45.84337095 27.15008963 44.24652537 29.87812717 40.5 33.25 C38.68218896 34.52246773 36.846254 35.769164 35 37 C35.60328125 38.00160156 36.2065625 39.00320313 36.828125 40.03515625 C37.63545679 41.37758004 38.44274619 42.72002932 39.25 44.0625 C39.64574219 44.71927734 40.04148437 45.37605469 40.44921875 46.05273438 C41.63859137 48.03177242 42.82080141 50.01488491 44 52 C44.39251953 52.65597168 44.78503906 53.31194336 45.18945312 53.98779297 C48 58.76745756 48 58.76745756 48 61 C42.52443776 61.58527387 37.45976941 61.85579719 32 61 C28.67106124 58.25362552 27.53885427 54.95998498 26 51 C24.88746049 48.82690882 23.76246864 46.66014688 22.625 44.5 C20 39.27692308 20 39.27692308 20 37 C18.02 37 16.04 37 14 37 C14 44.92 14 52.84 14 61 C9.38 61 4.76 61 0 61 C0 40.87 0 20.74 0 0 Z M14 13 C14 16.96 14 20.92 14 25 C16.08304538 25.05418326 18.16649768 25.09287551 20.25 25.125 C21.41015625 25.14820313 22.5703125 25.17140625 23.765625 25.1953125 C26.85121433 25.00898464 28.5075105 24.78034965 31 23 C32.17110449 20.1403994 32.17110449 20.1403994 32 17 C30.51620842 14.67057413 30.51620842 14.67057413 28 13 C24.4964365 12.51675794 24.4964365 12.51675794 20.75 12.75 C19.48671875 12.78609375 18.2234375 12.8221875 16.921875 12.859375 C15.95765625 12.90578125 14.9934375 12.9521875 14 13 Z " fill="#2F3135" transform="translate(779,308)"/>
<path d="M0 0 C4.29160791 -0.05871491 8.58311058 -0.09383483 12.875 -0.125 C14.07898438 -0.14175781 15.28296875 -0.15851563 16.5234375 -0.17578125 C35.3880226 -0.27830617 35.3880226 -0.27830617 42.625 6.3671875 C46.81570154 11.34364558 46.41696601 16.34654776 46.3125 22.640625 C45.92029239 26.85685683 44.99949359 29.00050641 42 32 C40.05065878 33.50241909 38.12778253 34.74267396 36 36 C37.28559291 39.39576437 38.75752364 42.48341574 40.6015625 45.609375 C41.33632813 46.86427734 41.33632813 46.86427734 42.0859375 48.14453125 C42.84777344 49.43423828 42.84777344 49.43423828 43.625 50.75 C44.63992623 52.47283728 45.65305152 54.19673722 46.6640625 55.921875 C47.11217285 56.68081055 47.5602832 57.43974609 48.02197266 58.22167969 C49 60 49 60 49 61 C43.39 61 37.78 61 32 61 C29.99491947 57.37772653 27.99574934 53.75240928 26 50.125 C25.42765625 49.09246094 24.8553125 48.05992187 24.265625 46.99609375 C23.72421875 46.00996094 23.1828125 45.02382813 22.625 44.0078125 C22.12226563 43.09660645 21.61953125 42.18540039 21.1015625 41.24658203 C20 39 20 39 20 37 C18.02 37 16.04 37 14 37 C14 44.92 14 52.84 14 61 C9.71 61 5.42 61 1 61 C0.06578983 47.44500007 -0.12320325 33.95878336 -0.0625 20.375 C-0.0574676 18.38541781 -0.05290782 16.39583437 -0.04882812 14.40625 C-0.03797724 9.60413482 -0.0208118 4.80208191 0 0 Z M14 13 C14 16.96 14 20.92 14 25 C16.24893954 25.10823773 18.49937575 25.18569645 20.75 25.25 C22.62945312 25.31960938 22.62945312 25.31960938 24.546875 25.390625 C28.04102705 25.28749943 28.04102705 25.28749943 30.45703125 23.1796875 C32.30988406 21.01981363 32.30988406 21.01981363 31.9375 17.875 C31.23305313 14.70825068 31.23305313 14.70825068 28 13 C24.56692835 12.75729175 24.56692835 12.75729175 20.8125 12.875 C19.54019531 12.89304687 18.26789063 12.91109375 16.95703125 12.9296875 C15.98121094 12.95289063 15.00539063 12.97609375 14 13 Z " fill="#2F3135" transform="translate(453,308)"/>
<path d="M0 0 C23.43 0 46.86 0 71 0 C71.99 1.98 72.98 3.96 74 6 C76.31622777 3.89459074 76.31622777 3.89459074 78 0 C101.43 0 124.86 0 149 0 C149 4.62 149 9.24 149 14 C99.83 14 50.66 14 0 14 C0 9.38 0 4.76 0 0 Z " fill="#1E6FC1" transform="translate(505,123)"/>
<path d="M0 0 C4.62 0 9.24 0 14 0 C14 7.59 14 15.18 14 23 C21.92 23 29.84 23 38 23 C38 15.41 38 7.82 38 0 C42.62 0 47.24 0 52 0 C52 20.13 52 40.26 52 61 C47.38 61 42.76 61 38 61 C38 52.42 38 43.84 38 35 C30.08 35 22.16 35 14 35 C14 43.58 14 52.16 14 61 C9.38 61 4.76 61 0 61 C0 40.87 0 20.74 0 0 Z " fill="#2F3135" transform="translate(235,308)"/>
<path d="M0 0 C13.53 0 27.06 0 41 0 C41 4.62 41 9.24 41 14 C32.09 14 23.18 14 14 14 C14 17.3 14 20.6 14 24 C22.58 24 31.16 24 40 24 C40 28.29 40 32.58 40 37 C31.42 37 22.84 37 14 37 C14 40.63 14 44.26 14 48 C23.57 48 33.14 48 43 48 C43 52.29 43 56.58 43 61 C28.81 61 14.62 61 0 61 C0 40.87 0 20.74 0 0 Z " fill="#2F3135" transform="translate(728,308)"/>
<path d="M0 0 C13.53 0 27.06 0 41 0 C41 4.62 41 9.24 41 14 C32.09 14 23.18 14 14 14 C14 17.3 14 20.6 14 24 C22.58 24 31.16 24 40 24 C40 28.29 40 32.58 40 37 C31.42 37 22.84 37 14 37 C14 40.63 14 44.26 14 48 C23.57 48 33.14 48 43 48 C43 52.29 43 56.58 43 61 C29.14 61 15.28 61 1 61 C-0.14927198 41.46237627 -0.14927198 41.46237627 -0.09765625 32.71484375 C-0.0962413 31.76227188 -0.09482635 30.80970001 -0.09336853 29.82826233 C-0.08788952 26.86463916 -0.07536305 23.90109928 -0.0625 20.9375 C-0.05746926 18.8951834 -0.05290917 16.85286559 -0.04882812 14.81054688 C-0.03882224 9.87364211 -0.0192264 4.93691127 0 0 Z " fill="#2F3135" transform="translate(402,308)"/>
<path d="M0 0 C13.53 0 27.06 0 41 0 C41 4.62 41 9.24 41 14 C32.09 14 23.18 14 14 14 C14 17.3 14 20.6 14 24 C22.25 24 30.5 24 39 24 C39 28.29 39 32.58 39 37 C30.75 37 22.5 37 14 37 C14 40.63 14 44.26 14 48 C23.24 48 32.48 48 42 48 C42 52.29 42 56.58 42 61 C28.14 61 14.28 61 0 61 C0 40.87 0 20.74 0 0 Z " fill="#2F3135" transform="translate(551,308)"/>
<path d="M0 0 C44.22 0 88.44 0 134 0 C138 8 138 8 138 14 C92.46 14 46.92 14 0 14 C0 9.38 0 4.76 0 0 Z " fill="#1E6FC1" transform="translate(333,76)"/>
<path d="M0 0 C45.54 0 91.08 0 138 0 C136.77210323 9.82317416 136.77210323 9.82317416 134 13 C131.53812885 13.61523914 131.53812885 13.61523914 128.55207825 13.60127258 C127.42045761 13.6081459 126.28883698 13.61501923 125.1229248 13.62210083 C123.88071167 13.60412445 122.63849854 13.58614807 121.35864258 13.56762695 C120.05122604 13.56835709 118.74380951 13.56908722 117.39677429 13.56983948 C113.80994691 13.57127586 110.22395318 13.54185174 106.6373198 13.50696969 C102.88974103 13.47574231 99.14214376 13.47277834 95.39445496 13.46684265 C88.2970104 13.45129344 81.19995029 13.4102508 74.10267514 13.3600952 C66.02300712 13.30423493 57.94332087 13.27672366 49.86350787 13.25161803 C33.24210707 13.19933552 16.62111772 13.11036732 0 13 C0 8.71 0 4.42 0 0 Z " fill="#1E70C0" transform="translate(333,194)"/>
<path d="M0 0 C4.12493872 -0.05875981 8.24976768 -0.09384938 12.375 -0.125 C13.53128906 -0.14175781 14.68757813 -0.15851563 15.87890625 -0.17578125 C34.6413391 -0.2817837 34.6413391 -0.2817837 42 6 C45.9256594 11.27933506 46.43799339 16.53959746 46 23 C44.63751857 29.0618877 42.31217641 32.52665389 37 36 C31.69754886 37.87835907 27.09515307 38.25556068 21.5625 38.125 C19.066875 38.08375 16.57125 38.0425 14 38 C14 45.59 14 53.18 14 61 C9.71 61 5.42 61 1 61 C0.19837988 53.29168751 -0.13621372 45.73457122 -0.09765625 37.98828125 C-0.0962413 36.89404343 -0.09482635 35.7998056 -0.09336853 34.67240906 C-0.08782531 31.21907678 -0.07528379 27.76581228 -0.0625 24.3125 C-0.05747765 21.95377699 -0.05291604 19.59505294 -0.04882812 17.23632812 C-0.03787456 11.49086277 -0.02119413 5.74543623 0 0 Z M14 13 C14 17.29 14 21.58 14 26 C22.58288216 26.65449475 22.58288216 26.65449475 30 23 C31.31534788 21.89350443 31.31534788 21.89350443 31.3125 19.125 C31.32181323 15.99477324 31.32181323 15.99477324 29.40234375 14.31640625 C26.20909588 12.56661026 23.86792922 12.70396212 20.25 12.8125 C18.1875 12.874375 16.125 12.93625 14 13 Z " fill="#2F3135" transform="translate(350,308)"/>
<path d="M0 0 C13.2221887 -0.11616804 26.44425474 -0.20485456 39.66685104 -0.25906086 C45.80754453 -0.28508539 51.94788725 -0.32035319 58.08837891 -0.37719727 C64.02119617 -0.43177127 69.95367735 -0.4614742 75.88672638 -0.47438622 C78.14322444 -0.48358057 80.3997054 -0.50153453 82.65605927 -0.52865028 C105.38509613 -0.79077991 105.38509613 -0.79077991 115 5 C116.38115997 5.82566719 116.38115997 5.82566719 117.79022217 6.66801453 C119.97722352 8.01899702 122.05169612 9.32229389 124 11 C124 11.66 124 12.32 124 13 C83.08 13 42.16 13 0 13 C0 8.71 0 4.42 0 0 Z " fill="#2171C1" transform="translate(333,53)"/>
<path d="M0 0 C-1.47810824 4.42440454 -4.81630401 6.00611437 -8.6875 8.125 C-9.28755859 8.47175781 -9.88761719 8.81851563 -10.50585938 9.17578125 C-18.0002894 13.37781398 -24.58036339 14.29342779 -33.06616211 14.22705078 C-34.54536133 14.22748886 -34.54536133 14.22748886 -36.05444336 14.22793579 C-39.29550143 14.22654878 -42.53632611 14.21101709 -45.77734375 14.1953125 C-48.03178278 14.19158014 -50.28622344 14.18873422 -52.54066467 14.18673706 C-58.4606274 14.17911819 -64.38049125 14.15948465 -70.30041504 14.1373291 C-76.34674746 14.11683306 -82.39309594 14.10772731 -88.43945312 14.09765625 C-100.29301208 14.07623715 -112.1464978 14.04212227 -124 14 C-124 9.71 -124 5.42 -124 1 C-108.12771749 0.86952018 -92.25543427 0.73912678 -76.3831501 0.60884857 C-69.01373382 0.54835891 -61.64431779 0.48783847 -54.27490234 0.42724609 C-47.85333457 0.37444713 -41.43176633 0.32170538 -35.01019752 0.26903296 C-31.60858557 0.24112948 -28.20697385 0.21319693 -24.8053627 0.18519592 C-21.01233226 0.15398724 -17.219301 0.12287967 -13.42626953 0.09179688 C-12.29266998 0.08244614 -11.15907043 0.0730954 -9.99111938 0.0634613 C-8.4472052 0.05084007 -8.4472052 0.05084007 -6.87210083 0.03796387 C-5.97427446 0.03058952 -5.0764481 0.02321518 -4.15141487 0.01561737 C-2.76763658 0.00557236 -1.38381475 0 0 0 Z " fill="#2473C2" transform="translate(457,217)"/>
<path d="M0 0 C35.31 0 70.62 0 107 0 C104.55428185 6.11429538 101.59783562 10.43952854 96 14 C92.86993309 14.56640626 89.79306262 14.50597635 86.61987305 14.45410156 C85.68280014 14.45468567 84.74572723 14.45526978 83.78025818 14.45587158 C80.69036507 14.45309023 77.60144284 14.4219953 74.51171875 14.390625 C72.36652656 14.38316281 70.22132755 14.37746977 68.0761261 14.37347412 C62.43546665 14.35821619 56.7952205 14.31893258 51.15472412 14.2746582 C45.39682608 14.23370919 39.63886112 14.21546387 33.88085938 14.1953125 C22.5870582 14.15243883 11.29356349 14.08418523 0 14 C0 9.38 0 4.76 0 0 Z " fill="#1E6FC1" transform="translate(358,123)"/>
<path d="M0 0 C5.655053 -1.13366244 11.50478901 -2.23656558 17 0 C22.17543359 5.0319695 25.4851339 12.30088127 28 19 C28 19.66 28 20.32 28 21 C28.66 21 29.32 21 30 21 C30.23589844 20.33484375 30.47179687 19.6696875 30.71484375 18.984375 C32.34768657 15.19260625 34.41608617 11.76971178 36.5625 8.25 C36.97435547 7.56550781 37.38621094 6.88101562 37.81054688 6.17578125 C40.85226739 1.14773261 40.85226739 1.14773261 42 0 C44.69654854 -0.07319621 47.36691458 -0.09242537 50.0625 -0.0625 C50.82111328 -0.05798828 51.57972656 -0.05347656 52.36132812 -0.04882812 C54.24091871 -0.0370068 56.12046899 -0.01907078 58 0 C56.26536583 5.19338959 53.24739391 9.55079597 50.3125 14.125 C49.77520264 14.98536865 49.23790527 15.8457373 48.68432617 16.73217773 C46.48410895 20.23801836 44.33899321 23.59286458 41.6875 26.77734375 C37.95151372 31.33057703 36.64691433 35.61962787 36.359375 41.4453125 C36.29903076 42.62859131 36.23868652 43.81187012 36.17651367 45.03100586 C36.01042538 50.35756776 35.97250974 55.67081582 36 61 C31.38 61 26.76 61 22 61 C22.05542969 59.32035156 22.11085938 57.64070313 22.16796875 55.91015625 C22.33663617 41.04758011 20.83887532 31.63163724 11.53710938 19.99853516 C8.86444871 16.52356689 6.60987679 12.79139332 4.3125 9.0625 C3.66196655 8.040354 3.66196655 8.040354 2.99829102 6.99755859 C0 2.24063695 0 2.24063695 0 0 Z " fill="#2F3135" transform="translate(290,308)"/>
<path d="M0 0 C12.50880748 -0.18557438 25.01728614 -0.32761609 37.52719116 -0.41449738 C43.33649405 -0.45620222 49.14485341 -0.51274577 54.95361328 -0.60351562 C60.56227858 -0.69060763 66.17003795 -0.73830951 71.77932739 -0.75901794 C73.91641499 -0.7737701 76.05345443 -0.80257909 78.19015503 -0.84584045 C94.92280441 -1.17106863 94.92280441 -1.17106863 100.06640625 1.72875977 C102.11310167 3.72762878 103.56745655 5.5361745 105 8 C105.99 9.485 105.99 9.485 107 11 C106.67 11.99 106.34 12.98 106 14 C53.53 13.505 53.53 13.505 0 13 C0 8.71 0 4.42 0 0 Z " fill="#1E6FC1" transform="translate(358,147)"/>
<path d="M0 0 C28.71 0 57.42 0 87 0 C87 4.62 87 9.24 87 14 C58.29 14 29.58 14 0 14 C0 9.38 0 4.76 0 0 Z " fill="#1E6FC1" transform="translate(235,76)"/>
<path d="M0 0 C4.62 0 9.24 0 14 0 C14 15.84 14 31.68 14 48 C21.92 48 29.84 48 38 48 C38 52.29 38 56.58 38 61 C25.46 61 12.92 61 0 61 C0 40.87 0 20.74 0 0 Z " fill="#2F3135" transform="translate(507,308)"/>
<path d="M0 0 C26.4 0 52.8 0 80 0 C84 12 84 12 84 14 C56.28 14 28.56 14 0 14 C0 9.38 0 4.76 0 0 Z " fill="#1E6FC1" transform="translate(480,76)"/>
<path d="M0 0 C29.04 0 58.08 0 88 0 C88 4.29 88 8.58 88 13 C58.96 13 29.92 13 0 13 C0 8.71 0 4.42 0 0 Z " fill="#2574C2" transform="translate(235,218)"/>
<path d="M0 0 C29.04 0 58.08 0 88 0 C88 4.29 88 8.58 88 13 C58.96 13 29.92 13 0 13 C0 8.71 0 4.42 0 0 Z " fill="#1E70C0" transform="translate(235,194)"/>
<path d="M0 0 C26.07 0 52.14 0 79 0 C79 4.62 79 9.24 79 14 C51.61 14 24.22 14 -4 14 C-3 7 -3 7 0 0 Z " fill="#1E6FC1" transform="translate(599,76)"/>
<path d="M0 0 C28.71 0 57.42 0 87 0 C87 4.29 87 8.58 87 13 C58.29 13 29.58 13 0 13 C0 8.71 0 4.42 0 0 Z " fill="#2272C2" transform="translate(235,53)"/>
<path d="M0 0 C23.43 0 46.86 0 71 0 C76 12 76 12 76 13 C50.92 13 25.84 13 0 13 C0 8.71 0 4.42 0 0 Z " fill="#2272C2" transform="translate(480,53)"/>
<path d="M0 0 C23.43 0 46.86 0 71 0 C71 4.29 71 8.58 71 13 C46.25 13 21.5 13 -4 13 C-1 3 -1 3 0 0 Z " fill="#2272C2" transform="translate(607,53)"/>
<path d="M0 0 C21.12 0 42.24 0 64 0 C64 4.29 64 8.58 64 13 C41.56 13 19.12 13 -4 13 C-3.01 10.03 -2.02 7.06 -1 4 C-0.67 2.68 -0.34 1.36 0 0 Z " fill="#1E6FC1" transform="translate(590,100)"/>
<path d="M0 0 C20.79 0 41.58 0 63 0 C67 10 67 10 67 13 C44.89 13 22.78 13 0 13 C0 8.71 0 4.42 0 0 Z " fill="#1F70C1" transform="translate(505,100)"/>
<path d="M0 0 C21.12 0 42.24 0 64 0 C64 4.29 64 8.58 64 13 C42.88 13 21.76 13 0 13 C0 8.71 0 4.42 0 0 Z " fill="#2574C2" transform="translate(615,218)"/>
<path d="M0 0 C21.12 0 42.24 0 64 0 C64 4.29 64 8.58 64 13 C42.88 13 21.76 13 0 13 C0 8.71 0 4.42 0 0 Z " fill="#1E70C0" transform="translate(615,194)"/>
<path d="M0 0 C20.79 0 41.58 0 63 0 C63 4.29 63 8.58 63 13 C42.21 13 21.42 13 0 13 C0 8.71 0 4.42 0 0 Z " fill="#2574C2" transform="translate(480,218)"/>
<path d="M0 0 C20.79 0 41.58 0 63 0 C63 4.29 63 8.58 63 13 C42.21 13 21.42 13 0 13 C0 8.71 0 4.42 0 0 Z " fill="#1E70C0" transform="translate(480,194)"/>
<path d="M0 0 C20.13 0 40.26 0 61 0 C60 5 60 5 57 13 C39.51 13 22.02 13 4 13 C0 3 0 3 0 0 Z " fill="#1E6FC1" transform="translate(549,147)"/>
<path d="M0 0 C14.85 0 29.7 0 45 0 C42 10 42 10 40 14 C28.45 14 16.9 14 5 14 C0 2 0 2 0 0 Z " fill="#1E6FC1" transform="translate(557,170)"/>
<path d="M0 0 C5.37514905 -0.04935509 10.75016685 -0.08569802 16.12548828 -0.10986328 C17.95493873 -0.11993484 19.78437303 -0.13359276 21.61376953 -0.15087891 C24.23994934 -0.17507677 26.86591675 -0.18647132 29.4921875 -0.1953125 C30.72350906 -0.21079636 30.72350906 -0.21079636 31.97970581 -0.22659302 C33.98789142 -0.22699184 35.99555382 -0.1224954 38 0 C42.1407317 4.1407317 41 7.96403386 41 14 C27.47 14 13.94 14 0 14 C0 9.38 0 4.76 0 0 Z " fill="#1E6FC1" transform="translate(431,170)"/>
<path d="M0 0 C12.87 0 25.74 0 39 0 C39 4.62 39 9.24 39 14 C26.13 14 13.26 14 0 14 C0 9.38 0 4.76 0 0 Z " fill="#1F6FC1" transform="translate(615,170)"/>
<path d="M0 0 C12.87 0 25.74 0 39 0 C39 4.62 39 9.24 39 14 C26.13 14 13.26 14 0 14 C0 9.38 0 4.76 0 0 Z " fill="#1F6FC1" transform="translate(259,170)"/>
<path d="M0 0 C12.87 0 25.74 0 39 0 C39 4.62 39 9.24 39 14 C26.13 14 13.26 14 0 14 C0 9.38 0 4.76 0 0 Z " fill="#1F70C1" transform="translate(259,123)"/>
<path d="M0 0 C12.54 0 25.08 0 38 0 C38 4.62 38 9.24 38 14 C25.46 14 12.92 14 0 14 C0 9.38 0 4.76 0 0 Z " fill="#1E6FC1" transform="translate(505,170)"/>
<path d="M0 0 C12.54 0 25.08 0 38 0 C38 4.62 38 9.24 38 14 C25.46 14 12.92 14 0 14 C0 9.38 0 4.76 0 0 Z " fill="#1E6FC1" transform="translate(358,170)"/>
<path d="M0 0 C13.53 0 27.06 0 41 0 C41 8 41 8 39 13 C26.13 13 13.26 13 0 13 C0 8.71 0 4.42 0 0 Z " fill="#1E6FC1" transform="translate(431,100)"/>
<path d="M0 0 C12.87 0 25.74 0 39 0 C39 4.29 39 8.58 39 13 C26.13 13 13.26 13 0 13 C0 8.71 0 4.42 0 0 Z " fill="#1F6FC1" transform="translate(615,147)"/>
<path d="M0 0 C12.87 0 25.74 0 39 0 C39 4.29 39 8.58 39 13 C26.13 13 13.26 13 0 13 C0 8.71 0 4.42 0 0 Z " fill="#1F70C1" transform="translate(259,147)"/>
<path d="M0 0 C12.87 0 25.74 0 39 0 C39 4.29 39 8.58 39 13 C26.13 13 13.26 13 0 13 C0 8.71 0 4.42 0 0 Z " fill="#1F70C1" transform="translate(259,100)"/>
<path d="M0 0 C12.54 0 25.08 0 38 0 C38 4.29 38 8.58 38 13 C25.46 13 12.92 13 0 13 C0 8.71 0 4.42 0 0 Z " fill="#1E70C1" transform="translate(505,147)"/>
<path d="M0 0 C12.54 0 25.08 0 38 0 C38 4.29 38 8.58 38 13 C25.46 13 12.92 13 0 13 C0 8.71 0 4.42 0 0 Z " fill="#1E70C1" transform="translate(358,100)"/>
<path d="M0 0 C3.25170591 3.08495176 5.17381342 5.69961709 5.90625 10.1796875 C5.98011942 17.28961937 5.41560246 21.10812016 0.4375 26.3125 C-4.41510307 29.42152708 -10.01843059 28.90703827 -15.5625 28.3125 C-20.44236993 26.0468461 -23.22955454 23.15784827 -25.5625 18.3125 C-26.37753266 13.20607088 -26.17747311 9.47882831 -23.75 4.875 C-17.48477431 -2.46426438 -9.07942625 -4.30078086 0 0 Z M-18.5625 4.3125 C-21.30497842 8.68332498 -22.16235176 12.42949831 -21.265625 17.44921875 C-19.95300649 20.92765781 -17.62831011 22.40359936 -14.5625 24.3125 C-10.63747403 25.64867905 -8.8682632 25.40578369 -4.875 24.1875 C-1.24520539 22.13289928 -0.02428851 21.18194017 1.4375 17.3125 C1.97650048 12.46149567 1.9367191 10.31093821 -0.25 5.9375 C-2.67913284 3.18010596 -4.03637967 2.19403008 -7.5625 1.3125 C-12.17561289 1.3125 -14.55261956 2.05238557 -18.5625 4.3125 Z " fill="#0567A7" transform="translate(706.5625,202.6875)"/>
<path d="M0 0 C8.91 0 17.82 0 27 0 C25 9 25 9 23 13 C16.73 13 10.46 13 4 13 C0 3.375 0 3.375 0 0 Z " fill="#1E6FC0" transform="translate(566,194)"/>
<path d="M0 0 C8 0 8 0 10.5 1.1875 C12 3 12 3 12.375 5.5 C12 8 12 8 10 11 C10.495 11.61875 10.99 12.2375 11.5 12.875 C13 15 13 15 13 17 C8.68607774 16.5206753 6.83430453 15.2542015 4 12 C4 13.65 4 15.3 4 17 C2.68 17 1.36 17 0 17 C0 11.39 0 5.78 0 0 Z M3 4 C3.33 4.99 3.66 5.98 4 7 C5.32 7 6.64 7 8 7 C8 6.01 8 5.02 8 4 C6.35 4 4.7 4 3 4 Z " fill="#0064A6" transform="translate(691,207)"/>
<path d="M0 0 C3.63 0 7.26 0 11 0 C9 9.57142857 9 9.57142857 7 14 C6.01 13.67 5.02 13.34 4 13 C2.83203125 10.56640625 2.83203125 10.56640625 1.8125 7.5625 C1.46832031 6.57378906 1.12414062 5.58507812 0.76953125 4.56640625 C0 2 0 2 0 0 Z " fill="#2070C2" transform="translate(574,217)"/>
</svg>
