<?xml version="1.0" encoding="UTF-8"?>
<svg version="1.1" xmlns="http://www.w3.org/2000/svg" width="1121" height="561">
<path d="M0 0 C2.85710708 3.82465331 5.62970797 7.6919815 8.3359375 11.625 C9.59104839 13.43366137 10.84625955 15.24225317 12.1015625 17.05078125 C12.74158203 17.97584473 13.38160156 18.9009082 14.04101562 19.85400391 C17.04107704 24.18395013 20.06338389 28.4982388 23.0859375 32.8125 C23.66633789 33.64177002 24.24673828 34.47104004 24.84472656 35.32543945 C29.54859696 42.04421788 34.2726642 48.74855052 39.0078125 55.4453125 C41.06422381 58.35374429 43.11566185 61.26560846 45.1640625 64.1796875 C45.69499512 64.93419189 46.22592773 65.68869629 46.77294922 66.46606445 C47.77553269 67.89101088 48.77723902 69.3165751 49.77783203 70.74291992 C52.70249542 74.8963517 55.71803851 78.95568052 58.84619141 82.95874023 C59.9609375 84.625 59.9609375 84.625 59.9609375 86.625 C61.0334375 86.5425 62.1059375 86.46 63.2109375 86.375 C66.9609375 86.625 66.9609375 86.625 69.3984375 88.1875 C71.56489778 91.56717804 71.52381752 93.68483987 70.9609375 97.625 C69.2109375 100 69.2109375 100 66.9609375 101.625 C66.33074707 101.67382324 65.70055664 101.72264648 65.05126953 101.77294922 C61.55841834 103.19668791 60.6947666 106.60733949 59.265625 109.8828125 C58.9205188 110.64140564 58.5754126 111.39999878 58.21984863 112.18157959 C57.07836473 114.69852048 55.95744829 117.22410408 54.8359375 119.75 C54.04272129 121.50737041 53.24793972 123.26403503 52.45166016 125.02001953 C50.78848652 128.69096592 49.13221524 132.36491426 47.48046875 136.04101562 C43.87077432 144.05984358 40.17654923 152.03951749 36.48297119 160.0199585 C35.37050166 162.42526762 34.26069167 164.83178362 33.15185547 167.23876953 C32.45025977 168.7607719 31.7486008 170.28274511 31.046875 171.8046875 C30.54231277 172.89966049 30.54231277 172.89966049 30.02755737 174.01675415 C28.27166862 177.81870217 26.49722846 181.61076538 24.69628906 185.39160156 C24.32815094 186.1660965 23.96001282 186.94059143 23.58071899 187.73855591 C22.87937825 189.2112071 22.17494771 190.68239226 21.46688843 192.15182495 C19.97400893 195.28730706 18.72576349 198.24054507 17.9609375 201.625 C17.3521727 201.66692978 16.7434079 201.70885956 16.11619568 201.75205994 C-3.86503368 203.14453567 -23.80820062 204.89067996 -43.75415039 206.71166992 C-48.16603419 207.1143509 -52.5783567 207.51199856 -56.99080563 207.90843296 C-60.42503378 208.21763691 -63.85899286 208.52974957 -67.2928791 208.84272575 C-68.92226891 208.9908195 -70.551748 209.13793449 -72.18131828 209.28402901 C-74.43618859 209.48654848 -76.6906578 209.69306846 -78.94506836 209.90063477 C-80.22264511 210.01673599 -81.50022186 210.13283722 -82.81651306 210.25245667 C-86.5000036 210.64623404 -86.5000036 210.64623404 -90.0390625 211.625 C-91.75617493 214.06996043 -91.75617493 214.06996043 -93.0390625 216.625 C-94.0390625 217.625 -94.0390625 217.625 -97.8515625 218 C-101.12059588 217.93532488 -101.87568679 217.74852798 -104.6015625 215.6875 C-106.18185241 212.3207954 -106.03297045 211.86507112 -105.28125 208.453125 C-104.65671044 203.57166072 -105.94290851 201.28539323 -108.86157227 197.45092773 C-109.43576904 196.74524658 -110.00996582 196.03956543 -110.6015625 195.3125 C-111.81185864 193.73587982 -113.02012066 192.15769648 -114.2265625 190.578125 C-114.85691406 189.76666016 -115.48726562 188.95519531 -116.13671875 188.11914062 C-119.2582443 184.02654502 -122.17327485 179.7943849 -125.1015625 175.5625 C-126.27665567 173.87712421 -127.45243191 172.19222446 -128.62890625 170.5078125 C-129.1997998 169.68958008 -129.77069336 168.87134766 -130.35888672 168.02832031 C-134.40448865 162.24149883 -138.48641774 156.48021144 -142.5625 150.71484375 C-144.07697788 148.5713367 -145.5895354 146.42648642 -147.1015625 144.28125 C-148.12235455 142.83330422 -149.14318755 141.38538732 -150.1640625 139.9375 C-150.65640381 139.23915039 -151.14874512 138.54080078 -151.65600586 137.82128906 C-154.08626045 134.37792486 -156.52479846 130.9409197 -158.98046875 127.515625 C-159.44372559 126.86940186 -159.90698242 126.22317871 -160.38427734 125.55737305 C-161.2569374 124.3417122 -162.13089086 123.12697841 -163.00634766 121.91333008 C-165.93053423 117.84205653 -165.93053423 117.84205653 -167.0390625 115.625 C-166.12319558 113.31680803 -165.14393125 111.13424674 -164.05859375 108.90625 C-163.73489807 108.22564011 -163.41120239 107.54503021 -163.07769775 106.84379578 C-162.37672239 105.37218632 -161.67213427 103.90229357 -160.96438599 102.43392944 C-159.84153188 100.10418809 -158.7279131 97.77024416 -157.61694336 95.43481445 C-156.4900873 93.06614513 -155.36274444 90.69772562 -154.2325592 88.3306427 C-150.66116221 80.85018384 -147.17053343 73.33400483 -143.72143555 65.79638672 C-141.07009628 60.00697584 -138.38731964 54.23565917 -135.65715027 48.48304749 C-134.04798546 45.08675294 -132.4515412 41.68455321 -130.85641479 38.28164673 C-130.06527844 36.6018766 -129.2685499 34.92472827 -128.46609497 33.25033569 C-127.34303931 30.90521487 -126.23992467 28.55164208 -125.140625 26.1953125 C-124.7965712 25.48922348 -124.4525174 24.78313446 -124.09803772 24.0556488 C-122.26997011 20.31995924 -122.26997011 20.31995924 -122.82177734 16.37060547 C-123.22348145 15.79455566 -123.62518555 15.21850586 -124.0390625 14.625 C-124.45613637 10.73231057 -124.61362441 8.52131658 -122.4765625 5.1875 C-119.09688446 3.02103972 -116.97922263 3.06211998 -113.0390625 3.625 C-112.4615625 4.285 -111.8840625 4.945 -111.2890625 5.625 C-107.49250706 8.99971595 -102.93214513 7.86206924 -98.0390625 7.625 C-91.26373131 7.17116021 -84.50362921 6.53274722 -77.7421875 5.91015625 C-75.77931055 5.732813 -73.81639891 5.55585322 -71.85345459 5.3792572 C-67.75830646 5.00982926 -63.66346831 4.63719133 -59.56884766 4.26196289 C-54.33182124 3.78210526 -49.0942816 3.30816124 -43.85652542 2.83634281 C-39.81056473 2.47159806 -35.76479003 2.10482577 -31.71907806 1.7373333 C-29.78788335 1.56194743 -27.85665505 1.3869309 -25.92539215 1.21229744 C-23.22645225 0.96771998 -20.52774904 0.72068113 -17.82910156 0.47290039 C-17.03933426 0.40168976 -16.24956696 0.33047913 -15.43586731 0.2571106 C-11.96102335 -0.06430652 -8.56585216 -0.45209174 -5.11712646 -1.01393127 C-2.0390625 -1.375 -2.0390625 -1.375 0 0 Z M-42.14453125 5.375 C-44.07933027 5.55480227 -46.01417093 5.73415698 -47.9490509 5.91308594 C-53.00787979 6.38210243 -58.06612491 6.85714363 -63.12426758 7.33349609 C-68.29929928 7.81976255 -73.47486689 8.30025393 -78.65039062 8.78125 C-88.78047683 9.72355584 -98.909955 10.67223539 -109.0390625 11.625 C-106.81149838 13.85256412 -105.56754343 14.24278474 -102.59277344 15.13720703 C-101.67131531 15.4173465 -100.74985718 15.69748596 -99.80047607 15.9861145 C-98.80155334 16.28202484 -97.80263062 16.57793518 -96.7734375 16.8828125 C-95.74728333 17.19072723 -94.72112915 17.49864197 -93.66387939 17.81588745 C-91.4892888 18.46627456 -89.31369912 19.11332899 -87.13720703 19.75732422 C-83.81339673 20.74278526 -80.49452349 21.74371625 -77.17578125 22.74609375 C-75.06278195 23.37594665 -72.94950915 24.00488288 -70.8359375 24.6328125 C-69.84511169 24.9327713 -68.85428589 25.2327301 -67.83343506 25.54177856 C-60.61916608 27.65674555 -55.71816856 28.8791338 -48.76252747 25.1869812 C-48.12804184 24.83394928 -47.49355621 24.48091736 -46.83984375 24.1171875 C-46.16414841 23.75408478 -45.48845306 23.39098206 -44.7922821 23.01687622 C-42.63887057 21.85615739 -40.49529333 20.67848445 -38.3515625 19.5 C-36.93095455 18.73063231 -35.50973517 17.96239248 -34.08789062 17.1953125 C-30.68850254 15.35781342 -27.29668187 13.50693089 -23.90826416 11.64929199 C-21.11452553 10.11836883 -18.31686057 8.59466207 -15.51953125 7.0703125 C-14.02598997 6.25530307 -12.53247739 5.44024101 -11.0390625 4.625 C-11.0390625 4.295 -11.0390625 3.965 -11.0390625 3.625 C-21.4692502 3.24739935 -31.77710567 4.3917601 -42.14453125 5.375 Z M-7.01831055 4.40673828 C-7.77152588 4.83196777 -8.52474121 5.25719727 -9.30078125 5.6953125 C-10.59218018 6.41315918 -10.59218018 6.41315918 -11.90966797 7.14550781 C-12.83924316 7.67499023 -13.76881836 8.20447266 -14.7265625 8.75 C-16.70145617 9.85221988 -18.67673123 10.9537566 -20.65234375 12.0546875 C-21.6882666 12.63573242 -22.72418945 13.21677734 -23.79150391 13.81542969 C-29.30420804 16.88716048 -34.86058066 19.87782985 -40.4140625 22.875 C-42.46365657 23.9841627 -44.51314602 25.09351876 -46.5625 26.203125 C-48.05466153 27.01046467 -49.54683826 27.81777625 -51.0390625 28.625 C-50.7090625 29.285 -50.3790625 29.945 -50.0390625 30.625 C-47.34847652 31.42545663 -44.70687523 32.1204659 -41.9765625 32.75 C-41.21794922 32.93175781 -40.45933594 33.11351562 -39.67773438 33.30078125 C-37.79992515 33.74956584 -35.91970335 34.18823336 -34.0390625 34.625 C-33.3790625 33.635 -32.7190625 32.645 -32.0390625 31.625 C-28.59839435 30.55456991 -26.65816089 30.41863387 -23.2265625 31.5625 C-22.5046875 32.243125 -21.7828125 32.92375 -21.0390625 33.625 C-21.0596875 34.83671875 -21.0803125 36.0484375 -21.1015625 37.296875 C-20.78207994 40.43390297 -20.28919763 41.40033921 -17.90551758 43.54125977 C-14.94920764 45.47575701 -11.94308831 47.22749392 -8.8515625 48.9375 C-7.80935547 49.54400391 -6.76714844 50.15050781 -5.69335938 50.77539062 C-0.88206051 53.55572798 3.97710236 56.16635696 8.9609375 58.625 C8.32609955 51.93747219 7.21405071 45.49730024 5.78125 38.9375 C5.46110428 37.46192627 5.46110428 37.46192627 5.13449097 35.95654297 C4.68488153 33.89542497 4.23262453 31.83488288 3.77783203 29.77490234 C3.08244584 26.60910394 2.40636533 23.43954006 1.73046875 20.26953125 C1.29024275 18.26276156 0.84887752 16.25624136 0.40625 14.25 C0.20613312 13.29907471 0.00601624 12.34814941 -0.20016479 11.3684082 C-0.49529465 10.06069458 -0.49529465 10.06069458 -0.79638672 8.7265625 C-0.9643576 7.95650879 -1.13232849 7.18645508 -1.3053894 6.39306641 C-1.54750153 5.80960449 -1.78961365 5.22614258 -2.0390625 4.625 C-4.8853383 3.31923115 -4.8853383 3.31923115 -7.01831055 4.40673828 Z M1.9609375 9.625 C2.61966861 15.592581 3.66773261 21.37302905 4.95703125 27.234375 C5.15063736 28.12360657 5.34424347 29.01283813 5.54371643 29.92901611 C5.95122567 31.79503721 6.36059067 33.66065393 6.77172852 35.52587891 C7.39934705 38.37913497 8.01734511 41.23436578 8.63476562 44.08984375 C9.03327362 45.90898144 9.43234261 47.72799635 9.83203125 49.546875 C10.01543564 50.39795837 10.19884003 51.24904175 10.38780212 52.12591553 C10.56461014 52.9206427 10.74141815 53.71536987 10.92358398 54.53417969 C11.07601059 55.2295282 11.22843719 55.92487671 11.38548279 56.64129639 C12.83806592 61.64863119 14.81525262 63.48652655 19.28125 66.1640625 C20.36728516 66.822854 21.45332031 67.48164551 22.57226562 68.16040039 C23.74331128 68.85723333 24.91453855 69.55376114 26.0859375 70.25 C27.27077295 70.96313089 28.45501651 71.6772461 29.63867188 72.39233398 C31.41055166 73.46268117 33.18279982 74.53233365 34.9574585 75.59806824 C38.39320429 77.66365553 41.79704313 79.77001581 45.171875 81.93359375 C45.91034668 82.40651855 46.64881836 82.87944336 47.40966797 83.36669922 C48.74825445 84.22860744 50.08340052 85.09588926 51.41455078 85.96923828 C52.89328583 86.91456517 54.42256277 87.78019028 55.9609375 88.625 C56.6209375 88.295 57.2809375 87.965 57.9609375 87.625 C57.23390625 86.59503906 56.506875 85.56507813 55.7578125 84.50390625 C43.359375 66.93945312 43.359375 66.93945312 30.9609375 49.375 C30.21783325 48.32227905 30.21783325 48.32227905 29.4597168 47.24829102 C28.46376023 45.83733902 27.46782907 44.42636909 26.47192383 43.01538086 C23.91027176 39.38612916 21.34812464 35.75722851 18.78515625 32.12890625 C18.26348877 31.39019287 17.74182129 30.65147949 17.2043457 29.89038086 C16.18113437 28.44170113 15.15754487 26.99328842 14.13354492 25.54516602 C10.77565797 20.79297357 7.4526738 16.01802559 4.16796875 11.21484375 C3.76964844 10.69019531 3.37132812 10.16554687 2.9609375 9.625 C2.6309375 9.625 2.3009375 9.625 1.9609375 9.625 Z M-110.0390625 14.625 C-111.0811184 17.2821466 -111.17012429 18.32034351 -110.02270508 20.98754883 C-109.49829834 21.84372803 -108.9738916 22.69990723 -108.43359375 23.58203125 C-107.57604492 25.00418945 -107.57604492 25.00418945 -106.70117188 26.45507812 C-106.09080078 27.43927734 -105.48042969 28.42347656 -104.8515625 29.4375 C-103.6703095 31.38135036 -102.48931414 33.32535732 -101.30859375 35.26953125 C-100.7460791 36.18686035 -100.18356445 37.10418945 -99.60400391 38.04931641 C-97.68513994 41.20750905 -95.84961775 44.40373916 -94.0390625 47.625 C-90.21952734 47.03281408 -87.3574011 45.91406891 -83.984375 44.04296875 C-83.03949219 43.52283203 -82.09460938 43.00269531 -81.12109375 42.46679688 C-80.14527344 41.92087891 -79.16945313 41.37496094 -78.1640625 40.8125 C-77.19597656 40.27818359 -76.22789063 39.74386719 -75.23046875 39.19335938 C-70.14235412 36.37932047 -65.07914507 33.52410042 -60.0390625 30.625 C-60.0390625 29.965 -60.0390625 29.305 -60.0390625 28.625 C-66.67593466 26.62543653 -73.31470048 24.6322609 -79.95483398 22.64355469 C-82.21439217 21.96599581 -84.47350966 21.28696551 -86.73217773 20.60644531 C-89.97525661 19.62960575 -93.21987369 18.65803594 -96.46484375 17.6875 C-97.47742752 17.38126709 -98.49001129 17.07503418 -99.53327942 16.75952148 C-100.47402817 16.47923096 -101.41477692 16.19894043 -102.3840332 15.91015625 C-103.21232132 15.66144775 -104.04060944 15.41273926 -104.89399719 15.15649414 C-107.15606505 14.50474866 -107.15606505 14.50474866 -110.0390625 14.625 Z M-118.0390625 18.625 C-129.90407171 41.67268563 -140.53817256 65.36798551 -151.20336914 88.98803711 C-151.50567947 89.65668289 -151.80798981 90.32532867 -152.11946106 91.01423645 C-152.93394596 92.81644183 -153.74682029 94.61937485 -154.55957031 96.42236328 C-155.57375745 98.61776045 -156.655497 100.78283226 -157.79199219 102.91748047 C-158.20352539 103.81096191 -158.61505859 104.70444336 -159.0390625 105.625 C-158.7090625 106.285 -158.3790625 106.945 -158.0390625 107.625 C-157.23984375 106.88636719 -156.440625 106.14773438 -155.6171875 105.38671875 C-150.10000132 100.28976051 -144.57844796 95.19783294 -139.0390625 90.125 C-134.67934159 86.131008 -130.32435292 82.13197818 -125.9765625 78.125 C-125.42806641 77.62033203 -124.87957031 77.11566406 -124.31445312 76.59570312 C-122.88481762 75.27700304 -121.46160837 73.95134492 -120.0390625 72.625 C-119.49509323 72.18137619 -118.95112396 71.73775238 -118.39067078 71.28068542 C-116.52965544 69.00098943 -116.67686134 67.52215629 -116.69848633 64.6027832 C-116.69871292 63.58195145 -116.69893951 62.56111969 -116.69917297 61.50935364 C-116.71465683 60.40927475 -116.73014069 59.30919586 -116.74609375 58.17578125 C-116.75246101 56.48415108 -116.75246101 56.48415108 -116.75895691 54.75834656 C-116.77576939 51.15115633 -116.81342722 47.54452178 -116.8515625 43.9375 C-116.86660597 41.49414868 -116.88029496 39.05078863 -116.89257812 36.60742188 C-116.92568134 30.61309118 -116.97590657 24.61908529 -117.0390625 18.625 C-117.3690625 18.625 -117.6990625 18.625 -118.0390625 18.625 Z M-116.0390625 18.625 C-116.0390625 35.125 -116.0390625 51.625 -116.0390625 68.625 C-110.70875568 64.08355064 -110.70875568 64.08355064 -105.51171875 59.4140625 C-104.66577148 58.63095703 -104.66577148 58.63095703 -103.80273438 57.83203125 C-103.24134766 57.30996094 -102.67996094 56.78789062 -102.1015625 56.25 C-101.51310547 55.70472656 -100.92464844 55.15945312 -100.31835938 54.59765625 C-98.89084994 53.27459873 -97.46479785 51.94996909 -96.0390625 50.625 C-97.28759363 46.54086618 -98.78894491 43.0336911 -100.97265625 39.3671875 C-101.53919922 38.41199219 -102.10574219 37.45679688 -102.68945312 36.47265625 C-103.27919922 35.49167969 -103.86894531 34.51070312 -104.4765625 33.5 C-105.06244141 32.51128906 -105.64832031 31.52257812 -106.25195312 30.50390625 C-109.82057124 24.34052653 -109.82057124 24.34052653 -114.0390625 18.625 C-114.6990625 18.625 -115.3590625 18.625 -116.0390625 18.625 Z M-62.1640625 34.23828125 C-62.8667627 34.60849899 -63.56946289 34.97871674 -64.29345703 35.3601532 C-65.78077142 36.14572678 -67.26690708 36.93353542 -68.75195312 37.72338867 C-71.02552407 38.93031313 -73.30541539 40.12463318 -75.5859375 41.31835938 C-77.02905056 42.08256954 -78.47177226 42.84751931 -79.9140625 43.61328125 C-80.93910889 44.14783684 -80.93910889 44.14783684 -81.98486328 44.69319153 C-85.22443607 46.43098873 -86.96163456 47.50885809 -89.0390625 50.625 C-84.84498769 52.2238483 -80.64583446 53.80828184 -76.44140625 55.37963867 C-75.01219314 55.91607993 -73.58443608 56.45641735 -72.15820312 57.00073242 C-70.10658153 57.78294887 -68.05011314 58.55095447 -65.9921875 59.31640625 C-65.35661926 59.56217911 -64.72105103 59.80795197 -64.06622314 60.06117249 C-60.71506759 61.29096956 -58.3924039 62.095839 -55.0390625 60.625 C-52.50332271 58.8578761 -52.50332271 58.8578761 -49.9140625 56.625 C-48.95628906 55.82191406 -47.99851563 55.01882812 -47.01171875 54.19140625 C-42.62480664 50.40401958 -38.30931294 46.54325582 -34.0390625 42.625 C-34.38658519 39.16573847 -34.38658519 39.16573847 -36.0390625 35.625 C-38.70654696 34.00836561 -41.51724196 33.37969042 -44.5390625 32.6875 C-45.32410156 32.48060547 -46.10914063 32.27371094 -46.91796875 32.06054688 C-53.66155988 30.3197056 -56.17263971 31.06054736 -62.1640625 34.23828125 Z M-25.0390625 44.625 C-24.64020263 47.88935316 -24.18213191 51.11782119 -23.62109375 54.359375 C-23.13204926 57.35660904 -23.05305513 60.10948462 -23.17578125 63.140625 C-23.10079423 68.41657748 -22.69723644 72.59457118 -19.0390625 76.625 C-9.73400895 82.03338632 5.03876743 88.625 15.9609375 88.625 C15.52162368 85.80305478 15.05523897 82.9927849 14.5390625 80.18359375 C13.9609375 76.625 13.9609375 76.625 13.7578125 73.09765625 C13.28945088 68.49040334 12.8251928 64.47116707 9.40087891 61.08007812 C5.30730693 57.8932498 0.83707057 55.37725485 -3.71289062 52.90527344 C-6.71674326 51.25201953 -9.62451988 49.46008382 -12.54394531 47.66333008 C-18.61320753 43.01789852 -18.61320753 43.01789852 -25.0390625 44.625 Z M-33.0390625 43.625 C-33.71710938 44.2540625 -34.39515625 44.883125 -35.09375 45.53125 C-40.63670661 50.62892755 -46.23207735 55.47288685 -52.23828125 60.03125 C-52.83253906 60.5571875 -53.42679687 61.083125 -54.0390625 61.625 C-54.0390625 62.285 -54.0390625 62.945 -54.0390625 63.625 C-49.82588839 65.22171127 -45.60841339 66.80624833 -41.38647461 68.37963867 C-39.9506538 68.91667169 -38.5160685 69.45702005 -37.08276367 70.00073242 C-35.02317503 70.78136571 -32.95944802 71.54999662 -30.89453125 72.31640625 C-30.25380173 72.56217911 -29.6130722 72.80795197 -28.95292664 73.06117249 C-25.06273698 74.50526038 -25.06273698 74.50526038 -21.0390625 73.625 C-21.84675918 69.33241475 -22.66102835 65.04110255 -23.4765625 60.75 C-23.82170898 58.91501953 -23.82170898 58.91501953 -24.17382812 57.04296875 C-24.39619141 55.87636719 -24.61855469 54.70976562 -24.84765625 53.5078125 C-25.05189209 52.42902832 -25.25612793 51.35024414 -25.46655273 50.23876953 C-25.91936448 47.65982766 -25.91936448 47.65982766 -27.0390625 45.625 C-29.01795211 44.89806096 -31.01860808 44.22683749 -33.0390625 43.625 Z M-92.0390625 52.625 C-90.0590625 63.515 -88.0790625 74.405 -86.0390625 85.625 C-81.91022238 85.625 -80.34296818 83.41023055 -77.5390625 80.6875 C-72.56196594 75.96632888 -67.43305245 71.62765034 -62.0234375 67.40234375 C-61.36859375 66.81582031 -60.71375 66.22929687 -60.0390625 65.625 C-60.0390625 64.965 -60.0390625 64.305 -60.0390625 63.625 C-64.27338978 62.05431142 -68.50924415 60.48784151 -72.74658203 58.92529297 C-74.18841834 58.39292764 -75.62982742 57.85940373 -77.07080078 57.32470703 C-79.1398423 56.55718234 -81.21037501 55.7938116 -83.28125 55.03125 C-83.92714081 54.79063843 -84.57303162 54.55002686 -85.23849487 54.30212402 C-88.55152447 53.03797847 -88.55152447 53.03797847 -92.0390625 52.625 Z M-98.140625 55.56640625 C-98.97335938 56.43136719 -99.80609375 57.29632813 -100.6640625 58.1875 C-104.45630713 62.06218473 -108.32052594 65.7337885 -112.4453125 69.25 C-113.68959295 70.32349686 -114.87703209 71.46296959 -116.0390625 72.625 C-116.21423997 75.34985728 -116.27055383 77.97159362 -116.234375 80.6953125 C-116.2315451 81.49154022 -116.22871521 82.28776794 -116.22579956 83.10812378 C-116.2145889 85.65556763 -116.18948312 88.20266211 -116.1640625 90.75 C-116.15403383 92.47525535 -116.14490778 94.20051619 -116.13671875 95.92578125 C-116.11464672 100.15898914 -116.08011117 104.3919353 -116.0390625 108.625 C-112.0270802 109.71796235 -112.0270802 109.71796235 -108.19970703 108.65625 C-107.69552246 108.1509375 -107.19133789 107.645625 -106.671875 107.125 C-106.09961182 106.57110596 -105.52734863 106.01721191 -104.93774414 105.4465332 C-104.3524292 104.84542725 -103.76711426 104.24432129 -103.1640625 103.625 C-101.93783533 102.40850351 -100.7099803 101.19364562 -99.48046875 99.98046875 C-98.89281738 99.39442871 -98.30516602 98.80838867 -97.69970703 98.20458984 C-95.64003176 96.24544562 -93.3969765 94.60946822 -91.1015625 92.9375 C-88.59558108 90.73553739 -88.59558108 90.73553739 -87.86865234 87.59301758 C-87.97387207 86.82626709 -88.0790918 86.0595166 -88.1875 85.26953125 C-88.30649658 84.38579834 -88.42549316 83.50206543 -88.5480957 82.59155273 C-89.46683844 77.04026331 -90.50341378 71.51842805 -91.6015625 66 C-91.83552734 64.80503906 -92.06949219 63.61007813 -92.31054688 62.37890625 C-92.88263148 59.46010725 -93.45888325 56.5421988 -94.0390625 53.625 C-96.27105741 53.39881214 -96.27105741 53.39881214 -98.140625 55.56640625 Z M13.9609375 64.625 C14.59798981 68.29741918 15.27404773 71.96158791 15.9609375 75.625 C16.19039062 76.883125 16.41984375 78.14125 16.65625 79.4375 C16.90117187 80.695625 17.14609375 81.95375 17.3984375 83.25 C17.62402344 84.43851563 17.84960938 85.62703125 18.08203125 86.8515625 C18.37207031 87.76679688 18.66210938 88.68203125 18.9609375 89.625 C22.84747479 90.92051243 26.65253183 90.99367402 30.7109375 91.1875 C31.97127808 91.25118774 31.97127808 91.25118774 33.25708008 91.31616211 C40.8299706 91.67193549 48.38099605 91.72697231 55.9609375 91.625 C53.33987603 88.85766399 50.79340092 86.71986656 47.5390625 84.7421875 C46.68538086 84.21906982 45.83169922 83.69595215 44.95214844 83.15698242 C43.59524902 82.33677612 43.59524902 82.33677612 42.2109375 81.5 C40.32527029 80.34806627 38.43985653 79.19571758 36.5546875 78.04296875 C35.61625 77.4711084 34.6778125 76.89924805 33.7109375 76.31005859 C29.00335382 73.42549338 24.33634966 70.47618355 19.67285156 67.52099609 C17.00629801 65.51378513 17.00629801 65.51378513 13.9609375 64.625 Z M-60.71875 67.08203125 C-61.44320312 67.85933594 -62.16765625 68.63664062 -62.9140625 69.4375 C-67.18414345 73.7674419 -71.6083676 77.54592404 -76.3984375 81.2890625 C-82.3106874 86.04919465 -82.3106874 86.04919465 -85.30020142 92.66412354 C-85.07726644 94.95100919 -84.65653081 97.09574592 -84.12890625 99.33203125 C-83.96741592 100.13863693 -83.8059256 100.94524261 -83.63954163 101.77629089 C-83.11814792 104.33818672 -82.54805693 106.8863662 -81.9765625 109.4375 C-81.6172545 111.17056602 -81.26110037 112.9042891 -80.90820312 114.63867188 C-79.5938746 122.34085286 -79.5938746 122.34085286 -77.0390625 129.625 C-72.41431574 131.74390354 -67.65087012 133.48050805 -62.87670898 135.23242188 C-61.28285464 135.82515216 -59.69506493 136.43446561 -58.11401367 137.06054688 C-49.41201999 140.92081555 -49.41201999 140.92081555 -40.33374023 140.78051758 C-38.23218087 139.2250928 -36.68878879 137.64550988 -35.0390625 135.625 C-34.18699219 134.88636719 -33.33492187 134.14773438 -32.45703125 133.38671875 C-31.35294922 132.35998047 -31.35294922 132.35998047 -30.2265625 131.3125 C-25.69940672 127.16495045 -20.99613872 123.29353046 -16.19140625 119.47265625 C-13.96771471 117.80511158 -13.96771471 117.80511158 -13.0390625 115.625 C-13.28861954 95.07211834 -13.28861954 95.07211834 -21.46166992 77.09985352 C-29.18215931 71.0465135 -39.65681179 69.35794395 -49.0390625 67.625 C-50.74346944 67.14778423 -52.44681665 66.66674437 -54.1484375 66.1796875 C-57.96690552 65.24036658 -57.96690552 65.24036658 -60.71875 67.08203125 Z M-137.49511719 92.45605469 C-142.61744646 97.24606863 -147.79884514 101.96405837 -153.0390625 106.625 C-153.90015625 107.39199219 -154.76125 108.15898437 -155.6484375 108.94921875 C-157.77695166 110.84306753 -159.90708175 112.73505571 -162.0390625 114.625 C-159.65262037 117.27425533 -157.13024683 118.84367951 -154.015625 120.55859375 C-153.00363037 121.11981934 -151.99163574 121.68104492 -150.94897461 122.25927734 C-149.32294312 123.15187256 -149.32294312 123.15187256 -147.6640625 124.0625 C-145.40710163 125.31298942 -143.15059941 126.56430696 -140.89453125 127.81640625 C-139.75419434 128.44820801 -138.61385742 129.08000977 -137.43896484 129.73095703 C-132.26234725 132.61478579 -127.11744711 135.55306745 -121.9765625 138.5 C-121.07309082 139.01747803 -120.16961914 139.53495605 -119.23876953 140.06811523 C-117.17164595 141.25278136 -115.10503412 142.43832646 -113.0390625 143.625 C-111.41120208 140.36927916 -112.72823394 137.06617488 -113.4140625 133.625 C-113.55328125 132.88765625 -113.6925 132.1503125 -113.8359375 131.390625 C-114.57627896 127.39344465 -114.57627896 127.39344465 -116.0390625 123.625 C-117.1940625 123.233125 -118.3490625 122.84125 -119.5390625 122.4375 C-123.0390625 120.625 -123.0390625 120.625 -124.1640625 117.1875 C-124.0390625 113.625 -124.0390625 113.625 -122.8515625 111.25 C-121.0390625 109.625 -121.0390625 109.625 -117.0390625 108.625 C-117.0390625 97.405 -117.0390625 86.185 -117.0390625 74.625 C-122.27058985 74.625 -133.49126754 88.70806762 -137.49511719 92.45605469 Z M-18.0390625 79.625 C-17.45417141 87.47164137 -16.07426944 95.05236434 -14.4765625 102.75 C-14.24259766 103.89726562 -14.00863281 105.04453125 -13.76757812 106.2265625 C-13.19582626 109.0269798 -12.6195746 111.82638797 -12.0390625 114.625 C-8.43947628 112.51983491 -5.46645598 110.34822001 -2.4140625 107.5 C2.17381865 103.2846686 6.93305044 99.34984147 11.80859375 95.47265625 C14.03228529 93.80511158 14.03228529 93.80511158 14.9609375 91.625 C10.58278408 89.91992791 6.20412286 88.21619508 1.82421875 86.515625 C-1.1389574 85.36498982 -4.10011728 84.20953597 -7.05859375 83.046875 C-8.20714844 82.59828125 -9.35570312 82.1496875 -10.5390625 81.6875 C-11.56 81.28660156 -12.5809375 80.88570313 -13.6328125 80.47265625 C-15.92826051 79.51424686 -15.92826051 79.51424686 -18.0390625 79.625 Z M-94.1015625 97.1875 C-98.52380878 101.31983266 -102.97922415 105.36761246 -107.6484375 109.22265625 C-109.30608483 110.68697224 -109.30608483 110.68697224 -110.0390625 113.625 C-109.59926728 116.25101133 -109.59926728 116.25101133 -108.0390625 118.625 C-105.29033105 120.13885568 -105.29033105 120.13885568 -101.9375 121.08203125 C-100.11992188 121.66694336 -100.11992188 121.66694336 -98.265625 122.26367188 C-96.98190101 122.65537479 -95.69804502 123.04664537 -94.4140625 123.4375 C-93.12182368 123.84650395 -91.830148 124.25729173 -90.5390625 124.66992188 C-87.37750318 125.67265524 -84.21131561 126.65673795 -81.0390625 127.625 C-81.58357889 119.40352571 -82.91618055 111.49617503 -84.6015625 103.4375 C-84.83552734 102.29474609 -85.06949219 101.15199219 -85.31054688 99.97460938 C-85.88139621 97.19026262 -86.45764485 94.40715551 -87.0390625 91.625 C-89.45651607 91.625 -92.31519889 95.509619 -94.1015625 97.1875 Z M19.9609375 92.625 C19.11660957 101.7507857 18.83331805 110.77569448 18.8984375 119.9375 C18.90294922 121.16662109 18.90746094 122.39574219 18.91210938 123.66210938 C18.92373461 126.64979356 18.94007191 129.63736855 18.9609375 132.625 C23.67159741 129.17844597 28.1792059 125.66615722 32.4609375 121.6875 C33.399375 120.82382812 34.3378125 119.96015625 35.3046875 119.0703125 C36.18125 118.26335937 37.0578125 117.45640625 37.9609375 116.625 C44.1235738 111.08322631 50.52365705 105.84345713 56.9609375 100.625 C56.4659375 97.655 56.4659375 97.655 55.9609375 94.625 C51.79851396 94.33756726 47.63591727 94.05282735 43.47314453 93.77050781 C42.05903228 93.67423058 40.64496864 93.57723644 39.23095703 93.47949219 C37.19055552 93.33857651 35.14998917 93.2002978 33.109375 93.0625 C31.88395996 92.97871094 30.65854492 92.89492188 29.39599609 92.80859375 C26.2422386 92.64003471 23.11830923 92.59118611 19.9609375 92.625 Z M10.5859375 99.5625 C5.6585112 104.14551229 0.6021064 108.45978369 -4.6640625 112.65234375 C-5.4478125 113.30332031 -6.2315625 113.95429688 -7.0390625 114.625 C-7.81378906 115.25019531 -8.58851563 115.87539063 -9.38671875 116.51953125 C-11.30427139 118.5294362 -11.30427139 118.5294362 -11.09765625 121.296875 C-10.89269531 122.31265625 -10.68773437 123.3284375 -10.4765625 124.375 C-10.26128906 125.50808594 -10.04601562 126.64117187 -9.82421875 127.80859375 C-9.56511719 129.06800781 -9.30601562 130.32742188 -9.0390625 131.625 C-8.76344597 133.0944034 -8.49141992 134.56448399 -8.22265625 136.03515625 C-7.51467901 139.90242337 -6.78244116 143.76438685 -6.0390625 147.625 C-1.05144698 148.95033454 -1.05144698 148.95033454 3.71386719 147.69238281 C5.36628192 146.29277428 6.85370844 144.8284777 8.3359375 143.25 C9.36330789 142.2200803 10.39189931 141.19137675 11.421875 140.1640625 C12.25976562 139.32617188 13.09765625 138.48828125 13.9609375 137.625 C14.9509375 137.13 14.9509375 137.13 15.9609375 136.625 C16.81214007 122.61055763 17.09182519 108.66421478 16.9609375 94.625 C14.67964223 94.625 12.24755024 98.00139633 10.5859375 99.5625 Z M38.1796875 118.80297852 C33.66830155 123.02991311 29.0097925 126.97298628 24.16796875 130.8203125 C23.43964844 131.41585937 22.71132812 132.01140625 21.9609375 132.625 C21.09082031 133.25728516 21.09082031 133.25728516 20.203125 133.90234375 C18.1939614 136.68863666 18.37424651 139.74230633 18.2734375 143.0625 C18.24000244 143.84858643 18.20656738 144.63467285 18.17211914 145.44458008 C17.64146726 160.48890554 17.88140605 175.57397892 17.9609375 190.625 C21.02440107 186.98050405 22.81939098 182.9317062 24.77734375 178.63671875 C25.14642349 177.8373439 25.51550323 177.03796906 25.89576721 176.21437073 C27.10961164 173.58251399 28.31667245 170.94760941 29.5234375 168.3125 C30.36468082 166.48321867 31.20632006 164.65411937 32.04833984 162.82519531 C33.35531103 159.98578836 34.66173236 157.14613681 35.96618652 154.30557251 C39.01709206 147.6636165 42.09388964 141.0341402 45.18359375 134.41015625 C46.4201383 131.75336199 47.65611585 129.09630491 48.89181519 126.43911743 C49.68496999 124.73599034 50.479819 123.03365118 51.27639771 121.3321228 C52.38720365 118.95808977 53.491218 116.58100935 54.59375 114.203125 C54.92202286 113.50594864 55.25029572 112.80877228 55.58851624 112.09046936 C57.18736396 108.62467387 58.4196578 105.41304513 58.9609375 101.625 C53.14869586 101.625 42.51028052 114.72346017 38.1796875 118.80297852 Z M-114.0390625 122.625 C-113.77944146 124.77221874 -113.50572252 126.91773403 -113.2265625 129.0625 C-113.07574219 130.25746094 -112.92492187 131.45242188 -112.76953125 132.68359375 C-112.53655713 133.99930122 -112.29242015 135.31306517 -112.0390625 136.625 C-111.92199951 137.36613037 -111.80493652 138.10726074 -111.68432617 138.87084961 C-110.81216869 142.68406891 -109.87193643 144.94203793 -106.80102539 147.46020508 C-103.91903227 149.22706936 -100.99505986 150.79093479 -97.9765625 152.3125 C-95.96421024 153.37771032 -93.95248624 154.44410838 -91.94140625 155.51171875 C-90.95897949 156.02138184 -89.97655273 156.53104492 -88.96435547 157.05615234 C-85.21472415 159.06709633 -81.60599908 161.27453598 -78.00219727 163.53442383 C-76.12195985 164.78687482 -76.12195985 164.78687482 -74.0390625 164.625 C-74.10182373 163.97088135 -74.16458496 163.3167627 -74.22924805 162.64282227 C-74.314729 161.73072998 -74.40020996 160.8186377 -74.48828125 159.87890625 C-74.58415527 158.87230957 -74.6800293 157.86571289 -74.77880859 156.82861328 C-74.94643606 154.76519152 -75.07004521 152.69748333 -75.13916016 150.62841797 C-75.4027372 143.2927919 -75.83244603 135.85010464 -80.0390625 129.625 C-88.00669583 124.03129386 -105.83695658 116.06331526 -114.0390625 122.625 Z M-14.0390625 120.625 C-14.93044922 121.44291016 -14.93044922 121.44291016 -15.83984375 122.27734375 C-21.30763613 127.25192936 -26.89039918 131.999653 -32.69140625 136.58203125 C-34.8499189 138.46040415 -36.43490497 140.26905907 -38.0390625 142.625 C-29.19055477 146.49725199 -20.22439601 149.67615659 -11.0390625 152.625 C-7.73906808 149.22268573 -7.73906808 149.22268573 -7.01220703 144.68652344 C-7.22989746 143.62981445 -7.44758789 142.57310547 -7.671875 141.484375 C-8.01605469 139.75574219 -8.01605469 139.75574219 -8.3671875 137.9921875 C-8.63015625 136.79851562 -8.893125 135.60484375 -9.1640625 134.375 C-9.40382812 133.16585937 -9.64359375 131.95671875 -9.890625 130.7109375 C-10.81861915 126.1305156 -10.81861915 126.1305156 -12.0390625 121.625 C-12.6990625 121.295 -13.3590625 120.965 -14.0390625 120.625 Z M-158.0390625 121.625 C-156.69442062 124.44341019 -155.18850514 127.00075912 -153.421875 129.57421875 C-152.90359131 130.33105957 -152.38530762 131.08790039 -151.85131836 131.86767578 C-151.29452393 132.67446777 -150.73772949 133.48125977 -150.1640625 134.3125 C-149.58470947 135.15538574 -149.00535645 135.99827148 -148.40844727 136.86669922 C-143.17415485 144.4650723 -137.86264652 152.00770751 -132.52294922 159.53222656 C-130.02233413 163.05892491 -127.53123214 166.59233129 -125.0390625 170.125 C-124.04821541 171.52867289 -123.05732992 172.93231867 -122.06640625 174.3359375 C-119.97472218 177.29909973 -117.88366889 180.26270597 -115.79296875 183.2265625 C-114.99149414 184.36254883 -114.99149414 184.36254883 -114.17382812 185.52148438 C-113.16064195 186.95756565 -112.14760927 188.39375525 -111.13476562 189.83007812 C-110.21749816 191.13007194 -109.29909044 192.42926215 -108.37939453 193.72753906 C-107.45341406 195.03841706 -106.53284714 196.35312989 -105.61669922 197.67089844 C-104.44835849 199.33947821 -103.24687251 200.98476419 -102.0390625 202.625 C-101.7090625 202.625 -101.3790625 202.625 -101.0390625 202.625 C-101.94719044 192.73774871 -103.32382656 182.97476599 -105.02587891 173.19384766 C-105.36725386 171.15241896 -105.68090638 169.10615565 -105.96630859 167.05615234 C-107.44535961 154.2844862 -107.44535961 154.2844862 -114.67041016 144.27563477 C-118.21911146 141.99129019 -121.95497361 140.24300301 -125.8338623 138.59527588 C-129.20239445 137.11314038 -132.32561766 135.25527685 -135.5 133.40234375 C-137.80346713 132.12020089 -140.10813599 130.8402144 -142.4140625 129.5625 C-143.61204843 128.89400432 -144.8099651 128.22538451 -146.0078125 127.55664062 C-147.13960937 126.92822266 -148.27140625 126.29980469 -149.4375 125.65234375 C-150.44474121 125.09281006 -151.45198242 124.53327637 -152.48974609 123.95678711 C-155.05143412 122.53255056 -155.05143412 122.53255056 -158.0390625 121.625 Z M-77.0390625 131.625 C-75.0590625 142.515 -73.0790625 153.405 -71.0390625 164.625 C-60.92505172 159.56799461 -52.00591344 150.59185094 -44.0390625 142.625 C-48.2543099 141.05222027 -52.47185229 139.48582208 -56.69165039 137.92529297 C-58.12687013 137.3935138 -59.56144689 136.8599959 -60.99536133 136.32470703 C-63.05643851 135.55563773 -65.11974642 134.79284904 -67.18359375 134.03125 C-68.14468803 133.67033264 -68.14468803 133.67033264 -69.12519836 133.30212402 C-71.92259191 132.27602595 -74.03070118 131.625 -77.0390625 131.625 Z M13.54296875 139.98046875 C12.95902344 140.58503906 12.37507813 141.18960938 11.7734375 141.8125 C9.47508766 144.19157701 7.25417355 146.14700054 4.5234375 148 C1.77943613 150.28839175 1.77943613 150.28839175 1.66015625 152.86328125 C1.67804365 155.29552004 1.67804365 155.29552004 1.9453125 157.63671875 C1.95304687 158.62091797 1.95304687 158.62091797 1.9609375 159.625 C-0.0390625 161.625 -0.0390625 161.625 -3.9140625 161.8125 C-6.11170305 161.79160988 -7.72537044 161.75672043 -9.76123047 160.90185547 C-13.26704518 160.4757468 -15.64775468 162.28294167 -18.5546875 164.02734375 C-19.4784317 164.56217125 -19.4784317 164.56217125 -20.4208374 165.10780334 C-22.38386474 166.24790756 -24.33634448 167.40484462 -26.2890625 168.5625 C-27.61913223 169.33902125 -28.94985458 170.11442582 -30.28125 170.88867188 C-33.54156499 172.78791243 -36.79252601 174.70230927 -40.0390625 176.625 C-38.62162054 179.45988393 -37.03678661 179.54294599 -34.07617188 180.59619141 C-32.48947693 181.16655624 -32.48947693 181.16655624 -30.87072754 181.7484436 C-29.71971558 182.15372284 -28.56870361 182.55900208 -27.3828125 182.9765625 C-26.21020874 183.39545746 -25.03760498 183.81435242 -23.82946777 184.24594116 C-21.34561085 185.13186721 -18.86098883 186.01506646 -16.37451172 186.89355469 C-13.18095751 188.02187122 -9.99018514 189.15780346 -6.80040741 190.29674721 C-3.76622414 191.37990581 -0.73082165 192.4596261 2.3046875 193.5390625 C3.45569946 193.9483902 4.60671143 194.3577179 5.79260254 194.77944946 C6.85039917 195.15338837 7.9081958 195.52732727 8.99804688 195.91259766 C9.93434937 196.24409821 10.87065186 196.57559875 11.83532715 196.91714478 C13.74567082 197.67765899 13.74567082 197.67765899 14.9609375 197.625 C15.68087815 177.94726045 16.11952225 158.31878582 15.9609375 138.625 C14.75447812 138.50983391 14.75447812 138.50983391 13.54296875 139.98046875 Z M-46.6015625 148.5625 C-51.0739056 152.76359152 -55.70019033 156.65898675 -60.49609375 160.484375 C-63.16569631 162.73159805 -65.60559089 165.12599504 -68.0390625 167.625 C-62.07301109 170.16551753 -56.08886345 172.66498911 -50.0390625 175 C-49.1728125 175.33773437 -48.3065625 175.67546875 -47.4140625 176.0234375 C-43.42107761 177.03481854 -40.58411607 175.52676594 -37.09765625 173.5859375 C-36.35370605 173.1736792 -35.60975586 172.7614209 -34.84326172 172.33666992 C-34.06225098 171.89556885 -33.28124023 171.45446777 -32.4765625 171 C-31.67750488 170.54923096 -30.87844727 170.09846191 -30.05517578 169.6340332 C-28.45544965 168.7262944 -26.85775213 167.81497026 -25.26220703 166.89990234 C-23.8861646 166.11078598 -22.50743673 165.32630794 -21.12451172 164.54931641 C-19.54295769 163.65696137 -17.9776498 162.73597464 -16.4140625 161.8125 C-15.55554688 161.31105469 -14.69703125 160.80960938 -13.8125 160.29296875 C-11.73985933 158.73275983 -11.73985933 158.73275983 -11.92822266 156.02075195 C-11.9647998 155.23015381 -12.00137695 154.43955566 -12.0390625 153.625 C-16.28554272 152.11490237 -20.53678268 150.61868057 -24.7890625 149.125 C-25.995625 148.69574219 -27.2021875 148.26648438 -28.4453125 147.82421875 C-29.60546875 147.41816406 -30.765625 147.01210938 -31.9609375 146.59375 C-33.02924805 146.21669922 -34.09755859 145.83964844 -35.19824219 145.45117188 C-40.71628379 143.84640625 -42.64690939 144.75117863 -46.6015625 148.5625 Z M-109.0390625 149.625 C-105.94437471 167.34333146 -102.65374219 185.00488938 -99.0390625 202.625 C-97.7190625 202.625 -96.3990625 202.625 -95.0390625 202.625 C-93.06164189 200.39223687 -93.06164189 200.39223687 -91.32421875 197.40234375 C-90.63779297 196.30599609 -89.95136719 195.20964844 -89.24414062 194.08007812 C-88.52939222 192.90789074 -87.81520349 191.73536192 -87.1015625 190.5625 C-85.70084768 188.29813366 -84.29326477 186.03809954 -82.88671875 183.77734375 C-81.89889404 182.17221924 -81.89889404 182.17221924 -80.89111328 180.53466797 C-79.33978905 178.09745704 -77.72131811 175.79981773 -75.97265625 173.50390625 C-75.01552734 172.07884766 -75.01552734 172.07884766 -74.0390625 170.625 C-75.34697372 166.70126635 -76.77687988 166.36863706 -80.359375 164.41015625 C-81.4525 163.80623047 -82.545625 163.20230469 -83.671875 162.58007812 C-84.82429688 161.95552734 -85.97671875 161.33097656 -87.1640625 160.6875 C-89.41671749 159.44931121 -91.66932297 158.21103234 -93.921875 156.97265625 C-94.98438477 156.39402832 -96.04689453 155.81540039 -97.14160156 155.21923828 C-99.52391941 153.90844156 -101.87581208 152.56275705 -104.21875 151.18359375 C-106.79375555 149.4637713 -106.79375555 149.4637713 -109.0390625 149.625 Z M-71.0390625 170.625 C-79.93802852 180.32548952 -86.5875932 193.20175619 -93.0390625 204.625 C-89.241104 203.94022523 -86.33834966 202.22833985 -83.015625 200.30859375 C-82.43299896 199.97384537 -81.85037292 199.63909698 -81.25009155 199.29420471 C-79.38542119 198.22151065 -77.52469101 197.14218661 -75.6640625 196.0625 C-74.45208327 195.36348069 -73.23984574 194.66490903 -72.02734375 193.96679688 C-69.60193691 192.56970294 -67.17795155 191.17018764 -64.75488281 189.76904297 C-58.86264314 186.36496485 -52.95014703 182.99620964 -47.0390625 179.625 C-48.38825475 176.9266155 -49.59022426 176.87726997 -52.40625 175.8984375 C-53.29183594 175.5890625 -54.17742187 175.2796875 -55.08984375 174.9609375 C-56.02183594 174.64382813 -56.95382813 174.32671875 -57.9140625 174 C-58.83832031 173.67515625 -59.76257813 173.3503125 -60.71484375 173.015625 C-65.76113456 171.20172943 -65.76113456 171.20172943 -71.0390625 170.625 Z M-50.51171875 182.38671875 C-51.56762207 183.00595215 -52.62352539 183.62518555 -53.71142578 184.26318359 C-55.38954346 185.27759521 -55.38954346 185.27759521 -57.1015625 186.3125 C-58.25954222 186.99941081 -59.41824061 187.68511146 -60.57763672 188.36962891 C-62.93042031 189.7622728 -65.27770028 191.16355624 -67.62060547 192.57275391 C-70.80474273 194.48432781 -73.99939943 196.37654983 -77.19921875 198.26171875 C-79.02139047 199.34020506 -80.84303791 200.41957789 -82.6640625 201.5 C-83.51621338 202.00490967 -84.36836426 202.50981934 -85.24633789 203.0300293 C-86.01582764 203.4919165 -86.78531738 203.95380371 -87.578125 204.4296875 C-88.58673584 205.03272705 -88.58673584 205.03272705 -89.61572266 205.64794922 C-90.0854248 205.97037598 -90.55512695 206.29280273 -91.0390625 206.625 C-91.0390625 206.955 -91.0390625 207.285 -91.0390625 207.625 C-79.15620909 206.9894505 -67.31025037 206.11431448 -55.45703125 205.06640625 C-54.61707422 204.99259169 -53.7771172 204.91877712 -52.91170692 204.84272575 C-48.4912615 204.45417173 -44.07108355 204.0627319 -39.65112305 203.66870117 C-35.10023993 203.26356646 -30.54854045 202.86847403 -25.99659252 202.4755106 C-22.4728375 202.1695276 -18.94975252 201.85631229 -15.42681313 201.54109001 C-13.74733486 201.39207362 -12.06761353 201.24577008 -10.38765526 201.10226631 C-8.05219575 200.90208897 -5.7178707 200.6916976 -3.38354492 200.47875977 C-2.35114182 200.39371941 -2.35114182 200.39371941 -1.29788208 200.30696106 C2.19426418 199.97703794 4.95124965 199.47389468 7.9609375 197.625 C1.21826834 195.21741746 -5.52630174 192.8152206 -12.2722168 190.41674805 C-14.56660313 189.60027797 -16.8605524 188.78257861 -19.15405273 187.96362305 C-22.45181822 186.78630863 -25.75113311 185.61343215 -29.05078125 184.44140625 C-30.07491623 184.07471329 -31.09905121 183.70802032 -32.15422058 183.33021545 C-33.11483902 182.9899382 -34.07545746 182.64966095 -35.06518555 182.29907227 C-35.90679733 181.9992897 -36.74840912 181.69950714 -37.61552429 181.39064026 C-43.10993484 179.65485499 -45.44941278 179.37199896 -50.51171875 182.38671875 Z " fill="#595959" transform="translate(168.0390625,171.375)"/>
<path d="M0 0 C0.78426361 -0.00570007 1.56852722 -0.01140015 2.3765564 -0.01727295 C4.04952642 -0.02675059 5.72251535 -0.03326783 7.39550781 -0.03710938 C9.90205219 -0.04665085 12.40771679 -0.07757363 14.9140625 -0.109375 C29.47083473 -0.20680734 42.8949863 0.85432138 55.3359375 9.203125 C56.33560547 9.86441406 56.33560547 9.86441406 57.35546875 10.5390625 C64.20096897 15.69928706 68.63028478 24.24772743 70.08984375 32.62890625 C71.43390632 46.68822743 70.16402273 58.79940391 61.3359375 70.203125 C50.93847847 80.78592198 37.26547549 85.20299065 22.7086792 85.39016724 C18.54227994 85.40427139 14.37708966 85.37019933 10.2109375 85.328125 C8.47396349 85.31807532 6.73698386 85.30895298 5 85.30078125 C0.778505 85.27892474 -3.44271557 85.24450451 -7.6640625 85.203125 C-8.29313462 63.34956094 -8.7680981 41.50411586 -8.7890625 19.640625 C-8.79156006 18.714776 -8.79405762 17.788927 -8.79663086 16.83502197 C-8.80244654 14.22721471 -8.80108148 11.61952688 -8.796875 9.01171875 C-8.79885895 8.231418 -8.8008429 7.45111725 -8.80288696 6.64717102 C-8.76998502 -0.82492461 -6.77395555 0.03802404 0 0 Z M11.3359375 18.203125 C11.3359375 34.373125 11.3359375 50.543125 11.3359375 67.203125 C28.81551773 67.64618212 28.81551773 67.64618212 43.3359375 60.203125 C48.10389845 55.43516405 50.43028774 49.52546169 50.7734375 42.828125 C50.52251293 36.7745697 48.71217379 31.00284895 44.7578125 26.34375 C34.9524473 17.42175104 24.09832954 18.203125 11.3359375 18.203125 Z " fill="#595959" transform="translate(803.6640625,230.796875)"/>
<path d="M0 0 C0.79736328 1.89770508 0.79736328 1.89770508 1 4 C0.01196289 5.64746094 0.01196289 5.64746094 -1.52734375 7.234375 C-2.07197266 7.80800781 -2.61660156 8.38164062 -3.17773438 8.97265625 C-3.75845703 9.55917969 -4.33917969 10.14570313 -4.9375 10.75 C-5.8027832 11.65298828 -5.8027832 11.65298828 -6.68554688 12.57421875 C-8.11258805 14.06022857 -9.55489405 15.53155166 -11 17 C-14.04456144 15.83143339 -16.85842786 14.55148259 -19.6875 12.9375 C-26.37746629 9.57994173 -33.63324628 9.24609061 -40.83203125 11.14453125 C-47.14538537 13.63574666 -51.83258995 18.03065029 -55 24 C-58.02644873 31.86876671 -58.02519303 40.02699183 -55.03515625 47.8984375 C-52.16201398 53.7314584 -48.07420581 57.66396443 -42.12890625 60.28125 C-33.02193733 63.35589639 -24.71208584 61.48483434 -16 58 C-15.67 54.04 -15.34 50.08 -15 46 C-19.95 46 -24.9 46 -30 46 C-30.19384179 43.18780295 -30.38036603 40.37545804 -30.5625 37.5625 C-30.64661133 36.35883789 -30.64661133 36.35883789 -30.73242188 35.13085938 C-30.8616295 33.08937889 -30.9351273 31.04453631 -31 29 C-29.08037094 27.08037094 -25.55967319 27.72368944 -22.9375 27.6484375 C-22.23101318 27.62528473 -21.52452637 27.60213196 -20.79663086 27.57827759 C-19.30036738 27.53058471 -17.80402362 27.48535719 -16.30761719 27.44238281 C-14.00946452 27.37527637 -11.71184077 27.29754223 -9.4140625 27.21875 C-7.9635614 27.17383733 -6.51304091 27.12954553 -5.0625 27.0859375 C-4.3708374 27.06203949 -3.6791748 27.03814148 -2.96655273 27.01351929 C-1.31160854 26.96971902 0.34460329 26.97949396 2 27 C4.16890476 29.16890476 3.28529688 34.16135752 3.3515625 37.1796875 C3.38629166 38.56524338 3.38629166 38.56524338 3.42172241 39.97879028 C3.46944148 41.93746286 3.51466564 43.89619754 3.55761719 45.85498047 C3.62456224 48.85538027 3.70236469 51.85536193 3.78125 54.85546875 C3.82617868 56.75519289 3.8704705 58.65493222 3.9140625 60.5546875 C3.93796051 61.45476532 3.96185852 62.35484314 3.98648071 63.28219604 C4.0117836 64.53832199 4.0117836 64.53832199 4.03759766 65.81982422 C4.05456696 66.55627167 4.07153625 67.29271912 4.08901978 68.05148315 C4 70 4 70 3 73 C0.375 74.31640625 0.375 74.31640625 -3 75.5625 C-4.6396875 76.18318359 -4.6396875 76.18318359 -6.3125 76.81640625 C-14.76304195 79.52881537 -22.4960869 80.36427668 -31.375 80.375 C-32.96441406 80.41173828 -32.96441406 80.41173828 -34.5859375 80.44921875 C-47.29394201 80.49593935 -57.31757346 75.92305989 -66.75 67.5625 C-76.75091174 56.17257274 -78.81980593 44.0561873 -78.17041016 29.15527344 C-77.28302881 17.93206067 -71.92335144 8.43733286 -63.71484375 0.90234375 C-46.29585187 -12.43805491 -17.86027276 -12.79308504 0 0 Z " fill="#595959" transform="translate(958,237)"/>
<path d="M0 0 C1.2607711 -0.0049926 1.2607711 -0.0049926 2.54701233 -0.01008606 C4.33512829 -0.01516338 6.12325379 -0.01749414 7.91137695 -0.01733398 C10.61751585 -0.01949716 13.32323148 -0.0375786 16.02929688 -0.05664062 C41.16318098 -0.14144754 41.16318098 -0.14144754 50.2578125 8.65234375 C55.94817991 15.08926083 56.17589186 21.23088443 55.96484375 29.49609375 C55.54635424 35.84093466 54.22317095 40.09338455 49.41015625 44.48046875 C46.42924675 46.90549769 43.17792154 48.50612747 39.72265625 50.16796875 C41.74024543 53.60738256 43.76173587 57.04448228 45.78515625 60.48046875 C46.37772217 61.4869043 46.97028809 62.49333984 47.58081055 63.53027344 C51.14267344 69.55826658 54.766329 75.51198111 58.6484375 81.33984375 C59.72265625 83.16796875 59.72265625 83.16796875 59.72265625 85.16796875 C55.99454757 85.40089156 52.26830633 85.54255999 48.53515625 85.66796875 C46.95250977 85.76851562 46.95250977 85.76851562 45.33789062 85.87109375 C37.77000089 86.0620815 37.77000089 86.0620815 35.08398438 83.76904297 C33.71172328 81.63741268 32.72660284 79.49623667 31.72265625 77.16796875 C30.72776452 75.24988616 29.72465301 73.33605234 28.71484375 71.42578125 C27.13597408 68.33167394 25.5674099 65.23277331 24.0078125 62.12890625 C23.49863281 61.13375 22.98945312 60.13859375 22.46484375 59.11328125 C22.00964355 58.21109863 21.55444336 57.30891602 21.08544922 56.37939453 C19.76761606 53.89653337 19.76761606 53.89653337 16.72265625 52.16796875 C15.07265625 52.16796875 13.42265625 52.16796875 11.72265625 52.16796875 C11.39265625 63.05796875 11.06265625 73.94796875 10.72265625 85.16796875 C7.60828125 85.18859375 4.49390625 85.20921875 1.28515625 85.23046875 C-0.18908813 85.24412476 -0.18908813 85.24412476 -1.69311523 85.25805664 C-2.46212158 85.2605542 -3.23112793 85.26305176 -4.0234375 85.265625 C-4.81419678 85.27086182 -5.60495605 85.27609863 -6.41967773 85.28149414 C-8.27734375 85.16796875 -8.27734375 85.16796875 -9.27734375 84.16796875 C-9.37773986 81.58696119 -9.41351644 79.03268978 -9.40673828 76.45117188 C-9.4084906 75.64308578 -9.41024292 74.83499969 -9.41204834 74.00242615 C-9.41646751 71.31800215 -9.41352864 68.63364347 -9.41015625 65.94921875 C-9.41082927 64.09216296 -9.41179928 62.23510725 -9.41305542 60.37805176 C-9.41453248 56.48070438 -9.41237757 52.58337988 -9.40771484 48.68603516 C-9.40201755 43.67862375 -9.40529651 38.67126594 -9.41128731 33.66385651 C-9.4148927 29.82757154 -9.41375444 25.99129938 -9.41115952 22.15501404 C-9.41049019 20.30814101 -9.41131888 18.46126683 -9.41363907 16.61439514 C-9.41616524 14.03782043 -9.41232552 11.46133374 -9.40673828 8.88476562 C-9.40876251 8.11382065 -9.41078674 7.34287567 -9.41287231 6.54856873 C-9.38177109 -1.1533725 -6.90438213 0.00940959 0 0 Z M10.72265625 17.16796875 C10.72265625 23.10796875 10.72265625 29.04796875 10.72265625 35.16796875 C13.21828125 35.22984375 15.71390625 35.29171875 18.28515625 35.35546875 C19.05674072 35.38278076 19.8283252 35.41009277 20.62329102 35.43823242 C25.72367723 35.49868048 29.21832611 34.60473751 33.72265625 32.16796875 C36.06434389 28.65543729 36.21889302 27.30327519 35.72265625 23.16796875 C33.57175174 19.8303583 32.51852826 18.43325942 28.72265625 17.16796875 C27.31440732 17.08774876 25.90268394 17.06030898 24.4921875 17.0703125 C23.40707886 17.07405884 23.40707886 17.07405884 22.30004883 17.07788086 C20.931427 17.09153687 20.931427 17.09153687 19.53515625 17.10546875 C16.62703125 17.12609375 13.71890625 17.14671875 10.72265625 17.16796875 Z " fill="#595959" transform="translate(593.27734375,231.83203125)"/>
<path d="M0 0 C5.79831185 -0.07467117 11.59633806 -0.12884674 17.39501953 -0.16479492 C19.36381919 -0.17979561 21.33258593 -0.20020283 23.30126953 -0.22631836 C26.14624198 -0.26308815 28.99076913 -0.27981387 31.8359375 -0.29296875 C32.70302338 -0.30845261 33.57010925 -0.32393646 34.46347046 -0.33988953 C43.09924675 -0.34221874 51.17257787 1.47303923 58 7 C64.12519075 13.8057675 65.06248095 19.96108933 65 29 C64.03099996 35.87800025 61.3990582 41.52151854 56 46 C53.67868047 47.30515957 51.53822462 48.13700363 49 49 C50.67434316 53.7177625 53.13568218 57.84454675 55.6875 62.125 C56.13013184 62.87402588 56.57276367 63.62305176 57.02880859 64.39477539 C60.16824118 69.68071696 63.42424049 74.87068553 66.8203125 79.99609375 C68 82 68 82 68 84 C64.27189132 84.23292281 60.54565008 84.37459124 56.8125 84.5 C55.22985352 84.60054687 55.22985352 84.60054687 53.61523438 84.703125 C46.04621255 84.89414132 46.04621255 84.89414132 43.36572266 82.60327148 C41.99591407 80.47138629 41.00887808 78.32491404 40 76 C38.98234532 74.06977362 37.9557422 72.14424766 36.921875 70.22265625 C35.86125557 68.17098772 34.80401433 66.11756961 33.75 64.0625 C32.6839433 61.990035 31.61632233 59.91837363 30.546875 57.84765625 C30.08120117 56.94023682 29.61552734 56.03281738 29.13574219 55.09790039 C28.16893227 53.0738691 28.16893227 53.0738691 27 52 C24.36 51.67 21.72 51.34 19 51 C19 62.22 19 73.44 19 85 C16.050625 85.020625 13.10125 85.04125 10.0625 85.0625 C8.66656616 85.07615601 8.66656616 85.07615601 7.24243164 85.09008789 C6.14983032 85.09383423 6.14983032 85.09383423 5.03515625 85.09765625 C4.2862915 85.10289307 3.53742676 85.10812988 2.76586914 85.11352539 C1 85 1 85 0 84 C-0.09509559 81.38311559 -0.12556 78.792711 -0.11352539 76.17553711 C-0.11367142 75.35609116 -0.11381744 74.5366452 -0.1139679 73.69236755 C-0.11326852 70.97066647 -0.10547501 68.24903295 -0.09765625 65.52734375 C-0.09579216 63.64547259 -0.09436821 61.76360094 -0.09336853 59.88172913 C-0.08954267 54.91851471 -0.07971181 49.95532936 -0.06866455 44.99212646 C-0.0584519 39.93160394 -0.05387122 34.87107673 -0.04882812 29.81054688 C-0.0380896 19.87368512 -0.02101236 9.93684497 0 0 Z M19 17 C18.92674832 19.86267567 18.90761795 22.700719 18.9375 25.5625 C18.94201172 26.36880859 18.94652344 27.17511719 18.95117188 28.00585938 C18.96299482 30.00393756 18.98093086 32.00197783 19 34 C22.06303578 34.08115993 25.12390815 34.14057409 28.1875 34.1875 C29.05181641 34.21263672 29.91613281 34.23777344 30.80664062 34.26367188 C35.67384642 34.31961677 39.1067842 34.28538171 43 31 C44.64651235 27.7069753 45.2135637 25.9183239 44.375 22.3125 C42.73170903 19.54878338 41.8284732 18.57429748 39 17 C35.77945319 16.46311679 32.5722689 16.3516409 29.3125 16.25 C28.43271484 16.20746094 27.55292969 16.16492188 26.64648438 16.12109375 C22.50566309 15.56346301 22.50566309 15.56346301 19 17 Z " fill="#595959" transform="translate(1049,230)"/>
<path d="M0 0 C6.27 0 12.54 0 19 0 C19.33 9.9 19.66 19.8 20 30 C31.22 30 42.44 30 54 30 C54 20.1 54 10.2 54 0 C60.6 0 67.2 0 74 0 C74 27.72 74 55.44 74 84 C67.73 84 61.46 84 55 84 C54.505 66.675 54.505 66.675 54 49 C43.11 49 32.22 49 21 49 C20.90912109 52.77244141 20.90912109 52.77244141 20.81640625 56.62109375 C20.75466297 59.04698842 20.69125622 61.47283426 20.62768555 63.89868164 C20.58427561 65.58939299 20.54260511 67.28014991 20.50268555 68.97094727 C20.44512906 71.39613606 20.38139351 73.82109415 20.31640625 76.24609375 C20.29133751 77.38672523 20.29133751 77.38672523 20.26576233 78.55039978 C20.11387171 83.88612829 20.11387171 83.88612829 19 85 C17.66956375 85.0983721 16.33406656 85.13078592 15 85.1328125 C14.195625 85.13410156 13.39125 85.13539063 12.5625 85.13671875 C11.716875 85.13285156 10.87125 85.12898438 10 85.125 C9.154375 85.12886719 8.30875 85.13273437 7.4375 85.13671875 C6.633125 85.13542969 5.82875 85.13414062 5 85.1328125 C4.2575 85.13168457 3.515 85.13055664 2.75 85.12939453 C1 85 1 85 0 84 C-0.09509559 81.38311559 -0.12556 78.792711 -0.11352539 76.17553711 C-0.11367142 75.35609116 -0.11381744 74.5366452 -0.1139679 73.69236755 C-0.11326852 70.97066647 -0.10547501 68.24903295 -0.09765625 65.52734375 C-0.09579216 63.64547259 -0.09436821 61.76360094 -0.09336853 59.88172913 C-0.08954267 54.91851471 -0.07971181 49.95532936 -0.06866455 44.99212646 C-0.0584519 39.93160394 -0.05387122 34.87107673 -0.04882812 29.81054688 C-0.03808959 19.87368306 -0.02049225 9.93684849 0 0 Z " fill="#595959" transform="translate(273,234)"/>
<path d="M0 0 C9.384375 -0.020625 18.76875 -0.04125 28.4375 -0.0625 C31.40419678 -0.071604 34.37089355 -0.08070801 37.42749023 -0.09008789 C39.76285761 -0.0930068 42.09822549 -0.09555542 44.43359375 -0.09765625 C45.65921021 -0.10277222 46.88482666 -0.10788818 48.14758301 -0.11315918 C49.30471802 -0.11328003 50.46185303 -0.11340088 51.65405273 -0.11352539 C52.664431 -0.115746 53.67480927 -0.11796661 54.71580505 -0.12025452 C57 0 57 0 58 1 C58.09981214 3.6773138 58.13879875 6.32304175 58.125 9 C58.13080078 10.12535156 58.13080078 10.12535156 58.13671875 11.2734375 C58.12661053 16.87338947 58.12661053 16.87338947 57 18 C54.1883662 18.08861992 51.40141745 18.11522355 48.58984375 18.09765625 C47.74780899 18.0962413 46.90577423 18.09482635 46.03822327 18.09336853 C43.33794665 18.08775263 40.63775172 18.07519748 37.9375 18.0625 C36.11132932 18.05748705 34.28515734 18.05292379 32.45898438 18.04882812 C27.97262458 18.03777804 23.48632616 18.02050279 19 18 C19.495 24.93 19.495 24.93 20 32 C31.88 32.33 43.76 32.66 56 33 C56 38.94 56 44.88 56 51 C44.12 51.33 32.24 51.66 20 52 C20 56.62 20 61.24 20 66 C39.8 66.495 39.8 66.495 60 67 C60 72.94 60 78.88 60 85 C40.2 85 20.4 85 0 85 C0 56.95 0 28.9 0 0 Z " fill="#595959" transform="translate(976,230)"/>
<path d="M0 0 C4.24918293 4.24918293 1 11.99074787 1 18 C-11.87 18.33 -24.74 18.66 -38 19 C-38 23.62 -38 28.24 -38 33 C-36.37203491 32.99214478 -36.37203491 32.99214478 -34.71118164 32.98413086 C-30.69882018 32.96608164 -26.68646233 32.95456829 -22.67407227 32.94506836 C-20.93480832 32.94002796 -19.19554864 32.9331957 -17.45629883 32.92456055 C-14.96174063 32.91248208 -12.46723827 32.90676892 -9.97265625 32.90234375 C-9.19036148 32.89718246 -8.40806671 32.89202118 -7.60206604 32.88670349 C-5.73432886 32.88650774 -3.86670796 32.93800306 -2 33 C2.24918293 37.24918293 -1 44.99074787 -1 51 C-12.88 51.33 -24.76 51.66 -37 52 C-37.33 56.95 -37.66 61.9 -38 67 C-24.47 67 -10.94 67 3 67 C3 72.94 3 78.88 3 85 C-16.8 85 -36.6 85 -57 85 C-57 57.28 -57 29.56 -57 1 C-17 0 -17 0 0 0 Z " fill="#595959" transform="translate(780,231)"/>
<path d="M0 0 C19.14 0 38.28 0 58 0 C58 5.61 58 11.22 58 17 C49.38058942 17.83181242 40.90603948 18.12614735 32.25 18.0625 C31.0640625 18.05798828 29.878125 18.05347656 28.65625 18.04882812 C25.77081089 18.03719329 22.88539826 18.01926453 20 18 C20 22.62 20 27.24 20 32 C31.88 32 43.76 32 56 32 C56 37.94 56 43.88 56 50 C38.675 50.495 38.675 50.495 21 51 C21 55.95 21 60.9 21 66 C22.76428345 65.99214478 22.76428345 65.99214478 24.56420898 65.98413086 C28.91202031 65.96608337 33.2598283 65.95456892 37.60766602 65.94506836 C39.4924373 65.94002756 41.37720465 65.93319502 43.26196289 65.92456055 C45.96501636 65.91248383 48.66801831 65.90676932 51.37109375 65.90234375 C52.21900986 65.89718246 53.06692596 65.89202118 53.9405365 65.88670349 C55.96071068 65.88650805 57.98077934 65.93793789 60 66 C64.24918293 70.24918293 61 77.99074787 61 84 C41.2 84 21.4 84 1 84 C0.835 74.409375 0.67 64.81875 0.5 54.9375 C0.44779297 51.96226318 0.39558594 48.98702637 0.34179688 45.92163086 C0.30062801 43.4777044 0.25960358 41.0337755 0.21875 38.58984375 C0.1971582 37.39041138 0.17556641 36.190979 0.15332031 34.9552002 C-0.03819337 23.29908459 0 11.6637287 0 0 Z " fill="#595959" transform="translate(511,233)"/>
<path d="M0 0 C0.86508179 -0.0033284 1.73016357 -0.0066568 2.62145996 -0.01008606 C4.4608507 -0.01516285 6.3002507 -0.01749415 8.13964844 -0.01733398 C10.92919628 -0.01950053 13.71833578 -0.03759223 16.5078125 -0.05664062 C18.29687365 -0.05957854 20.08593668 -0.06156067 21.875 -0.0625 C23.11304382 -0.07327827 23.11304382 -0.07327827 24.37609863 -0.08427429 C34.01829126 -0.04704928 42.08709483 1.65909445 49.46875 8.16796875 C55.36915303 15.84011815 55.30896531 24.93029426 54.46875 34.16796875 C52.92901993 40.9205199 49.24474476 45.44397213 43.46875 49.16796875 C33.55949817 53.69175763 21.06722756 52.24647599 10.46875 52.16796875 C10.46875 63.05796875 10.46875 73.94796875 10.46875 85.16796875 C4.19875 85.16796875 -2.07125 85.16796875 -8.53125 85.16796875 C-9.15123079 63.31364581 -9.63528506 41.46952068 -9.65625 19.60546875 C-9.65874756 18.67961975 -9.66124512 17.75377075 -9.66381836 16.79986572 C-9.66963404 14.19205846 -9.66826898 11.58437063 -9.6640625 8.9765625 C-9.66604645 8.19626175 -9.6680304 7.415961 -9.67007446 6.61201477 C-9.63549391 -1.24129651 -7.02657401 0.00929152 0 0 Z M10.46875 17.16796875 C10.46875 23.10796875 10.46875 29.04796875 10.46875 35.16796875 C14.7690625 35.29171875 14.7690625 35.29171875 19.15625 35.41796875 C20.49755981 35.47259277 20.49755981 35.47259277 21.8659668 35.52832031 C25.91567845 35.58463569 27.96978852 35.48038448 31.48828125 33.27734375 C33.83386113 30.77909299 34.3909427 29.75152347 34.84375 26.35546875 C34.34636245 22.12767461 32.67493923 20.83979311 29.46875 18.16796875 C26.16303083 16.51510916 22.473372 17.06745695 18.84375 17.10546875 C14.698125 17.13640625 14.698125 17.13640625 10.46875 17.16796875 Z " fill="#595959" transform="translate(446.53125,232.83203125)"/>
<path d="M0 0 C0.86238281 -0.04382813 1.72476562 -0.08765625 2.61328125 -0.1328125 C3.37769531 -0.18179688 4.14210938 -0.23078125 4.9296875 -0.28125 C8.84487965 0.68493001 10.65895791 4.61258755 12.69824219 7.8894043 C13.22192383 8.81406494 13.74560547 9.73872559 14.28515625 10.69140625 C14.85878906 11.70396484 15.43242187 12.71652344 16.0234375 13.75976562 C16.90322266 15.32887695 16.90322266 15.32887695 17.80078125 16.9296875 C18.40277344 17.98736328 19.00476563 19.04503906 19.625 20.13476562 C24.05078125 27.9877675 24.05078125 27.9877675 24.05078125 30.2421875 C26.65949626 27.87362758 28.29257868 25.35844576 30.046875 22.3125 C30.88508789 20.87197266 30.88508789 20.87197266 31.74023438 19.40234375 C32.31708984 18.40074219 32.89394531 17.39914063 33.48828125 16.3671875 C34.62906521 14.38845987 35.77348897 12.41182536 36.921875 10.4375 C37.4264624 9.56109863 37.9310498 8.68469727 38.45092773 7.78173828 C43.05699331 0.47023299 43.05699331 0.47023299 46.52441406 -0.32543945 C47.42514648 -0.29925537 48.32587891 -0.27307129 49.25390625 -0.24609375 C50.23359375 -0.22998047 51.21328125 -0.21386719 52.22265625 -0.19726562 C53.74632812 -0.13442383 53.74632812 -0.13442383 55.30078125 -0.0703125 C56.33203125 -0.04775391 57.36328125 -0.02519531 58.42578125 -0.00195312 C60.9689219 0.05691587 63.50911238 0.13908685 66.05078125 0.2421875 C64.35630032 5.22653784 61.56319968 9.40515783 58.73828125 13.8046875 C58.21500244 14.62662598 57.69172363 15.44856445 57.15258789 16.29541016 C52.59032686 23.44450629 47.9706995 30.55690019 43.32885742 37.65454102 C42.81299072 38.44401123 42.29712402 39.23348145 41.765625 40.046875 C41.3130835 40.73765137 40.86054199 41.42842773 40.39428711 42.14013672 C39.95093018 42.83381348 39.50757324 43.52749023 39.05078125 44.2421875 C38.5103418 44.98122314 37.96990234 45.72025879 37.41308594 46.48168945 C35.59563238 50.16447572 35.57280758 53.58320906 35.5390625 57.60546875 C35.5211113 58.39745163 35.5031601 59.18943451 35.48466492 60.00541687 C35.43071287 62.52178712 35.39671562 65.03796935 35.36328125 67.5546875 C35.33009474 69.26630212 35.29560384 70.97789198 35.25976562 72.68945312 C35.17255109 76.87372269 35.11235716 81.05714864 35.05078125 85.2421875 C28.78078125 85.2421875 22.51078125 85.2421875 16.05078125 85.2421875 C16.09460938 82.90125 16.1384375 80.5603125 16.18359375 78.1484375 C16.24344771 71.75152547 16.14896778 65.36715926 15.85546875 58.9765625 C15.83283966 58.22862427 15.81021057 57.48068604 15.78689575 56.71008301 C15.34583168 48.6011769 12.17930157 42.80163068 7.01074219 36.70800781 C2.79449754 31.4035645 -0.84628634 25.65956323 -4.61535645 20.0333252 C-6.06016651 17.88805245 -7.52082418 15.75452849 -8.98730469 13.62402344 C-9.44513336 12.95597687 -9.90296204 12.2879303 -10.37466431 11.59963989 C-11.24753468 10.32647152 -12.12354321 9.05544765 -13.00302124 7.78683472 C-15.94921875 3.4674814 -15.94921875 3.4674814 -15.94921875 1.2421875 C-10.63616589 0.77583803 -5.31513247 0.43647445 0 0 Z " fill="#595959" transform="translate(366.94921875,232.7578125)"/>
<path d="M0 0 C6.27 0 12.54 0 19 0 C19.33 21.78 19.66 43.56 20 66 C30.56 66 41.12 66 52 66 C53 67 53 67 53.09765625 70.81640625 C53.09098089 72.39846682 53.07901875 73.98051159 53.0625 75.5625 C53.05798828 76.36880859 53.05347656 77.17511719 53.04882812 78.00585938 C53.03700518 80.00393756 53.01906914 82.00197783 53 84 C35.3693248 85.17537835 17.66981104 85 0 85 C0 56.95 0 28.9 0 0 Z " fill="#595959" transform="translate(661,232)"/>
</svg>
