<?xml version="1.0" encoding="UTF-8"?>
<svg version="1.1" xmlns="http://www.w3.org/2000/svg" width="1361" height="380">
<path d="M0 0 C88.76164725 0 88.76164725 0 103.8046875 14.53515625 C113.46908694 25.38611007 114.86277949 36.79968774 114.19091797 50.76660156 C113.44202444 59.5273151 109.11714984 66.84809363 103 73 C98.31306953 76.83010099 93.69392376 79.90277185 88 82 C88.83402344 82.27972656 89.66804687 82.55945313 90.52734375 82.84765625 C102.67923745 87.17668138 111.74974421 93.15393916 117.44140625 105 C123.41205518 118.88048298 123.54392694 131.97066685 118.19140625 146.140625 C112.95162962 157.97087623 102.5390434 165.35277867 90.91796875 170.31640625 C62.44740282 180.42849454 27.71663508 175 0 175 C0 117.25 0 59.5 0 0 Z M25 22 C25 38.5 25 55 25 72 C31.538125 72.0825 38.07625 72.165 44.8125 72.25 C47.87301636 72.30462402 47.87301636 72.30462402 50.99536133 72.36035156 C63.38335339 72.49044699 74.0566795 71.94778803 83.40625 62.828125 C88.50772964 56.97642776 88.60284175 51.05846331 88.40234375 43.51171875 C87.67865515 37.1952522 85.6889631 32.3726145 80.875 28.125 C73.45189562 22.90876449 66.91209058 21.70320286 58.0078125 21.8046875 C57.16855225 21.80670166 56.32929199 21.80871582 55.46459961 21.81079102 C52.35134356 21.8211976 49.23816587 21.84911993 46.125 21.875 C39.15375 21.91625 32.1825 21.9575 25 22 Z M25 94 C25 113.47 25 132.94 25 153 C31.826875 153.0825 38.65375 153.165 45.6875 153.25 C48.87732544 153.30462402 48.87732544 153.30462402 52.1315918 153.36035156 C65.36287266 153.49146825 78.37984409 153.15074148 88.578125 143.5078125 C93.88753767 137.91488751 96.06129086 131.7826764 96.4375 124.125 C96.15271598 116.16342929 93.36174642 108.31259007 87.82421875 102.49609375 C78.88273619 95.16292925 68.11587126 93.67177073 56.93359375 93.8046875 C56.11701294 93.80670166 55.30043213 93.80871582 54.45910645 93.81079102 C51.45184593 93.82113822 48.44466643 93.84905933 45.4375 93.875 C38.693125 93.91625 31.94875 93.9575 25 94 Z " fill="#F0554A" transform="translate(764,181)"/>
<path d="M0 0 C87.54527559 0 87.54527559 0 104 13 C114.96948953 24.31546601 117.86282278 37.62090955 118 53 C117.70424268 56.49744771 117.04493493 59.6539242 116 63 C115.75378906 63.81726563 115.50757813 64.63453125 115.25390625 65.4765625 C111.20483275 77.10190242 102.83827631 85.39573366 92.1875 91.1875 C87.34311313 93.49849493 82.18946124 94.71347007 77 96 C81.02889036 103.58926228 85.3446498 110.92747949 89.9375 118.1875 C91.26437831 120.29814226 92.59119957 122.40882039 93.91796875 124.51953125 C94.59263184 125.59025879 95.26729492 126.66098633 95.96240234 127.76416016 C101.66854061 136.82588513 107.33920233 145.90989836 113 155 C113.56895996 155.91265625 114.13791992 156.8253125 114.72412109 157.765625 C116.30047057 160.298895 117.87024857 162.83609402 119.4375 165.375 C119.90446289 166.12442871 120.37142578 166.87385742 120.85253906 167.64599609 C124 172.76940345 124 172.76940345 124 175 C119.83773496 175.22359275 115.67869784 175.38625784 111.51220703 175.49438477 C110.09752509 175.5394723 108.68325869 175.60076961 107.27001953 175.67895508 C95.65968741 176.30488207 95.65968741 176.30488207 91.9375 173.37841797 C90.31524918 171.00136989 89.17005904 168.62851953 88 166 C86.91390402 164.07601558 85.8142423 162.15964365 84.703125 160.25 C83.54897615 158.16838641 82.39804486 156.08498626 81.25 154 C77.23539004 146.77086154 73.21473799 139.55219759 69 132.4375 C68.62085449 131.79675537 68.24170898 131.15601074 67.85107422 130.49584961 C67.04081923 129.12814852 66.23008877 127.76072903 65.41894531 126.39355469 C62.39326047 121.28966374 59.38077977 116.17813497 56.375 111.0625 C55.7459375 110.00023193 55.116875 108.93796387 54.46875 107.84350586 C53.88867188 106.85487549 53.30859375 105.86624512 52.7109375 104.84765625 C52.18806152 103.96086182 51.66518555 103.07406738 51.12646484 102.16040039 C50 100 50 100 50 98 C41.42 98 32.84 98 24 98 C24 123.41 24 148.82 24 175 C16.08 175 8.16 175 0 175 C0 117.25 0 59.5 0 0 Z M24 22 C24 40.15 24 58.3 24 77 C29.98125 77.061875 35.9625 77.12375 42.125 77.1875 C43.98141113 77.21481201 45.83782227 77.24212402 47.75048828 77.27026367 C61.01110151 77.38390941 75.42846024 77.3511917 85.51953125 67.51953125 C90.94448469 61.4379552 91.89140031 54.89519776 92 47 C91.37892242 39.83460498 88.74753295 33.34756424 83.31640625 28.49609375 C71.70631833 20.41006578 57.19197608 21.63175948 43.75 21.8125 C37.2325 21.874375 30.715 21.93625 24 22 Z " fill="#F0554A" transform="translate(914,181)"/>
<path d="M0 0 C0.91644287 0.00523682 1.83288574 0.01047363 2.77709961 0.01586914 C3.76645508 0.0190918 4.75581055 0.02231445 5.77514648 0.02563477 C6.81606445 0.03401367 7.85698242 0.04239258 8.92944336 0.05102539 C10.49662109 0.05779297 10.49662109 0.05779297 12.09545898 0.06469727 C14.68601272 0.07652628 17.27644082 0.09384705 19.86694336 0.11352539 C23.37978735 6.94403935 26.56048389 13.85707746 29.54272461 20.93383789 C29.9806282 21.96538498 30.4185318 22.99693207 30.8697052 24.05973816 C31.81458809 26.2863675 32.75806165 28.51359534 33.70025635 30.74136353 C35.99796912 36.17372158 38.30453198 41.6023208 40.61029053 47.03126717 C41.41527353 48.92693232 42.21987355 50.82275968 43.02441406 52.71861267 C48.15408372 64.80379741 53.32069197 76.87306574 58.49612427 88.9387207 C59.98933073 92.41993439 61.48180371 95.90146175 62.97412109 99.38305664 C67.46434902 109.85726101 71.95864608 120.3296971 76.46157837 130.79844666 C78.42373865 135.36090909 80.38417156 139.92411271 82.34442139 144.48739624 C83.2672117 146.63413207 84.19090011 148.78048209 85.11553955 150.92642212 C86.3863984 153.87588658 87.65432235 156.82659657 88.92163086 159.77758789 C89.29439148 160.64047928 89.6671521 161.50337067 90.0512085 162.39241028 C90.39500549 163.19450424 90.73880249 163.99659821 91.09301758 164.82299805 C91.53736649 165.85537094 91.53736649 165.85537094 91.99069214 166.90859985 C93.0610144 169.60186958 93.95046687 172.36409592 94.86694336 175.11352539 C85.29694336 175.11352539 75.72694336 175.11352539 65.86694336 175.11352539 C62.17056479 166.98149253 58.66664338 158.86254768 55.36279297 150.57617188 C54.54247673 148.52104557 53.71564246 146.46861766 52.88842773 144.41625977 C52.36394964 143.10586874 51.83984657 141.79532754 51.31616211 140.48461914 C50.60979614 138.72009399 50.60979614 138.72009399 49.88916016 136.91992188 C48.86694336 134.11352539 48.86694336 134.11352539 48.86694336 132.11352539 C21.80694336 132.44352539 -5.25305664 132.77352539 -33.13305664 133.11352539 C-38.35457988 146.18712384 -38.35457988 146.18712384 -43.57421875 159.26147461 C-44.22787749 160.8970814 -44.88160029 162.5326626 -45.53540039 164.16821289 C-45.87575317 165.02165283 -46.21610596 165.87509277 -46.56677246 166.75439453 C-46.89149536 167.56626221 -47.21621826 168.37812988 -47.55078125 169.21459961 C-47.83279892 169.92075409 -48.11481659 170.62690857 -48.40538025 171.35446167 C-48.93252233 172.62875959 -49.51633726 173.88008663 -50.13305664 175.11352539 C-59.70305664 175.11352539 -69.27305664 175.11352539 -79.13305664 175.11352539 C-73.3991448 160.20535459 -73.3991448 160.20535459 -70.55883789 153.97290039 C-70.23788651 153.26017471 -69.91693512 152.54744904 -69.58625793 151.81312561 C-68.89946447 150.28847223 -68.21120102 148.76448025 -67.52154541 147.24111938 C-65.62719525 143.05520622 -63.74573229 138.86350327 -61.86352539 134.67211914 C-61.47245605 133.80177536 -61.08138672 132.93143158 -60.6784668 132.03471375 C-56.48423348 122.68885607 -52.36681486 113.30970242 -48.25805664 103.92602539 C-46.75180384 100.4871104 -45.24531228 97.04830015 -43.73852539 93.60961914 C-43.36203857 92.75037842 -42.98555176 91.8911377 -42.59765625 91.00585938 C-37.88774539 80.26341207 -33.1352536 69.53978251 -28.38659668 58.81442261 C-23.9591638 48.81210733 -19.55216192 38.80146994 -15.19165039 28.76977539 C-14.5957032 27.39917465 -14.5957032 27.39917465 -13.98771667 26.00088501 C-12.08764198 21.6290877 -10.19092655 17.25587042 -8.29882812 12.88061523 C-7.62642929 11.3306279 -6.95398717 9.78065935 -6.28149414 8.23071289 C-5.97517563 7.51943237 -5.66885712 6.80815186 -5.35325623 6.07531738 C-2.77738693 0.14781789 -2.77738693 0.14781789 0 0 Z M6.86694336 33.11352539 C6.49633789 34.03012939 6.12573242 34.9467334 5.74389648 35.89111328 C3.9527878 40.31990695 2.16005278 44.74804145 0.36694336 49.17602539 C-0.12710495 50.39630432 -0.12710495 50.39630432 -0.63113403 51.64123535 C-4.62794347 61.51013276 -8.64230788 71.37152403 -12.69165039 81.21899414 C-13.0601712 82.1154213 -13.42869202 83.01184845 -13.80838013 83.93544006 C-15.60404471 88.3019766 -17.40221781 92.66746222 -19.20336914 97.03173828 C-19.85575432 98.61627526 -20.50810018 100.20082843 -21.16040039 101.78540039 C-21.46280136 102.51595139 -21.76520233 103.24650238 -22.07676697 103.99919128 C-23.510335 106.96300954 -23.510335 106.96300954 -24.13305664 110.11352539 C-3.34305664 110.11352539 17.44694336 110.11352539 38.86694336 110.11352539 C36.57426223 102.29344488 36.57426223 102.29344488 33.80151367 94.75 C33.23512177 93.36191383 33.23512177 93.36191383 32.6572876 91.94578552 C32.25725525 90.97891312 31.8572229 90.01204071 31.44506836 89.01586914 C31.02199402 87.98273087 30.59891968 86.94959259 30.1630249 85.88514709 C28.8187088 82.60528965 27.46794855 79.32813236 26.11694336 76.05102539 C25.22589094 73.87997681 24.33526255 71.70875414 23.44506836 69.53735352 C21.72290035 65.33782668 19.99510368 61.14068256 18.26342773 56.94506836 C16.73511287 53.23798331 15.22493809 49.52461619 13.73608398 45.80151367 C13.41452332 45.00290421 13.09296265 44.20429474 12.76165771 43.38148499 C12.17213689 41.9153212 11.5878454 40.44703944 11.00982666 38.9763031 C9.74355882 35.36927323 9.74355882 35.36927323 6.86694336 33.11352539 Z " fill="#F0554A" transform="translate(658.133056640625,180.886474609375)"/>
<path d="M0 0 C7.47185546 6.41556637 7.47185546 6.41556637 9 11 C6.06778884 13.31927062 3.12836892 15.62922074 0.1875 17.9375 C-1.06256836 18.9265332 -1.06256836 18.9265332 -2.33789062 19.93554688 C-3.14033203 20.56396484 -3.94277344 21.19238281 -4.76953125 21.83984375 C-5.50792236 22.42113037 -6.24631348 23.00241699 -7.00708008 23.60131836 C-9 25 -9 25 -12 26 C-12.69222656 25.23816406 -12.69222656 25.23816406 -13.3984375 24.4609375 C-22.97266709 14.35690864 -35.42087273 7.72835978 -49.4609375 6.76171875 C-67.32507809 6.42297756 -83.56931925 11.15711001 -96.83691406 23.61938477 C-109.32881347 36.00115931 -115.97209759 53.61910472 -117 71 C-117.05285156 71.71929687 -117.10570312 72.43859375 -117.16015625 73.1796875 C-117.90589146 92.43910982 -111.00166877 111.53263068 -97.9375 125.6875 C-84.95693331 137.94326347 -68.84863377 142.64268676 -51.28735352 142.4753418 C-35.30285848 141.91618484 -23.08551254 135.18556229 -12 124 C-10.9703967 122.68939143 -9.95846628 121.36349557 -9 120 C-3.80968922 121.6174933 0.06772586 124.85512037 4.3125 128.125 C5.05306641 128.68832031 5.79363281 129.25164062 6.55664062 129.83203125 C8.37501609 131.21634289 10.18924674 132.60574226 12 134 C10.38881482 142.16215787 2.69327412 147.18586184 -3.6640625 151.79296875 C-23.82317809 165.13008855 -48.27668589 169.29244901 -72.06640625 165.28125 C-94.95765208 160.54747324 -114.61435602 147.17278975 -128.0625 128.0703125 C-142.6330646 105.49697568 -146.81974982 80.34431435 -142 54 C-136.82977911 31.2808563 -125.62867861 10.88054459 -105.9140625 -2.2421875 C-72.88797384 -22.16409085 -31.72849743 -23.36866049 0 0 Z " fill="#F0554A" transform="translate(1255,194)"/>
<path d="M0 0 C36.63 0 73.26 0 111 0 C111 7.59 111 15.18 111 23 C82.62 23 54.24 23 25 23 C25 40.82 25 58.64 25 77 C51.4 77 77.8 77 105 77 C105 84.59 105 92.18 105 100 C78.6 100 52.2 100 25 100 C25 124.75 25 149.5 25 175 C16.75 175 8.5 175 0 175 C0 117.25 0 59.5 0 0 Z " fill="#F0554A" transform="translate(475,181)"/>
<path d="M0 0 C0.87398437 0.79083984 0.87398437 0.79083984 1.765625 1.59765625 C1.765625 6.09765625 1.765625 6.09765625 -0.859375 8.83203125 C-1.40078125 9.40566406 -1.9421875 9.97929688 -2.5 10.5703125 C-3.07234375 11.15683594 -3.6446875 11.74335937 -4.234375 12.34765625 C-4.80671875 12.94964844 -5.3790625 13.55164063 -5.96875 14.171875 C-7.38180646 15.65558429 -8.80695842 17.12775703 -10.234375 18.59765625 C-13.40871334 17.04529342 -16.4280755 15.32190482 -19.453125 13.5 C-25.46855357 10.45271052 -33.46762754 10.56010905 -39.84375 12.31640625 C-47.44961595 15.48126322 -51.56582418 20.39157427 -55.234375 27.59765625 C-57.69175943 35.42248562 -56.87503529 44.30254529 -53.234375 51.59765625 C-49.62397778 57.44140815 -44.93532879 61.00309501 -38.234375 62.59765625 C-30.01135529 63.37574844 -22.71301536 63.26066377 -15.234375 59.59765625 C-14.904375 55.30765625 -14.574375 51.01765625 -14.234375 46.59765625 C-19.184375 46.92765625 -24.134375 47.25765625 -29.234375 47.59765625 C-29.234375 41.32765625 -29.234375 35.05765625 -29.234375 28.59765625 C-18.014375 28.59765625 -6.794375 28.59765625 4.765625 28.59765625 C4.765625 43.77765625 4.765625 58.95765625 4.765625 74.59765625 C-10.36816379 80.41834424 -10.36816379 80.41834424 -16.859375 81.41015625 C-17.94182495 81.58442139 -17.94182495 81.58442139 -19.04614258 81.76220703 C-34.37176622 84.08837188 -49.04864111 81.98660648 -62.15625 73.328125 C-70.38171978 67.01343913 -75.0610146 57.54935915 -77.234375 47.59765625 C-77.63734997 44.10498737 -77.71266929 40.67364522 -77.671875 37.16015625 C-77.66430176 36.24073242 -77.65672852 35.32130859 -77.64892578 34.37402344 C-77.48193453 27.49203343 -76.59501813 21.70125421 -73.234375 15.59765625 C-72.81027344 14.81519531 -72.38617187 14.03273438 -71.94921875 13.2265625 C-65.38914874 2.39056942 -56.11029917 -3.686897 -44.00390625 -7.015625 C-28.62493566 -9.1630412 -13.48652929 -7.95196302 0 0 Z " fill="#242729" transform="translate(1196.234375,41.40234375)"/>
<path d="M0 0 C5.60096412 -0.07495628 11.20162711 -0.1289776 16.80297852 -0.16479492 C18.70276993 -0.17974885 20.60252764 -0.20011943 22.50219727 -0.22631836 C39.39817537 -0.45325933 55.75264849 -0.01173527 68.8125 12.1875 C77.35064462 21.31396201 80.55817068 32.37473979 80.18359375 44.7578125 C79.27770719 55.82119299 75.414061 66.42555867 67 74 C47.83279754 88.90431559 23.94346285 86.05753846 1 86 C0.3079695 57.32858752 -0.16692433 28.68016731 0 0 Z M20 18 C20 34.17 20 50.34 20 67 C37.50786046 67.52489975 37.50786046 67.52489975 52.4375 60.8125 C58.38046041 54.28973858 59.70027578 47.81365301 59.375 39.08203125 C58.48049772 31.73034063 54.9557891 27.05474977 49.23828125 22.4765625 C40.14012163 16.47463521 31.00686803 18 20 18 Z " fill="#242729" transform="translate(1027,36)"/>
<path d="M0 0 C7.92 0 15.84 0 24 0 C24 57.75 24 115.5 24 175 C16.08 175 8.16 175 0 175 C0 117.25 0 59.5 0 0 Z " fill="#F0554A" transform="translate(1064,181)"/>
<path d="M0 0 C7.05375 -0.061875 14.1075 -0.12375 21.375 -0.1875 C23.58106934 -0.21481201 25.78713867 -0.24212402 28.06005859 -0.27026367 C29.83951269 -0.27903841 31.61897288 -0.28668 33.3984375 -0.29296875 C34.29731689 -0.30831665 35.19619629 -0.32366455 36.12231445 -0.33947754 C45.58192852 -0.34332187 53.44721821 1.54356135 60.375 8.1640625 C65.8487713 14.34837142 66.29563197 21.06701937 66.21875 28.95703125 C65.77025115 35.19597058 63.59082267 40.64460413 59 45 C57.3042449 45.92255222 55.5839979 46.8008455 53.84765625 47.64453125 C52.94152588 48.08772705 52.03539551 48.53092285 51.10180664 48.98754883 C50.40821045 49.32165771 49.71461426 49.6557666 49 50 C49.39268066 50.64437012 49.78536133 51.28874023 50.18994141 51.95263672 C52.00197587 54.92654577 53.81349051 57.90077114 55.625 60.875 C56.24246094 61.88820312 56.85992188 62.90140625 57.49609375 63.9453125 C58.72987253 65.97130713 59.96197849 67.99832144 61.19238281 70.02636719 C62.38867292 71.99433228 63.59106758 73.95860065 64.79980469 75.91894531 C65.34797852 76.81452148 65.89615234 77.71009766 66.4609375 78.6328125 C66.95126465 79.4283252 67.4415918 80.22383789 67.94677734 81.04345703 C69 83 69 83 69 85 C65.29334204 85.2917568 61.58962752 85.46835908 57.875 85.625 C56.82828125 85.70878906 55.7815625 85.79257813 54.703125 85.87890625 C51.53890927 85.97903966 49.03832026 85.90421495 46 85 C43.09924307 82.08488662 41.65764833 78.72546883 40 75 C39.01350523 73.16077798 38.01607736 71.32737832 37.0078125 69.5 C36.04376104 67.66830222 35.08282407 65.83496187 34.125 64 C33.62742187 63.06027344 33.12984375 62.12054688 32.6171875 61.15234375 C32.14796875 60.25644531 31.67875 59.36054687 31.1953125 58.4375 C30.77266113 57.63183594 30.35000977 56.82617188 29.91455078 55.99609375 C29 54 29 54 29 52 C26.03 52 23.06 52 20 52 C20 63.22 20 74.44 20 86 C13.4 86 6.8 86 0 86 C0 57.62 0 29.24 0 0 Z M20 17 C20 22.94 20 28.88 20 35 C22.495625 35.061875 24.99125 35.12375 27.5625 35.1875 C28.33408447 35.21481201 29.10566895 35.24212402 29.90063477 35.27026367 C35.00654882 35.33077724 38.46188791 34.36348083 43 32 C45.44988842 29.55011158 45.7658669 28.43395207 46 25 C44.43776826 20.76636038 44.43776826 20.76636038 41.17089844 17.83642578 C38.76373944 16.90897113 37.02492033 16.76993351 34.453125 16.8046875 C33.60878906 16.81113281 32.76445313 16.81757812 31.89453125 16.82421875 C30.58548828 16.84935547 30.58548828 16.84935547 29.25 16.875 C27.91775391 16.88853516 27.91775391 16.88853516 26.55859375 16.90234375 C24.37227989 16.9258525 22.18610516 16.96172189 20 17 Z " fill="#242729" transform="translate(1286,34)"/>
<path d="M0 0 C50.63888889 0 50.63888889 0 59 7 C64.13212446 12.47521913 65.94642659 18.30562971 66.03125 25.73828125 C65.58459891 33.81149976 63.63936003 39.88067121 57.5625 45.375 C54.89604921 47.58982455 52.24950529 48.80721418 49 50 C54.48963519 59.43750049 60.03848908 68.81531583 65.95068359 77.99609375 C69 82.78664959 69 82.78664959 69 85 C61.08 85 53.16 85 45 85 C44.10796875 83.27652344 43.2159375 81.55304688 42.296875 79.77734375 C41.11465935 77.49735642 39.93236346 75.21741069 38.75 72.9375 C37.87021484 71.2369043 37.87021484 71.2369043 36.97265625 69.50195312 C35.83094752 67.30191889 34.67953416 65.10688852 33.51757812 62.91748047 C32.6193276 61.1906314 31.75430545 59.44463279 30.96679688 57.66455078 C30.04717515 55.51287808 30.04717515 55.51287808 28 53 C25.36 52.67 22.72 52.34 20 52 C20 63.22 20 74.44 20 86 C13.4 86 6.8 86 0 86 C0 57.62 0 29.24 0 0 Z M19 17 C19.33 22.94 19.66 28.88 20 35 C22.495625 35.061875 24.99125 35.12375 27.5625 35.1875 C28.33408447 35.21481201 29.10566895 35.24212402 29.90063477 35.27026367 C35.00102098 35.33071173 38.49566986 34.43676876 43 32 C45.5099972 28.23500419 45.61476744 26.45706394 45 22 C42.33780589 18.97557292 40.6419496 17.27625379 36.63183594 16.6015625 C33.94602596 16.50849488 31.30935984 16.5630468 28.625 16.6875 C27.23474609 16.72133789 27.23474609 16.72133789 25.81640625 16.75585938 C23.54356867 16.81443766 21.27156925 16.90410824 19 17 Z " fill="#242729" transform="translate(807,36)"/>
<path d="M0 0 C6.27 0 12.54 0 19 0 C19 10.56 19 21.12 19 32 C19.99 31.67 20.98 31.34 22 31 C24.51368055 30.9153183 26.99869374 30.88398115 29.51171875 30.90234375 C30.23994339 30.9037587 30.96816803 30.90517365 31.71846008 30.90663147 C34.04151539 30.91222341 36.36447388 30.92477438 38.6875 30.9375 C40.26367048 30.94251604 41.83984248 30.94707877 43.41601562 30.95117188 C47.27741095 30.96133879 51.13859725 30.98091564 55 31 C54.67 20.77 54.34 10.54 54 0 C60.6 0 67.2 0 74 0 C74.33 28.05 74.66 56.1 75 85 C68.4 85 61.8 85 55 85 C55 73.12 55 61.24 55 49 C43.12 49 31.24 49 19 49 C19.33 51.64 19.66 54.28 20 57 C20.07548693 59.37402324 20.10825982 61.7498006 20.09765625 64.125 C20.09443359 65.40761719 20.09121094 66.69023438 20.08789062 68.01171875 C20.07951172 69.32785156 20.07113281 70.64398438 20.0625 72 C20.05747487 73.36067544 20.05291376 74.72135267 20.04882812 76.08203125 C20.03710469 79.38804011 20.01917124 82.69402594 20 86 C13.4 86 6.8 86 0 86 C0 57.62 0 29.24 0 0 Z " fill="#242729" transform="translate(475,36)"/>
<path d="M0 0 C19.47 0 38.94 0 59 0 C59 5.94 59 11.88 59 18 C46.13 18 33.26 18 20 18 C20 22.95 20 27.9 20 33 C32.21 33 44.42 33 57 33 C57 38.94 57 44.88 57 51 C44.79 51 32.58 51 20 51 C20 56.28 20 61.56 20 67 C33.53 67 47.06 67 61 67 C61 72.94 61 78.88 61 85 C40.63596585 85.89723518 20.40882607 86 0 86 C0 57.62 0 29.24 0 0 Z " fill="#242729" transform="translate(1213,34)"/>
<path d="M0 0 C19.47 0 38.94 0 59 0 C59 5.94 59 11.88 59 18 C46.13 18 33.26 18 20 18 C20 22.95 20 27.9 20 33 C32.21 33 44.42 33 57 33 C57 38.94 57 44.88 57 51 C44.79 51 32.58 51 20 51 C20 56.28 20 61.56 20 67 C33.53 67 47.06 67 61 67 C61 72.94 61 78.88 61 85 C40.996057 85.60065459 21.01531046 86.18862596 1 86 C-0.33368302 57.33645623 -0.07014964 28.69120261 0 0 Z " fill="#242729" transform="translate(954,36)"/>
<path d="M0 0 C19.14 0 38.28 0 58 0 C58 5.94 58 11.88 58 18 C45.13 18 32.26 18 19 18 C19 22.95 19 27.9 19 33 C31.21 33 43.42 33 56 33 C56 38.94 56 44.88 56 51 C44.12 51 32.24 51 20 51 C20 56.28 20 61.56 20 67 C33.53 67 47.06 67 61 67 C61 72.94 61 78.88 61 85 C40.63303218 85.94572985 20.41930624 86 0 86 C0 57.62 0 29.24 0 0 Z " fill="#242729" transform="translate(734,36)"/>
<path d="M0 0 C3.34706103 1.18070946 6.50051576 2.69430303 9.6875 4.25 C10.54150391 4.64574219 11.39550781 5.04148438 12.27539062 5.44921875 C19.8170837 9.0630701 19.8170837 9.0630701 22 13 C22.84158245 18.51077019 20.73631948 22.36217804 18.30078125 27.1328125 C17.72069557 28.30547668 17.72069557 28.30547668 17.12889099 29.50183105 C15.8671064 32.04817926 14.58970983 34.58635939 13.3125 37.125 C11.55860384 40.65368178 9.81276027 44.18633089 8.06640625 47.71875 C7.63097504 48.59665192 7.19554382 49.47455383 6.74691772 50.37905884 C2.41398624 59.13350291 -1.69237802 67.98324906 -5.7253418 76.87939453 C-8.23746191 82.3768511 -10.8578735 87.79994345 -13.671875 93.1484375 C-14.23487305 94.22013184 -14.79787109 95.29182617 -15.37792969 96.39599609 C-17 99 -17 99 -20 101 C-26.58081976 100.82309624 -31.19820994 98.74449022 -36.875 95.5625 C-37.63296875 95.15451172 -38.3909375 94.74652344 -39.171875 94.32617188 C-44.67519264 91.32480736 -44.67519264 91.32480736 -47 89 C-47.54024498 82.98872182 -46.5280176 78.90895791 -43.73828125 73.546875 C-43.22505562 72.51217575 -43.22505562 72.51217575 -42.70146179 71.45657349 C-41.58578476 69.21374716 -40.44914834 66.98225965 -39.3125 64.75 C-38.13627122 62.39711118 -36.96583074 60.04140408 -35.79586792 57.68539429 C-35.0061995 56.09568504 -34.21479078 54.5068391 -33.42166138 52.91885376 C-29.79313547 45.63969342 -26.37869928 38.27256776 -23 30.875 C-19.42576672 23.1038005 -15.79117942 15.38603714 -11.8125 7.8125 C-11.26819336 6.76908447 -11.26819336 6.76908447 -10.71289062 5.70458984 C-7.81233841 0.3047754 -6.14452193 -0.57928153 0 0 Z " fill="#96D6D7" transform="translate(223,198)"/>
<path d="M0 0 C2.92978552 0.95488684 5.59546491 2.284202 8.328125 3.69921875 C9.49654434 4.27930443 9.49654434 4.27930443 10.68856812 4.87110901 C13.21631791 6.12925077 15.73281867 7.40836566 18.25 8.6875 C20.87994518 10.00225766 23.51270474 11.31124957 26.14578247 12.61972046 C27.90825925 13.49578018 29.66987768 14.37356887 31.43063354 15.25308228 C40.1596771 19.60557268 48.99647581 23.698757 57.87988281 27.7253418 C79.24493152 37.48986303 79.24493152 37.48986303 81 41 C81.7818732 47.0036692 79.31193447 51.43914835 76.75 56.6875 C76.35425781 57.54150391 75.95851563 58.39550781 75.55078125 59.27539062 C71.9369299 66.8170837 71.9369299 66.8170837 68 69 C62.88178423 69.71629997 59.20079362 68.02088315 54.7421875 65.73828125 C54.04955811 65.39613083 53.35692871 65.05398041 52.64331055 64.70146179 C50.38189922 63.58215564 48.12870481 62.44723083 45.875 61.3125 C42.71087902 59.74093472 39.54279656 58.17742142 36.375 56.61328125 C35.18473709 56.02342941 35.18473709 56.02342941 33.97042847 55.42166138 C26.66662091 51.8104399 19.28409013 48.38846637 11.875 45 C4.13181518 41.43547628 -3.56865128 37.82286021 -11.125 33.875 C-11.81223145 33.52050781 -12.49946289 33.16601562 -13.20751953 32.80078125 C-16.37671413 31.10611363 -17.96516574 30.05225139 -20 27 C-19.75040007 21.09769578 -17.66290453 16.46225554 -15.125 11.25 C-14.77308594 10.49589844 -14.42117187 9.74179687 -14.05859375 8.96484375 C-10.68309761 1.90014364 -8.52802737 -1.29137274 0 0 Z " fill="#F0554A" transform="translate(143,291)"/>
<path d="M0 0 C3.40580646 1.17399562 6.5879657 2.71386463 9.8125 4.3125 C11.09930664 4.91868164 11.09930664 4.91868164 12.41210938 5.53710938 C18.72916667 8.59375 18.72916667 8.59375 21 12 C21.53499473 17.52523994 20.42905888 21.00543668 17.95703125 25.91796875 C17.63716751 26.56460983 17.31730377 27.21125092 16.98774719 27.87748718 C15.94149095 29.98713339 14.87694182 32.08698008 13.8125 34.1875 C12.70590615 36.40877134 11.604483 38.63255232 10.50366211 40.85668945 C9.75690465 42.36538437 9.00868607 43.87335692 8.2590332 45.38061523 C4.73542718 52.48097019 1.42057122 59.66631358 -1.875 66.875 C-5.63355626 75.0049206 -9.40759146 83.12537688 -13.4375 91.125 C-13.81438965 91.9072998 -14.1912793 92.68959961 -14.57958984 93.49560547 C-16.41265766 97.04418478 -17.38686327 98.67666618 -21 100.58203125 C-24.21936196 101.03056215 -25.62935407 100.8734887 -28.5625 99.5625 C-29.408125 99.18480469 -30.25375 98.80710937 -31.125 98.41796875 C-46.60955816 90.78088368 -46.60955816 90.78088368 -48 88 C-48.62643055 81.71628963 -46.86899315 77.76106603 -44.08203125 72.33203125 C-43.67302078 71.50709671 -43.26401031 70.68216217 -42.84260559 69.83222961 C-41.51140622 67.15272138 -40.1619082 64.48287706 -38.8125 61.8125 C-36.96703534 58.11085883 -35.1306108 54.40474808 -33.29296875 50.69921875 C-32.60817444 49.3237085 -32.60817444 49.3237085 -31.9095459 47.92041016 C-27.4657811 38.97772817 -23.2615457 29.93629428 -19.13598633 20.84301758 C-9.02033068 -1.29998268 -9.02033068 -1.29998268 0 0 Z " fill="#96D6D7" transform="translate(70,125)"/>
<path d="M0 0 C5.09174226 0.15173629 9.31535381 2.48327975 13.80078125 4.70703125 C15.08758789 5.31321289 15.08758789 5.31321289 16.40039062 5.93164062 C22.71744792 8.98828125 22.71744792 8.98828125 24.98828125 12.39453125 C25.66662677 19.06963024 24.10573754 23.28664815 21.0703125 29.16015625 C20.66125671 29.98376648 20.25220093 30.80737671 19.83074951 31.65594482 C18.50141968 34.32606694 17.15111483 36.9849795 15.80078125 39.64453125 C14.41781196 42.41089909 13.04059924 45.18007985 11.66392517 47.94958496 C10.74512819 49.79753026 9.82460676 51.64461917 8.90235901 53.49084473 C4.41835536 62.48254198 0.19251989 71.58040649 -3.96362305 80.72753906 C-12.0101236 98.32934554 -12.0101236 98.32934554 -17.01171875 101.39453125 C-23.42455077 101.3865352 -28.40157403 98.44702221 -33.88671875 95.45703125 C-34.75296875 95.00134766 -35.61921875 94.54566406 -36.51171875 94.07617188 C-42.87353071 90.67090732 -42.87353071 90.67090732 -44.01171875 88.39453125 C-44.48970622 83.28953274 -43.24358292 80.11515083 -40.96875 75.57421875 C-40.64888626 74.92616272 -40.32902252 74.27810669 -39.99946594 73.6104126 C-38.95139923 71.4914681 -37.88770984 69.38076988 -36.82421875 67.26953125 C-35.34382272 64.28768856 -33.87147753 61.30188812 -32.3984375 58.31640625 C-32.02630127 57.5650943 -31.65416504 56.81378235 -31.27075195 56.03970337 C-27.75612876 48.92700869 -24.43530111 41.73467856 -21.13671875 34.51953125 C-17.37561813 26.3396006 -13.51197351 18.24056795 -9.32421875 10.26953125 C-8.91381348 9.48723145 -8.5034082 8.70493164 -8.08056641 7.89892578 C-4.14640716 0.54317396 -4.14640716 0.54317396 0 0 Z " fill="#96D6D7" transform="translate(333.01171875,157.60546875)"/>
<path d="M0 0 C3.27856445 1.21484375 3.27856445 1.21484375 6.86328125 2.9375 C7.84856056 3.40519554 7.84856056 3.40519554 8.85374451 3.88233948 C11.01218242 4.91044413 13.16222018 5.95495405 15.3125 7 C16.82214233 7.7235121 18.33224093 8.44607285 19.84277344 9.16772461 C23.78032861 11.05278071 27.71064576 12.95243768 31.63897705 14.85662842 C34.70887873 16.3432884 37.78214809 17.82290873 40.85539246 19.30264282 C48.95897424 23.20587792 57.05633401 27.12172904 65.13061523 31.08526611 C67.09282624 32.04542206 69.05909855 32.99696396 71.02539062 33.94873047 C72.31397275 34.57875262 73.60239033 35.20911145 74.890625 35.83984375 C76.04079102 36.39921631 77.19095703 36.95858887 78.37597656 37.53491211 C81 39 81 39 82 41 C82.7203138 47.53366987 80.55725914 52.0240401 77.6875 57.8125 C77.28337891 58.67037109 76.87925781 59.52824219 76.46289062 60.41210938 C73.40625 66.72916667 73.40625 66.72916667 70 69 C64.85850991 69.44713556 61.53418621 68.70025508 56.95703125 66.39453125 C55.81492187 65.82959961 54.6728125 65.26466797 53.49609375 64.68261719 C52.89651855 64.37819702 52.29694336 64.07377686 51.67919922 63.76013184 C49.12270011 62.46232236 46.55153845 61.1948847 43.98080444 59.92556763 C42.64577269 59.26615915 41.31148887 58.60523436 39.97793579 57.94284058 C33.20885353 54.58619359 26.36314986 51.40944671 19.5 48.25 C17.19902319 47.18531838 14.89823826 46.12022195 12.59765625 45.0546875 C11.49695801 44.54518555 10.39625977 44.03568359 9.26220703 43.51074219 C4.14891596 41.14275497 -0.96187025 38.77015586 -6.0625 36.375 C-6.93132812 35.97313477 -7.80015625 35.57126953 -8.6953125 35.15722656 C-9.48808594 34.78307617 -10.28085938 34.40892578 -11.09765625 34.0234375 C-11.78351807 33.70294434 -12.46937988 33.38245117 -13.17602539 33.05224609 C-15.1861673 31.89260058 -16.54396392 30.80966856 -18 29 C-18.89090071 22.0403141 -16.77023942 17.28091996 -13.6875 11.125 C-13.28337891 10.27164063 -12.87925781 9.41828125 -12.46289062 8.5390625 C-9.44179122 2.32984355 -7.49842863 -0.71386712 0 0 Z " fill="#F0554A" transform="translate(215,137)"/>
<path d="M0 0 C4.94748837 0.13072632 8.79126766 1.87600757 13.171875 4.04296875 C13.91308594 4.38263672 14.65429688 4.72230469 15.41796875 5.07226562 C19.73011621 7.14318025 23.09710793 8.99333713 25.421875 13.35546875 C25.08527163 18.72151472 23.46626962 22.9793099 21.0625 27.7109375 C20.55132881 28.74789513 20.55132881 28.74789513 20.02983093 29.80580139 C18.91899669 32.0558386 17.79533152 34.29921157 16.671875 36.54296875 C15.11116721 39.69559601 13.55748054 42.85166508 12.00390625 46.0078125 C11.41900169 47.19281845 11.41900169 47.19281845 10.82228088 48.40176392 C7.2064913 55.74543715 3.76697459 63.16348445 0.359375 70.60546875 C-11.40328354 96.18062729 -11.40328354 96.18062729 -15.578125 100.35546875 C-22.71896063 101.21427749 -27.2784602 99.01879277 -33.453125 95.60546875 C-34.73316406 94.9403125 -34.73316406 94.9403125 -36.0390625 94.26171875 C-43.35261305 90.32721371 -43.35261305 90.32721371 -44.578125 86.35546875 C-44.30029731 81.27301438 -42.25346017 77.13388317 -40 72.66015625 C-39.45539879 71.55421616 -39.45539879 71.55421616 -38.89979553 70.42593384 C-38.12048192 68.84489906 -37.33774728 67.26554676 -36.5519104 65.68774414 C-34.48124043 61.52998383 -32.43469712 57.3603782 -30.38671875 53.19140625 C-29.97568405 52.35611389 -29.56464935 51.52082153 -29.14115906 50.66021729 C-24.90813487 42.03600469 -20.87283809 33.32595348 -16.90332031 24.57763672 C-5.93322057 0.58943567 -5.93322057 0.58943567 0 0 Z " fill="#96D6D7" transform="translate(179.578125,84.64453125)"/>
<path d="M0 0 C0.82502518 0.40764084 1.65005035 0.81528168 2.50007629 1.23527527 C5.1775287 2.5598288 7.8483594 3.89720833 10.51953125 5.234375 C14.21898651 7.06860509 17.92190741 8.89578287 21.625 10.72265625 C22.9998909 11.40250328 22.9998909 11.40250328 24.40255737 12.09608459 C33.41503045 16.54261588 42.51598419 20.7786433 51.66479492 24.93652344 C68.3986765 32.58434287 68.3986765 32.58434287 71.33203125 36.984375 C71.08243132 42.88667922 68.99493578 47.52211946 66.45703125 52.734375 C66.10511719 53.48847656 65.75320312 54.24257812 65.390625 55.01953125 C62.26015332 61.57141065 62.26015332 61.57141065 59.33203125 63.984375 C51.04952012 65.50545228 44.23811003 60.94971527 37.08203125 57.296875 C35.00725665 56.26021458 32.92962643 55.22943852 30.85176086 54.19898987 C29.43526798 53.49618932 28.01965295 52.79161678 26.60490417 52.08531189 C19.68293333 48.63580474 12.67474904 45.39442386 5.64453125 42.171875 C-2.70817672 38.31564734 -11.03868206 34.42271016 -19.29296875 30.359375 C-20.12272217 29.9574292 -20.95247559 29.5554834 -21.80737305 29.14135742 C-22.93332886 28.58025269 -22.93332886 28.58025269 -24.08203125 28.0078125 C-24.73123535 27.68731934 -25.38043945 27.36682617 -26.04931641 27.03662109 C-27.66796875 25.984375 -27.66796875 25.984375 -29.66796875 22.984375 C-30.55522571 17.06036642 -27.98820633 12.4911904 -25.48046875 7.296875 C-25.09310547 6.44287109 -24.70574219 5.58886719 -24.30664062 4.70898438 C-22.62509451 1.170789 -21.22465295 -1.51046859 -18.3046875 -4.16015625 C-11.71746854 -6.29734285 -5.77856321 -2.92775057 0 0 Z " fill="#F0554A" transform="translate(112.66796875,182.015625)"/>
<path d="M0 0 C2.9349254 0.96841522 5.64953555 2.29003766 8.4140625 3.6640625 C9.61406891 4.2401828 9.61406891 4.2401828 10.83831787 4.82794189 C13.4402691 6.0808727 16.03248859 7.35266793 18.625 8.625 C20.42208952 9.49489148 22.21978371 10.36353483 24.01806641 11.23095703 C27.63477473 12.97806786 31.24771508 14.73261028 34.85742188 16.49414062 C39.4752134 18.74698376 44.10218604 20.98006225 48.734375 23.203125 C60.45661426 28.83353405 60.45661426 28.83353405 66.10839844 31.59277344 C68.04362015 32.53456827 69.98448524 33.46485024 71.93066406 34.38378906 C72.83268555 34.8165918 73.73470703 35.24939453 74.6640625 35.6953125 C75.45506348 36.06930176 76.24606445 36.44329102 77.06103516 36.82861328 C79 38 79 38 81 41 C81.89849383 46.93904419 79.28481227 51.49471061 76.75 56.6875 C76.35425781 57.54150391 75.95851563 58.39550781 75.55078125 59.27539062 C71.83087233 67.03841367 71.83087233 67.03841367 68 69 C62.21380427 68.86110677 57.67667676 66.73329816 52.5859375 64.23828125 C51.38593109 63.66428337 51.38593109 63.66428337 50.16168213 63.07868958 C47.56166938 61.83232097 44.9683727 60.57261842 42.375 59.3125 C40.57770955 58.44757669 38.78001726 57.58348793 36.98193359 56.72021484 C32.4899292 54.56102527 28.00320139 52.39111258 23.51782227 50.21820068 C19.77056127 48.40515932 16.01817866 46.60283505 12.265625 44.80078125 C6.47034993 42.01504103 0.67524474 39.22901167 -5.10449219 36.41113281 C-7.05480851 35.46064138 -9.00868005 34.51741452 -10.96582031 33.58105469 C-12.3323877 32.91831543 -12.3323877 32.91831543 -13.7265625 32.2421875 C-14.52916504 31.85659668 -15.33176758 31.47100586 -16.15869141 31.07373047 C-18 30 -18 30 -19 28 C-19.7203138 21.46633013 -17.55725914 16.9759599 -14.6875 11.1875 C-14.28337891 10.32962891 -13.87925781 9.47175781 -13.46289062 8.58789062 C-10.18267719 1.80878285 -8.06945381 -0.74422516 0 0 Z " fill="#F0554A" transform="translate(176,24)"/>
<path d="M0 0 C51.01509979 0 51.01509979 0 59.41015625 8.171875 C64.4495379 13.9665448 65.28071026 20.44809162 65.15234375 27.921875 C64.5818287 35.70428542 61.87356889 41.12643111 56.3125 46.6875 C48.92417812 52.40579612 40.40169401 52.39657202 31.4375 52.1875 C27.663125 52.125625 23.88875 52.06375 20 52 C20 63.22 20 74.44 20 86 C13.4 86 6.8 86 0 86 C0 57.62 0 29.24 0 0 Z M20 17 C20 23.27 20 29.54 20 36 C31.41123389 36.49656897 31.41123389 36.49656897 42 33 C44.44794742 29.32807887 44.71435887 26.26893972 44 22 C41.79259319 19.03141843 40.51402627 18.17134209 37 17 C35.66474283 16.92026524 34.32587917 16.89228662 32.98828125 16.90234375 C32.30548096 16.90484131 31.62268066 16.90733887 30.91918945 16.90991211 C30.05898193 16.91901611 29.19877441 16.92812012 28.3125 16.9375 C25.569375 16.958125 22.82625 16.97875 20 17 Z " fill="#242729" transform="translate(657,36)"/>
<path d="M0 0 C7.88187697 -1.51537196 16.31468409 -2.85062164 24 0 C30.14384465 5.67602067 33.51666481 13.64329559 36.75512695 21.22924805 C37.98517583 23.96700539 39.4067011 26.45958469 41 29 C43.93429501 25.57938576 45.86256398 22.40545175 47.609375 18.26171875 C55.48071457 1.30727768 55.48071457 1.30727768 62.00097656 -1.11474609 C69.06567273 -2.11142962 76.02501922 -1.34101183 83 0 C79.57709751 6.3701376 75.85321672 12.46344424 71.875 18.5 C70.7302705 20.24856815 69.58574305 21.99726858 68.44140625 23.74609375 C67.86922363 24.61862793 67.29704102 25.49116211 66.70751953 26.39013672 C64.05971917 30.43717501 61.43586758 34.49959816 58.8125 38.5625 C54.26602564 45.60096154 54.26602564 45.60096154 52 49 C51.75902313 51.82437444 51.6270868 54.55877174 51.5859375 57.38671875 C51.56657135 58.20372757 51.5472052 59.02073639 51.5272522 59.86250305 C51.46749648 62.47072934 51.42108742 65.07899986 51.375 67.6875 C51.3368165 69.4563994 51.29776454 71.22528028 51.2578125 72.99414062 C51.16016393 77.32933045 51.08056512 81.66432422 51 86 C44.73 86 38.46 86 32 86 C32.26425781 83.82792969 32.52851562 81.65585938 32.80078125 79.41796875 C35.35353875 49.4031635 21.32114263 30.61598383 3.33473206 7.74423218 C0 3.38639352 0 3.38639352 0 0 Z " fill="#242729" transform="translate(562,36)"/>
<path d="M0 0 C2.86925394 1.01626985 5.54449255 2.35324655 8.2578125 3.7265625 C9.04211639 4.11186127 9.82642029 4.49716003 10.63449097 4.89413452 C13.13694861 6.12674669 15.63091631 7.37554515 18.125 8.625 C19.77811319 9.44248424 21.43175476 10.25890092 23.0859375 11.07421875 C26.27977265 12.65005451 29.46677306 14.23860288 32.64941406 15.83691406 C35.33235345 17.18109468 38.02521968 18.48980062 40.74902344 19.74902344 C41.81926758 20.25208008 42.88951172 20.75513672 43.9921875 21.2734375 C45.35512939 21.89484619 45.35512939 21.89484619 46.74560547 22.52880859 C49.50266868 24.32803568 50.59666327 26.04580441 52 29 C51.99153972 34.84605291 48.77094898 39.79446199 46.0625 44.8125 C45.60681641 45.68326172 45.15113281 46.55402344 44.68164062 47.45117188 C41.26627224 53.86686388 41.26627224 53.86686388 39 55 C34.15567851 55.41035269 31.12796724 54.44029678 26.80859375 52.2890625 C25.62563721 51.70809814 24.44268066 51.12713379 23.22387695 50.52856445 C21.96159621 49.89435156 20.69947357 49.25982389 19.4375 48.625 C18.14274762 47.98345456 16.84741343 47.34308203 15.55151367 46.70385742 C13.59084178 45.73655841 11.63062884 44.76844646 9.67262268 43.79576111 C5.63650243 41.79300798 1.57895987 39.84733145 -2.5078125 37.94921875 C-3.95885376 37.27415283 -3.95885376 37.27415283 -5.43920898 36.58544922 C-7.23299135 35.75460785 -9.02928307 34.9291568 -10.82836914 34.10986328 C-11.62106201 33.73974121 -12.41375488 33.36961914 -13.23046875 32.98828125 C-13.91520264 32.67415283 -14.59993652 32.36002441 -15.30541992 32.03637695 C-17 31 -17 31 -19 28 C-19.44983831 21.28022431 -16.82897324 15.7759143 -13.625 10.0625 C-13.22539063 9.30904297 -12.82578125 8.55558594 -12.4140625 7.77929688 C-9.2771858 2.01631781 -7.06995525 -0.76019909 0 0 Z " fill="#F0554A" transform="translate(92,78)"/>
<path d="M0 0 C4.96728828 0.46841467 8.55315683 2.1294682 12.98730469 4.31689453 C13.83915344 4.72438934 14.6910022 5.13188416 15.56866455 5.55172729 C18.28220623 6.85406966 20.98607396 8.17528903 23.69042969 9.49658203 C25.49194582 10.36234662 27.29402463 11.22694137 29.09667969 12.09033203 C33.33304815 14.12537385 37.54807676 16.20015238 41.75463867 18.29602051 C43.69886858 19.25271713 45.65499871 20.17310304 47.62207031 21.08154297 C54.50436344 24.42926474 54.50436344 24.42926474 56.42089844 28.57080078 C55.73480877 33.99816049 53.68533029 38.32263586 51.25292969 43.18408203 C50.80498047 44.13734375 50.35703125 45.09060547 49.89550781 46.07275391 C46.58763417 52.8666545 46.58763417 52.8666545 44.21459961 54.71801758 C37.66762005 56.59952743 31.71269058 53.12539686 26.00683594 50.25830078 C25.17006821 49.84747757 24.33330048 49.43665436 23.47117615 49.01338196 C20.81047756 47.70440476 18.15672074 46.38199795 15.50292969 45.05908203 C13.72407304 44.18123628 11.94477989 43.30427445 10.16503906 42.42822266 C6.14152982 40.44490757 2.12049172 38.45691994 -1.89035034 36.4480896 C-3.35304751 35.72220445 -4.82196931 35.00874639 -6.29641724 34.30703735 C-7.00337738 33.9671579 -7.71033752 33.62727844 -8.4387207 33.27709961 C-9.06460587 32.98136551 -9.69049103 32.68563141 -10.33534241 32.38093567 C-12.25963701 31.25446407 -13.60993152 30.06266701 -15.05957031 28.37158203 C-15.84016319 21.76841199 -12.7757868 15.99627059 -9.62207031 10.43408203 C-9.21408203 9.680625 -8.80609375 8.92716797 -8.38574219 8.15087891 C-4.19200815 0.50911558 -4.19200815 0.50911558 0 0 Z " fill="#F0554A" transform="translate(325.0595703125,96.62841796875)"/>
<path d="M0 0 C5.59861559 0.07319445 9.69325327 2.0341553 14.60180664 4.56152344 C15.91930153 5.21317474 15.91930153 5.21317474 17.26341248 5.87799072 C20.05020053 7.26115884 22.82389715 8.66854469 25.59790039 10.07714844 C27.46362205 11.00847003 29.33015253 11.93817314 31.19750977 12.86621094 C35.404908 14.96141038 39.60511571 17.06997297 43.79446411 19.2010498 C45.31064169 19.96294809 46.8344896 20.70973981 48.36495972 21.44250488 C53.93273423 24.12181611 53.93273423 24.12181611 55.03540039 26.32714844 C55.5941805 32.9671978 54.19054073 37.25114317 51.22290039 43.13964844 C50.86647461 43.88923828 50.51004883 44.63882813 50.14282227 45.41113281 C46.66785302 52.54597792 46.66785302 52.54597792 44.03540039 54.32714844 C37.88211548 54.97234567 33.80857185 53.81736382 28.34399414 51.10839844 C27.6362233 50.77223511 26.92845245 50.43607178 26.19923401 50.08972168 C23.94992155 49.01651395 21.711749 47.92198731 19.47290039 46.82714844 C17.9989325 46.12267968 16.52432657 45.41954428 15.04907227 44.71777344 C7.81729733 41.25798727 0.65805378 37.66757398 -6.42944336 33.92089844 C-7.06080704 33.58900513 -7.69217072 33.25711182 -8.34266663 32.91516113 C-10.87184455 31.56092867 -12.92357878 30.36816927 -14.96459961 28.32714844 C-15.85783449 21.10884498 -13.53531067 16.58764751 -10.02709961 10.38964844 C-9.55852539 9.52791016 -9.08995117 8.66617187 -8.60717773 7.77832031 C-4.55294356 0.37569705 -4.55294356 0.37569705 0 0 Z " fill="#F0554A" transform="translate(251.964599609375,250.6728515625)"/>
<path d="M0 0 C3.37060547 1.25 3.37060547 1.25 6.8671875 3 C7.5001474 3.31161072 8.1331073 3.62322144 8.7852478 3.9442749 C10.8217552 4.95016468 12.84821189 5.9746893 14.875 7 C16.2711157 7.69443126 17.66792896 8.38746182 19.06542969 9.07910156 C21.13820663 10.1053169 23.21039591 11.13255708 25.27990723 12.16534424 C31.21509297 15.12568626 37.21167654 17.94170784 43.26513672 20.65234375 C49.51134157 23.51890261 49.51134157 23.51890261 51 26 C51.96465538 33.11044369 49.64610486 37.73148446 46.25 43.875 C45.8065625 44.72835937 45.363125 45.58171875 44.90625 46.4609375 C40.97174496 53.77448805 40.97174496 53.77448805 37 55 C32.0948477 54.70589635 28.09112914 52.84609701 23.7578125 50.68359375 C23.07177948 50.34884537 22.38574646 50.01409698 21.67892456 49.66920471 C19.49064936 48.59920193 17.30785038 47.51851914 15.125 46.4375 C13.69825845 45.73823451 12.27117744 45.03966118 10.84375 44.34179688 C7.28281886 42.59822846 3.72973491 40.83925849 0.17834473 39.07635498 C-2.07775757 37.96157874 -4.33964411 36.85921552 -6.60253906 35.75830078 C-8.07103605 35.0382338 -9.53946308 34.31802411 -11.0078125 33.59765625 C-11.69632294 33.2655162 -12.38483337 32.93337616 -13.09420776 32.59117126 C-17.88673526 30.22652949 -17.88673526 30.22652949 -19 28 C-19.7203138 21.46633013 -17.55725914 16.9759599 -14.6875 11.1875 C-14.28337891 10.32962891 -13.87925781 9.47175781 -13.46289062 8.58789062 C-10.17112069 1.78489943 -8.0807021 -0.67488573 0 0 Z " fill="#F0554A" transform="translate(19,232)"/>
<path d="M0 0 C4.94748837 0.13072632 8.79126766 1.87600757 13.171875 4.04296875 C13.91308594 4.38263672 14.65429688 4.72230469 15.41796875 5.07226562 C19.73011621 7.14318025 23.09710793 8.99333713 25.421875 13.35546875 C25.0770933 18.75429595 23.43426797 23.13809085 21.10546875 27.94921875 C20.77072037 28.65840454 20.43597198 29.36759033 20.09107971 30.0982666 C19.38179251 31.59625883 18.66799487 33.09212282 17.94995117 34.5859375 C16.87785517 36.81701081 15.81953416 39.05417483 14.76367188 41.29296875 C11.31847486 48.56115249 7.76146372 55.76639668 4.01953125 62.88671875 C3.6873912 63.5262146 3.35525116 64.16571045 3.01304626 64.82458496 C0.6601818 69.23631535 0.6601818 69.23631535 -1.578125 70.35546875 C-7.56655209 71.12607255 -12.01580468 68.70250328 -17.265625 66.16796875 C-18.54663086 65.58692383 -18.54663086 65.58692383 -19.85351562 64.99414062 C-23.391711 63.31259451 -26.07296859 61.91215295 -28.72265625 58.9921875 C-30.88441301 52.32923859 -27.4062897 46.27569453 -24.46484375 40.421875 C-24.05402054 39.58510727 -23.64319733 38.74833954 -23.21992493 37.88621521 C-21.91094773 35.22551662 -20.58854092 32.5717598 -19.265625 29.91796875 C-18.38777925 28.1391121 -17.51081741 26.35981895 -16.63476562 24.58007812 C-14.65222319 20.55813633 -12.66374787 16.53929074 -10.65853882 12.52859497 C-9.92383941 11.0508329 -9.19742255 9.5689302 -8.47842407 8.08346558 C-8.12952118 7.36748199 -7.78061829 6.65149841 -7.42114258 5.91381836 C-6.96013908 4.95758827 -6.96013908 4.95758827 -6.48982239 3.98204041 C-4.65503492 0.70857124 -3.81613394 0.37911374 0 0 Z " fill="#96D6D7" transform="translate(124.578125,1.64453125)"/>
<path d="M0 0 C3.34579767 1.16391596 6.49981994 2.64853587 9.6875 4.1875 C10.54150391 4.57486328 11.39550781 4.96222656 12.27539062 5.36132812 C15.85067576 7.06050134 18.50342681 8.43830246 21.14453125 11.42578125 C22.92487791 16.7830801 20.5366576 21.43465912 18.15625 26.26171875 C17.87102982 26.84618774 17.58580963 27.43065674 17.29194641 28.03283691 C16.36853072 29.92137406 15.43454645 31.80444972 14.5 33.6875 C13.5401244 35.63994671 12.58255908 37.59351456 11.62519836 39.54719543 C10.98784164 40.84744054 10.34956847 42.14723684 9.71037292 43.44657898 C7.81897597 47.29791579 5.97400377 51.16646118 4.17578125 55.0625 C3.76972656 55.94075439 3.36367188 56.81900879 2.9453125 57.72387695 C2.20850159 59.32628189 1.47769581 60.93146641 0.75390625 62.53979492 C-0.86164712 66.03254758 -1.72810195 67.81873463 -5 70 C-11.16023193 70.70402651 -15.31327071 68.91116358 -20.6875 66.25 C-21.43322266 65.90195313 -22.17894531 65.55390625 -22.94726562 65.1953125 C-30.61212984 61.50304963 -30.61212984 61.50304963 -33 58 C-33.5852927 52.05337083 -32.15281539 48.29632155 -29.52734375 43.15234375 C-29.1666127 42.41859024 -28.80588165 41.68483673 -28.43421936 40.92884827 C-27.28147822 38.59177788 -26.10994413 36.26473753 -24.9375 33.9375 C-24.17647336 32.40231718 -23.41669679 30.866514 -22.65820312 29.33007812 C-21.16955774 26.31978674 -19.66950297 23.31563421 -18.15966797 20.31591797 C-16.74307353 17.49829779 -15.35201709 14.6705409 -13.98486328 11.82861328 C-13.67045792 11.18114639 -13.35605255 10.5336795 -13.03211975 9.86659241 C-12.18642988 8.12253653 -11.34795354 6.37498801 -10.51000977 4.62719727 C-7.81454998 -0.06251053 -5.10247095 -0.57730814 0 0 Z " fill="#96D6D7" transform="translate(282,75)"/>
<path d="M0 0 C6.27 0 12.54 0 19 0 C19.14509491 6.48798086 19.28736928 12.97601587 19.42724609 19.46411133 C19.47500993 21.66236969 19.52348933 23.86061265 19.57275391 26.05883789 C19.87811861 39.70988633 20.05383796 53.34534688 20 67 C31.22 67 42.44 67 54 67 C54 72.94 54 78.88 54 85 C36.18 85.33 18.36 85.66 0 86 C0 57.62 0 29.24 0 0 Z " fill="#242729" transform="translate(888,36)"/>
<path d="M0 0 C2.24512028 0.9703486 4.44364562 2.00841715 6.64257812 3.07910156 C7.39667969 3.43101562 8.15078125 3.78292969 8.92773438 4.14550781 C16.12521482 7.58444607 16.12521482 7.58444607 17.89257812 10.20410156 C18.58427262 16.51492678 17.27849696 20.59089307 14.41992188 26.14941406 C13.8788253 27.24792191 13.8788253 27.24792191 13.32679749 28.36862183 C12.17589121 30.69641944 11.00356539 33.01261979 9.83007812 35.32910156 C9.06886578 36.85963289 8.30908822 38.39087868 7.55078125 39.92285156 C6.06370319 42.92109447 4.56516577 45.91313043 3.05615234 48.90039062 C1.63014044 51.72567222 0.22587385 54.55995771 -1.15771484 57.40625 C-1.47663193 58.05818329 -1.79554901 58.71011658 -2.12413025 59.38180542 C-2.98472831 61.14356161 -3.84008339 62.90787621 -4.69506836 64.67236328 C-6.10742188 67.20410156 -6.10742188 67.20410156 -8.10742188 68.20410156 C-15.34212919 68.96225372 -19.80256177 66.8286795 -26.04492188 63.32910156 C-26.90666016 62.86890625 -27.76839844 62.40871094 -28.65625 61.93457031 C-34.95446936 58.51000659 -34.95446936 58.51000659 -36.10742188 56.20410156 C-36.49071953 50.92026944 -35.72042135 47.55788527 -33.36132812 42.84472656 C-32.93144341 41.97021347 -32.93144341 41.97021347 -32.49287415 41.07803345 C-31.56469887 39.19671055 -30.61781756 37.32555417 -29.66992188 35.45410156 C-29.02485941 34.15805789 -28.38114975 32.86134006 -27.73876953 31.56396484 C-26.77462462 29.6171443 -25.80954966 27.67086512 -24.83905029 25.72720337 C-22.93361149 21.90596945 -21.09183088 18.06375452 -19.31445312 14.18066406 C-18.91347412 13.30635742 -18.51249512 12.43205078 -18.09936523 11.53125 C-17.37525649 9.94153453 -16.65816935 8.34859457 -15.94946289 6.75195312 C-12.15847387 -1.48511694 -8.76008033 -3.30837139 0 0 Z " fill="#96D6D7" transform="translate(113.107421875,239.7958984375)"/>
<path d="M0 0 C5.42187364 0.07137228 9.65801249 2.25498903 14.4296875 4.64453125 C15.28304687 5.04865234 16.13640625 5.45277344 17.015625 5.86914062 C23.27711505 8.91567257 23.27711505 8.91567257 25.5546875 12.33203125 C26.3656386 18.78762882 24.16281227 23.113484 21.3203125 28.703125 C20.66866119 30.02486473 20.66866119 30.02486473 20.00384521 31.37330627 C18.6169973 34.17865402 17.21124016 36.97401989 15.8046875 39.76953125 C14.87373514 41.64455482 13.94403466 43.5202005 13.015625 45.39648438 C10.91829396 49.62805876 8.8080646 53.85293017 6.68859863 58.07345581 C4.97293043 61.49080127 3.26407478 64.91154044 1.5546875 68.33203125 C-6.67233506 69.3463217 -12.82735353 68.26796736 -20.1328125 64.58203125 C-20.82761719 64.23462891 -21.52242187 63.88722656 -22.23828125 63.52929688 C-24.87670046 62.11324054 -27.07600342 60.79153149 -28.96484375 58.44140625 C-30.23448836 52.86735676 -27.49215403 47.75638352 -25.12890625 42.8359375 C-24.79415787 42.12533676 -24.45940948 41.41473602 -24.11451721 40.68260193 C-23.4043488 39.1790576 -22.69056121 37.67721803 -21.97338867 36.17700195 C-20.90280199 33.93636732 -19.84398493 31.69048813 -18.78710938 29.44335938 C-5.10072762 0.49156672 -5.10072762 0.49156672 0 0 Z " fill="#96D6D7" transform="translate(259.4453125,311.66796875)"/>
</svg>
